<?xml version="1.0" standalone="no"?>
<!DOCTYPE svg PUBLIC "-//W3C//DTD SVG 1.1//EN" "http://www.w3.org/Graphics/SVG/1.1/DTD/svg11.dtd" >
<svg xmlns="http://www.w3.org/2000/svg" xmlns:xlink="http://www.w3.org/1999/xlink" version="1.1">
<metadata></metadata>
<defs>
<font id="shrikhandregular" horiz-adv-x="1470" >
<font-face units-per-em="2048" ascent="1536" descent="-512" />
<missing-glyph horiz-adv-x="400" />
<glyph unicode="&#xfb01;" horiz-adv-x="1488" d="M-90 62q5 15 16 25t25 17.5t29 18.5t30.5 33.5t25.5 56.5l157 513q14 52 8.5 82t-23.5 53.5t-37.5 36.5t-35 30.5t-15.5 36.5q-1 38 27.5 54.5t110.5 16.5h53q-12 57 -10 109.5t16 95.5q80 242 475 242q121 0 233.5 -35t239.5 -109q27 80 86 126t132 46q46 0 83 -15 t59 -40.5t35.5 -58t12.5 -67.5t-9 -70q-25 -76 -83.5 -118t-141.5 -42q-46 0 -101 21t-107.5 51.5t-106 61t-111 51.5t-106.5 21q-110 0 -144 -113q-17 -58 0.5 -107.5t61.5 -49.5h433q167 0 227.5 -66t23.5 -187l-177 -574q-9 -35 -5.5 -55t14 -35t22.5 -23.5t19.5 -20 t3.5 -25.5q-9 -26 -39 -38t-93 -12h-458q-53 0 -76 17t-16 45q5 15 16.5 25t25.5 17.5t29 18.5t30.5 33.5t25.5 56.5l195 646h-259l-199 -650q-10 -36 -6.5 -56t14.5 -34.5t23 -23t19.5 -20t3.5 -25.5q-9 -26 -39 -38t-93 -12h-458q-53 0 -76.5 17t-15.5 45z" />
<glyph unicode="&#xfb02;" horiz-adv-x="1496" d="M-90 62q5 15 16 25t25 17.5t29 18.5t30.5 33.5t25.5 56.5l157 513q14 52 8.5 82t-23.5 53.5t-37.5 36.5t-35 30.5t-15.5 36.5q-1 38 27.5 54.5t110.5 16.5h55q-18 54 -17.5 108t17.5 97q43 112 157 177t303 65q179 0 329 -74q49 32 143.5 53t187.5 21q61 0 106.5 -13 t71.5 -35.5t38.5 -54.5t11 -69t-14.5 -79l-316 -1023q-9 -35 -5.5 -55t14 -35t22.5 -23.5t19.5 -20t3.5 -25.5q-6 -18 -20.5 -28.5t-41.5 -16t-70 -5.5h-458q-52 0 -75.5 17t-16.5 45q5 15 16.5 25t25.5 17.5t29 18.5t30.5 33.5t25.5 56.5l197 646h-259l-199 -650 q-10 -36 -6.5 -56t14.5 -34.5t23 -23t19.5 -20t3.5 -25.5q-9 -26 -39 -38t-93 -12h-458q-53 0 -76.5 17t-15.5 45zM728 1086.5q19 -50.5 63 -50.5h259l46 152q-133 93 -229 93q-109 0 -139 -88q-19 -56 0 -106.5z" />
<glyph horiz-adv-x="0" />
<glyph horiz-adv-x="682" />
<glyph unicode=" "  horiz-adv-x="400" />
<glyph unicode="&#x09;" horiz-adv-x="400" />
<glyph unicode="&#xa0;" horiz-adv-x="400" />
<glyph unicode="!" horiz-adv-x="724" d="M54 180q0 54 26.5 105t79 86t117.5 35q80 0 134.5 -53.5t55.5 -130.5q1 -56 -26 -108t-80 -86t-118 -34q-80 0 -134 54t-55 132zM257 556l26 637q7 152 85.5 225.5t217.5 73.5q108 0 169 -46.5t63.5 -132t-61.5 -206.5l-315 -561q-25 -45 -50 -64.5t-61 -19.5 q-37 0 -56.5 24t-17.5 70z" />
<glyph unicode="&#x22;" horiz-adv-x="854" d="M209 1050l46 283q7 45 20.5 70t39 37.5t68.5 12.5h147q42 0 67 -20t25 -50q0 -26 -24 -69l-156 -266q-22 -36 -46 -49t-61 -13h-70q-31 0 -46.5 17t-9.5 47zM630 1023q-3 12 0 27l46 283q11 66 38 93t91 27h147q42 0 67 -20t25 -50q0 -26 -25 -69l-156 -266 q-22 -36 -45.5 -49t-60.5 -13h-71q-15 0 -27 4t-19 12.5t-10 20.5z" />
<glyph unicode="#" horiz-adv-x="1172" d="M90 431q21 83 145 83h56l113 335h-59q-52 0 -74.5 25.5t-11.5 67.5q24 84 145 84h58l46 138q20 59 47 83.5t63 24.5q54 0 74 -31t1 -90l-42 -125h188l46 138q35 108 109 108q55 0 75.5 -31.5t0.5 -89.5l-42 -125h56q53 0 75.5 -26.5t10.5 -68.5q-8 -30 -28 -48.5t-48 -26 t-68 -7.5h-57l-112 -335h58q52 0 74.5 -25.5t12.5 -67.5q-25 -84 -145 -84h-58l-46 -138q-35 -109 -111 -109q-54 0 -73.5 32.5t-0.5 92.5l41 122h-188l-46 -138q-10 -30 -22.5 -51.5t-26 -34t-28 -18t-31.5 -5.5q-55 0 -75.5 31.5t-0.5 91.5l42 124h-57q-53 0 -75.5 26.5 t-10.5 67.5zM479 514h189l113 335h-189z" />
<glyph unicode="$" horiz-adv-x="1314" d="M-26 124l99 299q16 52 44.5 74t71.5 22q47 0 83.5 -31.5t96.5 -116.5q77 -108 139 -138l68 251q-10 7 -32 20q-48 29 -74 45.5t-71 50.5t-68.5 61.5t-51.5 71t-36.5 86.5t-7 101t21.5 122q41 137 172 221.5t299 84.5l84 -3l33 120q16 57 47 78.5t83 19.5q48 -1 66 -40.5 t1 -97.5l-37 -128q33 -4 125 -60l46 37q47 38 79 52.5t72 14.5q58 0 86 -31.5t12 -85.5l-84 -276q-14 -49 -35.5 -69t-62.5 -20q-20 0 -37 6t-30 13.5t-34 28.5t-35 37t-46 54q-41 47 -63 68t-46 36l-65 -235q11 -6 34 -20q49 -30 75.5 -46.5t73.5 -51t71.5 -61.5t54.5 -70 t40.5 -85t10 -97.5t-18.5 -116.5q-32 -107 -109.5 -182.5t-178.5 -110t-222 -34.5h-72l-34 -120q-16 -59 -46 -83t-76 -15q-47 9 -66 44.5t-5 93.5l33 124q-73 29 -159 96l-73 -59q-51 -42 -82.5 -57.5t-70.5 -15.5q-58 0 -85.5 33.5t-7.5 90.5zM612 1084 q-10 -43 11.5 -80.5t75.5 -64.5l63 223q-57 3 -98 -17.5t-52 -60.5zM697 182q57 -3 98.5 18t51.5 61q10 42 -11.5 80t-75.5 65z" />
<glyph unicode="%" horiz-adv-x="2641" d="M182.5 813q-3.5 59 10.5 135q25 111 76 189.5t128 125.5t172 68t218 21q82 0 150 -9t126.5 -29t99 -51.5t67.5 -76.5t31 -104t-11 -134q-23 -111 -74 -190t-128.5 -126t-173.5 -68.5t-219 -21.5q-82 0 -150 9t-126.5 29t-98.5 52t-67 77t-30.5 104zM596 767.5 q-1 -63.5 15 -85t51 -21.5q28 0 49 11.5t42 42t39 88.5t33 145q17 87 22.5 143t-1.5 87t-21.5 42.5t-41.5 11.5q-37 0 -63.5 -21t-52.5 -85t-49 -178q-21 -117 -22 -180.5zM717.5 -111q-16.5 36 21.5 88l1069 1442q25 33 53.5 48.5t69.5 15.5q58 0 74.5 -36t-21.5 -89 l-1069 -1440q-24 -34 -53 -49.5t-69 -15.5q-59 0 -75.5 36zM1466.5 265.5q-3.5 59.5 10.5 134.5q24 111 75.5 190t128.5 125.5t172.5 68t218.5 21.5q82 0 149.5 -9.5t126.5 -29t99.5 -51.5t67.5 -76.5t30.5 -104t-10.5 -134.5q-24 -111 -75 -190t-128.5 -126t-173.5 -68.5 t-220 -21.5q-81 0 -149 9t-126.5 29t-99 52t-67 77t-30 104.5zM1882 255q-5 -57 2 -88t22 -42.5t41 -11.5q28 0 49 11.5t41.5 42.5t38.5 88.5t33 144.5q23 115 24 178t-15 84.5t-51 21.5q-37 0 -63.5 -21t-52 -85t-48.5 -178q-16 -88 -21 -145z" />
<glyph unicode="&#x26;" horiz-adv-x="1643" d="M-48 287.5q1 41.5 16 85.5q20 61 57.5 109t83.5 77.5t102.5 49t111 27t112.5 6.5l-56 63q-38 43 -55 96t-15 103q4 165 147 264.5t399 99.5q183 0 281 -81t70 -203q-16 -72 -79.5 -129.5t-163.5 -94.5l113 -111l140 123q71 62 130.5 89.5t124.5 27.5q35 0 70.5 -9 t69.5 -28.5t57 -49t32.5 -70.5t-4.5 -94q-11 -45 -39 -78t-63.5 -48.5t-67 -22.5t-61.5 -7q-16 0 -28.5 4.5t-20.5 11.5t-15 16.5t-12 19t-12 18.5t-14 16t-17.5 11.5t-24.5 4.5l-6.5 0.5t-9.5 0t-10.5 -2t-13.5 -4.5t-15 -8.5t-17 -13.5l-43 -39l104 -103 q72 -73 99.5 -159.5t3.5 -166.5q-24 -87 -90 -153t-163 -102t-210 -36q-55 0 -111 7t-106.5 21t-77.5 38.5t-15 56.5q5 18 26 29t41 11q6 0 35.5 -2t36.5 -2q52 0 88 28t39 78q0 56 -69 131l-16 -15q-109 -96 -209.5 -139t-242.5 -43q-67 0 -126.5 10t-105.5 28.5t-82 44.5 t-58.5 59t-34 70.5t-10.5 79zM450 391q-14 -55 13.5 -88t90.5 -33q66 0 156 63l-144 163q-32 -12 -57 -29.5t-39.5 -36.5t-19.5 -39zM764 1007q0 -48 46 -92l35 -34q44 19 75 50.5t39 70.5q9 38 -17.5 67t-74 29t-75.5 -25.5t-28 -65.5z" />
<glyph unicode="'" horiz-adv-x="519" d="M273 1050l46 283q11 66 38.5 93t90.5 27h146q42 0 67 -20t25 -50q0 -28 -24 -69l-156 -266q-23 -36 -46 -49t-60 -13h-71q-30 0 -45.5 17t-10.5 47z" />
<glyph unicode="(" horiz-adv-x="948" d="M159 339q32 -168 107.5 -302.5t173 -228.5t190 -144.5t157.5 -50.5q54 0 66 34q6 17 -1.5 39.5t-24 51t-38.5 64t-45.5 82t-44.5 101t-35.5 126.5t-19.5 152t6 183.5t38 215.5q27 114 66.5 212.5t82.5 170t91.5 132t96 102.5t93 76t86 59t72 45t52.5 39t26 38 q6 19 0 34.5t-21 26.5t-40 17t-56 6q-57 0 -127 -14t-149 -41t-162 -70.5t-163.5 -98.5t-155.5 -128.5t-137 -157t-109 -188t-69 -217.5q-38 -198 -6 -366z" />
<glyph unicode=")" horiz-adv-x="1036" d="M-311 -303q-11 -38 21.5 -61t96.5 -23q66 0 147 17.5t174.5 55.5t187 91t183.5 130t165 167t132 207.5t83 246.5q32 164 14.5 309t-70.5 266t-127 217t-155.5 162.5t-156 102t-127.5 35.5q-54 0 -66 -34q-6 -17 1 -40t23.5 -51t39 -63.5t45.5 -82t44 -101t35.5 -126.5 t19 -152t-6 -183.5t-37.5 -216.5q-28 -113 -67 -211.5t-82 -170t-91.5 -132t-96 -102.5t-93 -76t-85.5 -59t-71.5 -45t-52.5 -39t-27 -38z" />
<glyph unicode="*" horiz-adv-x="830" d="M255 1281q12 42 47.5 64t78.5 22q31 0 56.5 -11t47 -31.5t41.5 -52.5q-1 5 -4.5 23t-5.5 30.5t-3.5 31.5t0 37.5t6.5 36.5q16 48 50.5 77.5t83.5 29.5q53 0 80 -43t6 -110q-4 -14 -13.5 -35t-22 -42.5t-23.5 -37.5q54 49 97 73t88 24q57 0 80.5 -42.5t8.5 -92.5 q-9 -26 -30.5 -46.5t-53.5 -33.5t-73 -19.5t-88 -6.5q71 -27 104.5 -68.5t15.5 -105.5q-14 -49 -49 -72t-77 -23q-60 0 -96 56t-39 144q-39 -97 -94 -148.5t-110 -51.5q-46 0 -74 39t-11 94q8 26 26 48.5t43.5 38.5t49 27t54.5 22q-116 0 -166.5 46t-30.5 109z" />
<glyph unicode="+" horiz-adv-x="1318" d="M165 682q13 53 51.5 81t96.5 28h299l70 263q14 56 48.5 84t79.5 28q39 0 64.5 -16.5t34 -48t-2.5 -75.5l-63 -235h305q58 0 82 -28t13 -81q-35 -108 -151 -108h-307l-71 -263q-14 -56 -49 -84t-81 -28q-59 0 -85.5 37.5t-8.5 102.5l64 235h-297q-59 0 -83 27.5t-9 80.5z " />
<glyph unicode="," horiz-adv-x="583" d="M-98 -263q0 19 13 38.5t33 35.5t43 35t43 35.5t33 38t13 42.5q0 17 -14 39.5t-31.5 43.5t-32 57.5t-14.5 77.5q0 93 60 159.5t145 66.5q95 0 157.5 -66.5t59.5 -176.5q-2 -77 -32.5 -151t-78.5 -130.5t-106 -100.5t-117 -67t-108 -23q-66 0 -66 46z" />
<glyph unicode="-" horiz-adv-x="1141" d="M251 707q10 39 32.5 66.5t57 41.5t76.5 14h468q66 0 93 -31.5t14 -90.5q-39 -123 -169 -123h-468q-67 0 -94 32t-10 91z" />
<glyph unicode="." horiz-adv-x="595" d="M16 180q0 54 26.5 105t79 86t117.5 35q80 0 134.5 -53.5t55.5 -130.5q1 -56 -26 -108t-80 -86t-118 -34q-53 0 -96 25t-67.5 67.5t-25.5 93.5z" />
<glyph unicode="/" horiz-adv-x="902" d="M-45 -72.5q-1 30.5 19 62.5l928 1417q17 27 34 43.5t35.5 24.5t39.5 8q38 0 62.5 -22.5t25 -54t-18.5 -63.5l-927 -1414q-52 -76 -107 -76q-40 0 -65 22t-26 52.5z" />
<glyph unicode="0" horiz-adv-x="1426" d="M55.5 440.5q5.5 100.5 40.5 223.5q42 149 103 263t136 192t169 128t198.5 72t228.5 22q104 0 188.5 -15.5t154.5 -48.5t116 -86.5t70 -127.5t19 -174.5t-40 -224.5q-42 -148 -102.5 -262.5t-135.5 -192t-170 -127.5t-200 -72t-229 -22q-104 0 -188.5 15.5t-154.5 48.5 t-115.5 86.5t-69.5 127.5t-18.5 174.5zM566 214q14 -43 62 -43q35 0 64.5 20t62.5 73t69 152t76 248q100 362 71 450q-14 42 -62 42q-34 0 -63.5 -20t-62.5 -73t-69.5 -151t-77.5 -248q-98 -362 -70 -450z" />
<glyph unicode="1" horiz-adv-x="906" d="M-50 78q7 23 29 38t49.5 24t55.5 20.5t51.5 34t33.5 56.5l208 739q8 25 4 45.5t-16 34t-28 27t-32 23.5t-28.5 23.5t-18 27.5t0.5 35q4 22 23.5 33.5t64.5 20.5l423 75q53 10 87 10q37 0 60 -18.5t29 -58t-11 -100.5l-263 -921q-8 -29 -1.5 -50t21.5 -32.5t33.5 -23 t34.5 -21.5t23.5 -27t1.5 -39q-6 -20 -22 -31.5t-47 -17t-82 -5.5h-604q-48 0 -68 22t-12 56z" />
<glyph unicode="2" horiz-adv-x="1424" d="M24 168.5q-6 77.5 22 180.5q42 138 154.5 223t316.5 144q71 21 124.5 41t91 40.5t63 39.5t43 42t27.5 43.5t19 48.5q30 101 -22 154.5t-151 28.5q7 -79 -14 -140.5t-63 -97t-95 -53.5t-115 -18q-113 0 -167 70.5t-23 180.5q36 118 182.5 179.5t375.5 61.5 q86 0 165.5 -11.5t143 -32.5t119 -50t94.5 -63.5t69 -74t43 -81t16 -84.5t-12 -85q-9 -29 -21.5 -51.5t-29 -43t-41.5 -37.5t-54 -32.5t-72 -30.5t-89 -28.5t-112 -28.5t-135 -29t-163 -32q-169 -31 -255 -57t-119 -53.5t-37 -71.5h578q57 0 104.5 9t78.5 23.5t56 32.5 t42 35.5t31.5 32.5t29.5 24t31 9q31 0 58 -37t36.5 -101t-15.5 -151q-28 -86 -81 -137t-144.5 -75.5t-234.5 -24.5h-708q-59 0 -97 45.5t-44 123z" />
<glyph unicode="3" horiz-adv-x="1448" d="M29 312.5q-2 37.5 11 76.5q13 44 39 76.5t61 50t73.5 26t83.5 8.5q124 0 201 -55.5t74 -145.5q0 -33 -11 -70.5t-31 -65.5q53 -22 131 -22q50 0 90 17.5t68 53t42 87.5q21 71 6.5 121.5t-54.5 78t-95 27.5q-63 0 -92.5 22.5t-16.5 73.5q7 20 15.5 34t21 25t31 16.5 t41.5 5.5h59q29 1 54.5 9.5t46.5 23t38.5 35t30.5 46t22 54.5q15 65 10.5 109.5t-27.5 72t-51 39.5t-62 12q-37 0 -77 -8q12 -68 0 -127q-19 -77 -87.5 -124.5t-184.5 -47.5q-143 0 -207 69t-30 184q15 51 55 92t111 74.5t185 52t263 18.5q153 0 283.5 -35.5t216.5 -95.5 t122.5 -145.5t7.5 -181.5q-16 -56 -43.5 -97.5t-68 -69.5t-88.5 -45.5t-111 -28.5q140 -55 188 -136.5t13 -198.5q-29 -95 -124 -166t-243 -109t-329 -38q-96 0 -180 9t-149.5 24.5t-121 38t-93 50.5t-65.5 60t-39.5 67.5t-13.5 73z" />
<glyph unicode="4" horiz-adv-x="1576" d="M60 437q10 35 40.5 66.5t68.5 58t77 54.5t71.5 68t46.5 86q11 39 5.5 80t-22 75.5t-36 72.5t-36.5 70.5t-23 70.5t5 71q21 63 76 95t136 32q66 0 131 -25.5t116.5 -70.5t89 -105.5t47.5 -130t-8 -146.5q-37 -127 -145.5 -207.5t-339.5 -159.5q288 45 503 50l169 594 q21 70 60.5 97t117.5 27h217q70 0 96.5 -37t6.5 -101l-163 -576h92q61 0 93 -25.5t20 -68.5q-22 -92 -167 -92h-91l-33 -123q-10 -34 -8.5 -60.5t10 -40t17.5 -28t14 -25.5t0 -33q-7 -28 -35 -39t-84 -11h-462q-53 0 -78 20.5t-17 53.5q4 15 14 26.5t22 18t26.5 16.5t28 21 t27 32t21.5 49l33 118q-153 -6 -352.5 -27t-279.5 -21q-67 0 -101 37t-17 93z" />
<glyph unicode="5" horiz-adv-x="1356" d="M-6.5 281.5q1.5 23.5 8.5 47.5q42 142 218 142q70 0 119.5 -24.5t71 -65.5t16.5 -95t-38 -112q150 -27 242.5 26t123.5 164q30 107 -12.5 164.5t-136.5 57.5q-50 0 -127 -23t-138 -23h-66q-101 0 -64 122l136 464q26 90 79.5 124.5t153.5 34.5q49 0 186.5 -6.5 t212.5 -6.5q77 0 137.5 8.5t94 20.5t57 24t40.5 20.5t31 8.5q26 0 50 -30.5t36 -88.5t-6 -141q-28 -129 -107.5 -189t-229.5 -60q-70 0 -149.5 19.5t-137 43.5t-121.5 43.5t-108 19.5q-31 0 -55 -19.5t-36 -58.5l-50 -183q166 67 354 67q90 0 173.5 -17t154 -53t119 -85.5 t67 -120t0.5 -152.5q-38 -164 -212 -262.5t-461 -98.5q-79 0 -148.5 5.5t-125.5 15.5t-104 23.5t-84 30.5t-65 37t-48 42t-31 44.5t-17 47t-3.5 48z" />
<glyph unicode="6" horiz-adv-x="1450" d="M110.5 519.5q3.5 126.5 46.5 275.5q42 143 114 249.5t170.5 173.5t219 99.5t264.5 32.5q136 0 244.5 -21.5t178 -59t106.5 -87t38 -106.5q0 -42 -13 -79t-40.5 -69t-77 -50.5t-116.5 -18.5q-101 0 -167 41t-80 110.5t28 161.5q-127 22 -214.5 -68.5t-147.5 -308.5 q97 45 227 48q129 1 234 -33t173 -93.5t95 -146t3 -187.5q-21 -89 -71 -160t-131 -125t-202 -83t-276 -29q-151 0 -267 36.5t-191.5 105.5t-113 167t-34 224.5zM603.5 232q21.5 -65 76.5 -65q51 0 94 63t73 172q14 53 15 99.5t-9.5 77t-29 48t-42.5 17.5q-56 0 -104 -62.5 t-71 -179.5q-24 -105 -2.5 -170z" />
<glyph unicode="7" horiz-adv-x="1304" d="M142 853l117 409q25 85 88 85q23 0 40.5 -7.5t37.5 -25.5q25 -20 49.5 -28.5t61.5 -8.5h699q127 0 182.5 -64t29.5 -156q-14 -51 -48 -90.5t-110 -97.5q-132 -101 -208 -222.5t-160 -347.5q-32 -90 -67.5 -151t-77.5 -97t-88 -51.5t-104 -15.5q-65 0 -120.5 26t-91.5 72 t-48.5 108.5t7.5 136.5q17 58 46 107t85.5 105.5t141.5 112t213 121t299 138.5h-608q-41 0 -71 -12.5t-60 -41.5l-44 -43q-19 -19 -34.5 -30.5t-29.5 -18.5t-26.5 -9.5t-27.5 -2.5q-54 0 -71 24t-2 76z" />
<glyph unicode="8" horiz-adv-x="1444" d="M46 400q56 207 420 270q-23 17 -42.5 32t-40 32.5t-37 34.5t-33 36t-29 37.5t-23 39t-16.5 41.5t-9 43.5t-1 46.5t8 48q38 136 188.5 206t409.5 70q144 0 262 -23t195 -62t125 -90t63 -107.5t0 -115.5q-28 -100 -122 -153.5t-259 -71.5q32 -18 58.5 -36t54 -38.5t48 -42 t39.5 -45.5t31 -49.5t18.5 -53.5t5.5 -59t-10 -65q-21 -79 -67.5 -139t-127.5 -106.5t-206.5 -71t-291.5 -24.5t-294.5 31t-206 86t-107 131.5t-3.5 167.5zM514 368q-25 -96 14.5 -146.5t111.5 -50.5q129 0 163 124q17 64 -24 121.5t-128 123.5q-105 -58 -137 -172z M716 1072q-18 -65 25.5 -119t137.5 -110q65 51 92 147q23 77 -15.5 124.5t-106.5 47.5q-107 0 -133 -90z" />
<glyph unicode="9" horiz-adv-x="1474" d="M44 351q19 76 77.5 114.5t145.5 38.5q59 0 108 -17t81 -47.5t49 -70.5t15.5 -88t-22.5 -99q50 -19 120 -19q109 0 184.5 91.5t128.5 287.5q-96 -45 -224 -48q-103 0 -192.5 22t-155 62t-109 97t-55 127t7.5 152q21 89 72 160.5t132 125t198.5 82t263.5 28.5 q154 0 272 -36t194 -105t114 -167.5t35.5 -224.5t-45.5 -275q-32 -114 -88 -206t-129 -157t-164.5 -108.5t-194.5 -64t-219 -20.5q-123 0 -228.5 21t-178.5 56.5t-122.5 82t-67 99t-3.5 106.5zM730 933q-64 -236 78 -236q45 0 77.5 26t55 76t43.5 134q58 239 -80 239 q-35 0 -60 -13.5t-45.5 -45t-35.5 -73t-33 -107.5z" />
<glyph unicode=":" horiz-adv-x="707" d="M73 180q0 54 26 105t78.5 86t117.5 35q52 0 96 -24.5t69 -66.5t26 -93q1 -56 -26.5 -108t-80.5 -86t-118 -34q-80 0 -133.5 54t-54.5 132zM279 833q0 27 7 54t20 52t33 47t44 38.5t55 25.5t64 9q52 0 95.5 -24t68 -65.5t25.5 -92.5q1 -56 -26.5 -108t-80.5 -86t-118 -34 q-80 0 -132.5 52.5t-54.5 131.5z" />
<glyph unicode=";" horiz-adv-x="707" d="M52 -197q0 13 18 35.5t40 43.5t41 46t20 44q0 11 -10 24.5t-24 29t-28 35t-23 50.5t-8 69q2 54 29 105t78.5 86t113.5 35q81 0 132 -57t46 -146q-3 -81 -44 -161.5t-99.5 -137.5t-123.5 -92.5t-116 -35.5q-42 0 -42 27zM279 833q0 27 7 54t20 52t33 47t44 38.5t55 25.5 t64 9q52 0 95.5 -24t68 -65.5t25.5 -92.5q1 -56 -26.5 -108t-80.5 -86t-118 -34q-80 0 -132.5 52.5t-54.5 131.5z" />
<glyph unicode="&#x3c;" horiz-adv-x="1384" d="M119 655q5 26 19 45t36 32.5t57 26.5l943 341q72 25 116 9.5t62 -50.5t9 -75q-13 -53 -47 -83t-110 -56l-636 -215l522 -203q69 -27 98 -72t14 -102q-15 -56 -64 -71.5t-131 15.5l-818 339q-43 19 -62 49.5t-8 69.5z" />
<glyph unicode="=" horiz-adv-x="1404" d="M100 421q15 59 58.5 91t108.5 32h889q66 0 93 -31.5t13 -91.5q-38 -122 -168 -122h-889q-67 0 -94.5 32t-10.5 90zM207 811q-3 23 6 52q14 59 57.5 91t108.5 32h889q66 0 93 -31.5t14 -91.5q-38 -122 -169 -122h-888q-33 0 -57 8t-37.5 23.5t-16.5 38.5z" />
<glyph unicode="&#x3e;" horiz-adv-x="1384" d="M96 307q13 53 47.5 83t109.5 56l636 215l-521 202q-70 28 -99 73t-14 102q15 56 64 71.5t131 -15.5l818 -339q28 -13 46 -30.5t24.5 -40t0.5 -48.5q-9 -39 -34.5 -62t-78.5 -42l-943 -341q-72 -25 -116 -9.5t-61.5 50.5t-9.5 75z" />
<glyph unicode="?" horiz-adv-x="1368" d="M243 1174q20 86 96.5 146.5t194 90.5t267.5 30q82 0 158.5 -12.5t139 -34.5t117.5 -52.5t94.5 -68t70.5 -80.5t45.5 -89.5t18 -95t-9.5 -97.5q-14 -59 -41 -102.5t-68 -77.5t-107.5 -60.5t-149.5 -47t-204 -41.5q-76 -13 -105 -25t-36 -33q-4 -18 15 -45q20 -23 18 -37 q-6 -20 -34 -33.5t-61 -13.5q-111 0 -171 63.5t-33 157.5q12 41 41 76t67 60.5t81.5 50t87.5 50t81.5 54t67 68t41.5 86.5q11 52 2.5 88.5t-33 60t-52 34t-55.5 10.5q-56 0 -99 -15q17 -47 21 -98t-4 -80q-11 -37 -31 -66t-48 -50t-66.5 -32t-84.5 -11q-127 0 -194 78.5 t-38 193.5zM353 155q-2 72 63 133t162 61q80 0 134 -45t54 -111q2 -76 -62.5 -137.5t-161.5 -61.5q-81 0 -135 46.5t-54 114.5z" />
<glyph unicode="@" horiz-adv-x="2137" d="M92 264.5q-26 159.5 34 365.5q49 159 154.5 286t251.5 210.5t327.5 127.5t385.5 44q138 0 258.5 -22t213.5 -62.5t165.5 -97t118.5 -127t69 -150t20 -167.5t-31 -180q-57 -182 -211 -290t-365 -108q-107 0 -198 37.5t-131 99.5q-60 -66 -144.5 -101.5t-172.5 -35.5 q-138 0 -236 70t-117 196q-17 123 29.5 234.5t140 192t232.5 127.5t300 47q292 0 413.5 -104t64.5 -283l-72 -233q-9 -29 0 -43.5t32 -14.5q59 0 129 66.5t105 178.5q43 144 12 254t-123 185t-226 113t-297 38q-135 0 -257 -23t-229 -70t-191.5 -115t-144.5 -162t-89 -208 q-32 -142 -9 -252t91 -186t173 -116t237 -40q79 0 177.5 13t115.5 13q24 0 35 -13.5t5 -34.5q-15 -55 -130.5 -102.5t-279.5 -47.5q-155 0 -289.5 56.5t-227.5 165.5t-119 268.5zM998 393q3 -10 9 -19t14 -15t18 -9t20 -3q16 0 27.5 5.5t21 18.5t16.5 35l113 364 q2 10 -0.5 17.5t-11.5 11.5t-23 4q-50 0 -95 -50t-70 -118t-36.5 -136t-2.5 -106z" />
<glyph unicode="A" horiz-adv-x="1400" d="M-80 80q6 22 27.5 38.5t50.5 30.5t59.5 31t61.5 46.5t50 68.5l357 741q55 115 118.5 184.5t154 106t214.5 36.5q249 1 359 -121q72 -79 71 -192q0 -60 -20 -131l-197 -682q-9 -30 -8.5 -53.5t7 -37t15 -26t16 -20.5t10 -21.5t-3.5 -28.5q-7 -28 -34.5 -39t-83.5 -11h-476 q-54 0 -75.5 21t-6.5 57q7 16 20.5 27.5t28 20t30 20t30.5 34.5t25 57l52 173h-312l-54 -115q-17 -35 -25 -63.5t-8.5 -47t3.5 -33.5t11.5 -23.5t14.5 -18t14 -16t8.5 -18t-1.5 -23.5q-7 -30 -32 -41t-80 -11h-299q-53 0 -77.5 23t-14.5 57zM552 611h281l106 352q9 29 9 52 q0 25 -10 41q-20 34 -71 34q-49 0 -83 -28t-68 -101z" />
<glyph unicode="B" horiz-adv-x="1526" d="M-46 78q7 16 20.5 27.5t28.5 20t30.5 20.5t30.5 35t24 56l245 865q10 33 8 59t-11 39t-18 28t-13.5 26.5t2.5 34.5q7 26 35 37t83 11h719q81 0 151 -15t122 -42t91.5 -64.5t58.5 -83.5t23 -99q1 -10 0 -19q0 -44 -14 -91q-31 -108 -117.5 -169t-217.5 -88 q123 -34 177 -127q32 -54 31 -124q0 -50 -16 -108q-29 -105 -96.5 -172t-181 -101t-278.5 -34h-835q-54 0 -75.5 21t-6.5 57zM576 180h102q88 0 140 43t84 156q12 46 13 81t-7.5 56.5t-26.5 35.5t-40 19t-50 5h-100zM747 781h88q84 0 133 40.5t80 147.5q13 47 13 82 q0 105 -117 105h-91z" />
<glyph unicode="C" horiz-adv-x="1388" d="M108 442q-5 39 -5 82q0 119 41 265q38 126 98 225.5t127 162.5t146.5 104.5t154.5 58t153 16.5q116 0 203 -33.5t162 -98.5l55 42q55 43 91.5 59t82.5 16q64 1 94 -35q17 -20 17 -50q0 -21 -9 -46l-112 -313q-19 -55 -43.5 -76.5t-74.5 -21.5q-52 0 -85.5 37t-75.5 127 q-47 95 -77.5 125t-89.5 30q-82 0 -158.5 -101t-138.5 -305q-38 -125 -48 -220q-4 -38 -3 -69q0 -49 9 -83q16 -56 49 -84t82 -28q48 0 91 13.5t74 35t58.5 47.5t49.5 52t42 47.5t41.5 34.5t42.5 13q36 0 76 -36t38 -71q1 -19 -16 -53t-48.5 -76t-82.5 -85.5t-111 -79.5 t-141.5 -59t-167.5 -23q-154 0 -279.5 51.5t-208.5 152t-103 250.5z" />
<glyph unicode="D" horiz-adv-x="1549" d="M-46 80q7 17 20.5 28.5t28.5 20t30.5 20t30.5 34.5t24 56l245 863q10 33 8 59t-11 39t-18 28t-13.5 26.5t2.5 34.5q7 26 35 37t83 11h542q381 1 523 -181q84 -108 84 -273q0 -114 -40 -255q-40 -139 -94 -240.5t-130 -177.5t-180 -122q-104 -45 -236 -67 q-127 -21 -291 -21h-15l-546 2q-53 0 -75 21.5t-7 56.5zM580 180h48q55 0 95.5 12t80.5 43t73.5 86.5t67 141.5t68.5 209q27 100 41 177q12 67 12 116v13q-2 52 -13.5 88t-36.5 55.5t-53.5 27t-67.5 7.5h-44z" />
<glyph unicode="E" horiz-adv-x="1346" d="M-46 78q7 16 20.5 27.5t28.5 20t30.5 20.5t30.5 35t24 56l247 865q6 21 7.5 39.5t-1.5 30.5t-8 23.5t-11.5 19t-11.5 16.5t-9 16.5t-4 18.5t4 23q8 26 36 37t82 11h891q92 -1 132 -47q25 -29 26 -72q0 -26 -9 -56l-52 -187q-7 -28 -17 -46.5t-25 -29.5t-33 -15.5 t-43 -4.5q-50 0 -77 20.5t-40 69.5l-32 115q-5 18 -10 28.5t-14 18t-21.5 10.5t-33.5 3h-210l-100 -357h88q15 0 38 20l69 60q30 27 52 38.5t54 11.5q42 0 66 -26q16 -18 16 -42q0 -11 -4 -24l-82 -279q-13 -45 -41.5 -65.5t-62.5 -20.5q-58 0 -85 57l-34 71q-13 30 -44 30 h-78l-119 -425h176q39 0 67.5 15t63.5 53l120 132q33 34 61.5 49.5t71.5 15.5q52 0 82 -30q19 -19 19 -50q0 -18 -6 -39l-59 -203q-23 -75 -64 -105.5t-122 -30.5h-958q-54 0 -75.5 21t-6.5 57z" />
<glyph unicode="F" horiz-adv-x="1266" d="M-48 73q4 17 16.5 29.5t28.5 22t32.5 21.5t32 35t24.5 56l247 865q6 21 7.5 39.5t-1.5 30.5t-8 23.5t-11.5 19t-11.5 16.5t-9 16.5t-4 18.5t4 23q9 26 36.5 37t81.5 11h891q92 -1 132 -47q25 -29 26 -72q0 -26 -9 -56l-52 -187q-14 -53 -46.5 -74.5t-84.5 -21.5 q-33 0 -57 8.5t-41 28.5t-25 53l-33 115q-4 15 -7.5 22.5t-11 15t-19.5 10t-32 2.5h-201l-112 -397h37q28 0 49 8t46 30l62 52q34 30 61 43t58 13q46 0 72 -33q16 -20 16 -50q0 -18 -6 -40l-88 -304q-30 -98 -109 -98q-34 0 -57.5 16t-42.5 49l-36 69q-15 28 -26.5 36 t-35.5 8h-59l-84 -299q-9 -35 -2 -55.5t23 -38t32.5 -29t26.5 -28t4 -36.5q-7 -27 -37.5 -38.5t-86.5 -11.5h-504q-53 0 -78 19t-18 54z" />
<glyph unicode="G" horiz-adv-x="1519" d="M116 435q-3 30 -3 61q0 123 42 274q25 87 59.5 161t74.5 130t85.5 101.5t95 77.5t99.5 55t102.5 36t100 19t95.5 6q206 0 370 -148l60 58q51 43 87 59t83 16q64 0 97 -35q20 -23 20 -56q0 -19 -6 -40l-73 -253q-19 -64 -46.5 -90t-73.5 -26q-47 0 -85 24t-86 87 q-42 56 -76 88.5t-69 48.5t-75 16q-34 0 -66 -11.5t-66 -39.5t-65 -72.5t-61.5 -113.5t-55.5 -158q-39 -137 -39 -232q0 -10 1 -20q4 -101 44.5 -152t112.5 -51q65 0 99 29.5t56 104.5l13 51q9 30 10 49.5t-6 31t-15.5 17t-26.5 12.5l-70 26q-21 9 -33.5 24.5t-13.5 31.5 t2 32q8 26 29.5 38t65.5 12l606 -2q42 0 57.5 -17t5.5 -49q-7 -30 -25 -48t-54 -36l-52 -30q-21 -11 -30 -22t-14 -28l-106 -371q-20 -65 -45.5 -88t-61.5 -23h-85q-48 0 -79 20t-51 78l-19 59q-145 -169 -362 -169q-125 0 -228 51t-170 150.5t-80 245.5z" />
<glyph unicode="H" horiz-adv-x="1673" d="M-46 78q6 12 15 21.5t18.5 15.5t21 12.5t23 15.5t22 20.5t20 30.5t16.5 43l247 865q10 33 8 58.5t-11.5 39t-18.5 28.5t-14 26.5t2 34.5q8 26 36.5 37t83.5 11h472q52 0 74.5 -21t7.5 -56q-7 -16 -20.5 -28t-29 -20.5t-31.5 -20t-31 -34t-24 -55.5l-94 -330h355l95 330 q9 33 7 58.5t-11 39t-18.5 28.5t-14 26.5t1.5 34.5q9 26 37 37t84 11h471q53 0 75 -21t8 -56q-8 -16 -21.5 -28t-28.5 -20.5t-31 -20t-31 -34t-25 -55.5l-247 -865q-8 -29 -7.5 -52t7 -36t14.5 -26t15.5 -22t10 -22.5t-2.5 -28.5q-10 -28 -38.5 -39t-84.5 -11h-472 q-53 0 -74.5 21t-8.5 57q8 16 22 27.5t29.5 20t31 20.5t30.5 35t25 56l96 335h-355l-97 -335q-8 -29 -7.5 -52t6.5 -36t14.5 -26t16 -22t9.5 -22.5t-3 -28.5q-10 -28 -38 -39t-84 -11h-472q-53 0 -74.5 21t-7.5 57z" />
<glyph unicode="I" horiz-adv-x="810" d="M-46 78q7 16 20.5 27.5t28.5 20t30.5 20.5t30.5 35t24 56l245 865q10 33 8 59t-11 39t-18 28t-13.5 26.5t2.5 34.5q7 26 35 37t83 11h472q54 0 75.5 -21t6.5 -56q-7 -16 -20.5 -28t-29 -20.5t-31.5 -20t-31 -34t-24 -55.5l-243 -865q-10 -34 -8 -60t11.5 -39.5t18.5 -28 t14 -26t-2 -33.5q-8 -28 -36 -39t-84 -11h-472q-54 0 -75.5 21t-6.5 57z" />
<glyph unicode="J" horiz-adv-x="1183" d="M-45 320q2 43 13 88q17 61 54.5 103.5t82 60.5t94.5 18q57 0 99 -23.5t62 -62.5t25 -89q1 -11 1 -23q0 -39 -13 -79q-23 -82 -90 -124q34 -20 75 -20t73.5 42t54.5 118l219 755q6 22 4 40.5t-10 32t-20.5 25.5t-26 21t-26.5 19t-23 19t-14 21.5t-1 26.5q6 27 30.5 37.5 t76.5 10.5h569q53 0 75 -21t8 -56q-7 -14 -17.5 -25t-22.5 -17t-26 -15.5t-26 -20.5t-24.5 -32t-20.5 -48l-197 -694q-60 -213 -204 -316.5t-376 -103.5q-78 0 -146.5 12.5t-119.5 35t-92.5 53.5t-66 67.5t-40.5 77.5q-13 37 -13 76v10z" />
<glyph unicode="K" horiz-adv-x="1578" d="M-46 78q7 16 20.5 27.5t28.5 20t30.5 20.5t30.5 35t24 56l245 865q10 33 8 59t-11 39t-18 28t-13.5 26.5t2.5 34.5q7 26 35 37t83 11h472q54 0 75.5 -21t6.5 -56q-7 -16 -20.5 -28t-29 -20.5t-31.5 -20t-31 -34t-24 -55.5l-84 -299l532 459q26 22 48.5 37.5t45 25.5 t44.5 15t46 5q85 0 141 -54.5t56 -146.5q0 -69 -29.5 -123t-77.5 -82t-104 -28t-96 20t-76 65l-173 -145l194 -576q14 -41 34.5 -73.5t38.5 -50t33.5 -33t21.5 -31.5t1 -37q-13 -50 -129 -50h-262q-41 0 -72.5 7.5t-54.5 21.5t-41 37.5t-30.5 51.5t-24.5 68l-101 338 l-57 -49l-67 -238q-10 -34 -8 -60t11.5 -39.5t18.5 -28t14 -26t-2 -33.5q-8 -28 -36 -39t-84 -11h-472q-54 0 -75.5 21t-6.5 57z" />
<glyph unicode="L" horiz-adv-x="1306" d="M-46 78q7 16 20.5 27.5t29 20t31.5 20.5t31 35t24 56l245 865q10 33 8 59t-11.5 39t-18 28t-13 26.5t2.5 34.5q7 26 35 37t83 11h472q54 0 75.5 -21t6.5 -56q-7 -16 -20.5 -28t-29 -20.5t-31.5 -20t-31 -34t-24 -55.5l-259 -909h125q46 0 78.5 16t69.5 60l139 164 q37 45 73 64.5t86 19.5q67 0 95 -34q18 -21 18 -53q0 -19 -6 -41l-65 -234q-26 -86 -74 -120.5t-140 -34.5h-943q-53 0 -74.5 21t-7.5 57z" />
<glyph unicode="M" horiz-adv-x="2076" d="M-2 78q7 16 20.5 27.5t28.5 20t30.5 20.5t30.5 35t24 56l245 866l-32 107q-11 35 -11 60q0 24 10 38q20 30 85 29h312q61 0 89 -26t47 -91l201 -666l544 676q52 64 102.5 85.5t131.5 21.5h300q54 0 76.5 -21t5.5 -56q-5 -14 -15.5 -25t-22.5 -17t-26 -15.5t-26.5 -20.5 t-24.5 -32t-20 -48l-245 -863q-9 -33 -7 -59t11 -39.5t18 -28.5t14 -26.5t-2 -33.5q-8 -27 -36.5 -38.5t-83.5 -11.5h-472q-53 0 -74 21.5t-8 56.5q7 17 21 29t29 20.5t31 20t31 34t24 55.5l153 542l-519 -645q-64 -78 -103.5 -107t-89.5 -29q-48 0 -75 31.5t-50 104.5 l-188 621l-149 -520q-9 -34 -7 -60t11 -39.5t18 -28t14 -26t-1 -33.5q-9 -28 -37 -39t-84 -11h-167q-54 0 -75.5 21t-6.5 57z" />
<glyph unicode="N" horiz-adv-x="1458" d="M-44 73q5 18 18 31t28.5 22t32 20.5t32.5 34.5t25 56l255 901l-31 66q-20 42 -20 69v7q3 30 23.5 43.5t55.5 13.5h297q44 0 74 -15t50 -41t45 -77l293 -588l138 484q7 24 7 45t-5.5 34t-13 25t-16 20t-14.5 18t-8.5 19.5t2.5 25.5q9 28 37 39t84 11h218q50 0 70 -20 t10 -53q-5 -18 -18 -31t-28.5 -22t-32 -20.5t-32 -34.5t-25.5 -56l-249 -891q-34 -121 -84.5 -169t-141.5 -48q-82 0 -134.5 47t-98.5 145l-303 639l-169 -586q-8 -29 -6.5 -52t9 -36t17.5 -26t18.5 -22t11.5 -22.5t-2 -28.5q-8 -28 -36 -39t-84 -11h-219q-49 0 -69 20 t-11 53z" />
<glyph unicode="O" d="M100 290q-20 67 -20 147q0 107 35 237q43 168 126.5 300t196 218t249 130.5t290.5 44.5q205 0 338 -78.5t179 -232.5q21 -69 22 -152q0 -104 -33 -230q-45 -169 -130 -302t-197.5 -219.5t-249.5 -131.5t-290 -45q-205 0 -337.5 79t-178.5 235zM556 268q2 -61 24.5 -87 t68.5 -26q88 0 154.5 111.5t150.5 394.5q40 145 60 241q18 89 19 147q-1 5 -1 9q-2 61 -23.5 86.5t-66.5 25.5q-61 0 -109.5 -48.5t-95 -158t-101.5 -302.5q-42 -143 -62 -237q-18 -88 -18 -147v-9z" />
<glyph unicode="P" horiz-adv-x="1370" d="M-48 73q4 17 16.5 29.5t28.5 22t32.5 21.5t32 35t24.5 56l245 865q10 33 8 59t-11 39t-18 28t-13.5 26.5t2.5 34.5q7 26 35 37t83 11h665q87 0 159 -16.5t124.5 -46.5t89 -72t54 -93.5t17.5 -111t-19 -124.5q-38 -135 -128.5 -224t-218 -129.5t-293.5 -40.5h-206 l-69 -242q-9 -35 -2 -56.5t22.5 -39.5t32 -30t26.5 -27.5t5 -33.5q-7 -27 -37.5 -38.5t-86.5 -11.5h-504q-53 0 -78 19t-18 54zM710 661h89q56 0 95.5 20.5t74 76t61.5 151.5q16 57 20 101q2 17 2 33q0 23 -4 39q-6 28 -21.5 44.5t-35.5 23t-47 6.5h-91z" />
<glyph unicode="Q" d="M96 309q-15 60 -15 130q0 106 34 235q43 168 126.5 300t196 218t249 130.5t290.5 44.5q205 0 338 -78.5t179 -232.5q21 -69 21 -152q0 -103 -32 -230q-75 -281 -252.5 -454.5t-422.5 -223.5q78 -61 176 -61q42 0 80 15.5t60.5 34t44.5 34t35 15.5q17 0 31.5 -35.5 t17.5 -92.5v-16q0 -52 -16 -112q-31 -105 -109 -163.5t-193 -58.5q-247 0 -349 304l-40 117q-182 15 -297 98.5t-153 233.5zM556 268q2 -61 24.5 -87t68.5 -26q88 0 154.5 111.5t150.5 394.5q41 145 60 241q19 88 19 147q0 5 -1 9q-1 61 -23 86.5t-67 25.5 q-61 0 -109.5 -48.5t-95 -158t-101.5 -302.5q-42 -143 -62 -237q-18 -88 -18 -147v-9z" />
<glyph unicode="R" horiz-adv-x="1522" d="M-48 73q4 17 16.5 29.5t28.5 22t32.5 21.5t32 35t24.5 56l245 865q10 33 8 59t-11 39t-18 28t-13.5 26.5t2.5 34.5q7 26 35 37t83 11h673q81 0 151.5 -15t123 -42t93 -64.5t60.5 -83.5q20 -44 26 -96q1 -13 2 -27q0 -39 -12 -80q-33 -116 -121.5 -182t-222.5 -81 q116 -8 162 -78q30 -45 30 -105q0 -34 -9 -73l-23 -99q-5 -25 -2 -43t14.5 -27.5t30.5 -9.5q41 0 60.5 -12.5t13.5 -44.5q-5 -33 -28 -65.5t-63 -61.5t-104.5 -47t-143.5 -18q-77 0 -137 20.5t-98.5 60.5t-50.5 100q-4 22 -4 46q0 42 13 92l32 128q8 31 8 55q0 35 -17 54 q-29 32 -114 32h-76l-92 -333q-8 -34 -1 -55t22.5 -39t32 -30.5t26 -28.5t4.5 -34q-7 -27 -37.5 -38.5t-86.5 -11.5h-504q-53 0 -78 19t-18 54zM741 770h84q78 0 123 39t71 141q10 39 10 70q0 106 -116 106h-84z" />
<glyph unicode="S" horiz-adv-x="1382" d="M-4 124l98 299q17 52 45 74t72 22q46 0 82.5 -31.5t97.5 -116.5q44 -62 81.5 -97t77.5 -51t92 -16q28 0 48.5 4.5t35.5 13.5t24.5 22.5t15.5 31.5q5 16 5 30q-1 21 -9 39q-14 32 -47.5 58t-79 55.5t-96 58t-99 66t-89 80t-66 98.5t-28.5 124v14q0 62 22 140 q42 137 173 221.5t299 84.5q75 0 141.5 -11.5t130.5 -36t129 -63.5l47 37q47 38 78.5 52.5t70.5 14.5q58 1 87 -31q18 -20 18 -49q0 -17 -6 -37l-84 -276q-9 -33 -21 -52t-31 -28t-47 -9q-19 0 -36 6t-30 13t-34 29t-34.5 37t-45.5 54q-69 80 -126.5 113t-118.5 33 q-36 0 -63.5 -20t-36.5 -52q-5 -14 -4 -28q1 -20 9 -38q16 -32 50 -59.5t80.5 -57.5t98.5 -59.5t102.5 -67t92.5 -79.5t70 -97q28 -56 32 -120q1 -10 0 -20q0 -57 -20 -127q-32 -107 -109 -182.5t-178.5 -110t-221.5 -34.5q-138 0 -233 32.5t-192 107.5l-73 -59 q-52 -42 -83.5 -57.5t-71.5 -15.5q-57 0 -84 34q-16 20 -16 47q0 19 8 43z" />
<glyph unicode="T" horiz-adv-x="1522" d="M186 1013l53 184q16 57 35.5 84.5t57 41.5t105.5 14h1170q73 0 98 -39q13 -20 13 -51q0 -30 -12 -71l-48 -163q-22 -73 -54 -103.5t-93 -30.5q-51 0 -78 26t-50 83l-35 82q-10 26 -20.5 39.5t-26.5 20t-43 6.5h-46l-255 -897q-8 -33 -6 -58.5t11.5 -39t19 -29t14 -27 t-1.5 -33.5q-10 -27 -39 -38.5t-84 -11.5h-471q-52 0 -74 21.5t-8 56.5q9 20 28 35t37.5 24t38.5 34.5t32 65.5l253 897h-46q-44 0 -72.5 -14t-60.5 -52l-66 -82q-31 -36 -58 -59t-58.5 -36.5t-66.5 -13.5q-59 1 -85 37q-15 22 -15 52q0 21 7 45z" />
<glyph unicode="U" horiz-adv-x="1580" d="M173 344q-1 11 -1 23q0 86 33 195l153 540q9 33 7 59.5t-10.5 40.5t-17.5 29t-13.5 26t1.5 32q9 26 36 37t83 11h471q53 0 73.5 -19t11.5 -54q-6 -18 -18.5 -30.5t-28.5 -21.5t-32.5 -20.5t-32 -34.5t-25.5 -55l-175 -614q-19 -74 -19 -123q0 -45 18 -73q19 -30 50 -42.5 t77 -12.5q89 0 148.5 57.5t98.5 195.5l165 575q19 67 43 116t59 87t84.5 57.5t112.5 19.5q76 0 130 -40.5t73 -105.5q10 -32 10 -66.5t-10 -71.5q-12 -45 -34 -78.5t-49.5 -52t-56.5 -27t-60 -8.5q-48 0 -113 18l-118 -436q-32 -117 -82.5 -205t-125.5 -153t-179.5 -98 t-237.5 -33q-113 0 -201.5 20.5t-156 63.5t-102 110.5t-39.5 161.5z" />
<glyph unicode="V" d="M239 1262q-3 24 4.5 40t28.5 25.5t55 9.5h502q46 0 70 -19.5t22 -51.5q0 -15 -8 -29.5t-19 -27t-21.5 -26t-16 -34t-1.5 -46.5l76 -467l268 474q70 129 137.5 182t168.5 53q90 0 145 -52.5t58 -144.5v-6q0 -53 -18 -96q-19 -46 -50 -74t-67 -43.5t-72 -15.5 q-95 0 -153 75l-483 -816q-55 -92 -100.5 -132t-103.5 -40q-62 0 -99.5 40.5t-53.5 131.5l-169 928q-6 32 -23 58.5t-33.5 40t-30 30t-13.5 33.5z" />
<glyph unicode="W" horiz-adv-x="2295" d="M255 1262q-3 24 4.5 40t28.5 25.5t55 9.5h500q45 0 68 -19t22 -52q0 -19 -11.5 -36.5t-25 -31t-23 -38.5t-6.5 -57l52 -483l301 432l-6 48q-3 23 -11.5 43t-19.5 32.5t-23 24t-22.5 20t-17 19.5t-6.5 23q-4 36 16.5 55.5t71.5 19.5h502q46 0 70 -19.5t22 -51.5 q0 -19 -11 -36.5t-24 -31t-23 -38.5t-8 -57l24 -437l271 474q44 78 84 121t89 63.5t118 20.5q90 0 145 -52.5t58 -144.5q0 -45 -13.5 -84t-36.5 -66.5t-52 -47.5t-59 -29.5t-58 -9.5q-47 0 -87 24t-53 53l-488 -816q-56 -94 -101 -133t-104 -39q-134 0 -153 172l-64 590 l-405 -590q-71 -102 -114 -137t-99 -35q-122 0 -148 193l-129 907q-4 25 -13 45t-20 32.5t-23 24t-22 19.5t-16 18.5t-6 22.5z" />
<glyph unicode="X" horiz-adv-x="1622" d="M-90 80q6 22 21 35.5t39.5 24t54 22t74.5 39t90 66.5l437 375l-180 438q-16 39 -40 68t-44.5 43t-38.5 26.5t-25.5 28t-2.5 39.5q6 26 30 39t73 14h539q60 0 85 -24t16 -58q-5 -17 -18.5 -30t-24.5 -22.5t-19 -24t-4.5 -43.5t22.5 -73l56 -134l145 134q39 37 51 65.5 t1.5 48t-26.5 35t-28 34.5t-7 39q7 29 32 40.5t80 12.5h420q53 0 77 -23.5t15 -58.5q-8 -26 -30.5 -42.5t-52.5 -26t-85 -40t-110 -77.5l-400 -340l195 -473q14 -34 33 -59.5t36.5 -39t35 -26.5t29 -22t16.5 -23.5t0 -34.5q-4 -18 -15 -29t-32.5 -17t-54.5 -6h-540 q-60 0 -85 23t-15 57q5 17 18 30t24.5 22.5t19.5 24t4 43.5t-22 73l-70 171l-183 -171q-39 -36 -50.5 -65t-1.5 -48t25.5 -35t27.5 -34.5t7 -38.5q-7 -30 -32 -41t-81 -11h-419q-53 0 -77 23t-15 57z" />
<glyph unicode="Y" horiz-adv-x="1582" d="M259 1295q9 42 80 42h536q70 0 96.5 -12t28.5 -42q0 -20 -13.5 -39.5t-28 -33.5t-23 -38.5t-0.5 -53.5l93 -354l255 364q82 117 155 167t163 50q99 0 157 -71q44 -55 44 -129q0 -22 -4 -47q-17 -97 -75.5 -143t-136.5 -46q-52 0 -89 16.5t-68 53.5l-331 -431l-93 -311 q-8 -34 -1 -55.5t23 -39.5t32.5 -30t27 -28t5.5 -34q-9 -28 -39 -39t-86 -11h-505q-52 0 -77 19t-17 54q4 17 16 30t28 22.5t32 21.5t32 35t26 55l92 313l-184 526q-16 45 -39 78t-43.5 49t-38 29.5t-26 28t-4.5 34.5z" />
<glyph unicode="Z" horiz-adv-x="1472" d="M18 124v7q0 35 18 69q20 37 62 81l817 863h-187q-38 0 -66.5 -15t-63.5 -53l-121 -132q-32 -35 -61 -50t-71 -15q-51 -1 -81 29q-19 19 -19 50q0 18 6 40l58 202q23 76 64.5 106.5t122.5 30.5h923q55 0 93 -25t50 -63q5 -16 5 -34q-1 -25 -11 -55q-18 -51 -64 -99 l-872 -868h237q37 0 66.5 15t64.5 53l119 132q22 23 40 36t41.5 21t52.5 8q51 0 81 -30q19 -19 19 -49q0 -18 -6 -40l-58 -203q-23 -75 -64.5 -105.5t-122.5 -30.5h-899q-85 0 -128.5 33.5t-44.5 90.5z" />
<glyph unicode="[" horiz-adv-x="1047" d="M71 -180l469 1666q33 117 159 117h494q42 0 60.5 -24t6.5 -66l-8 -30q-16 -68 -88 -68h-70q-73 0 -90 -68l-398 -1407q-6 -20 -4 -37t11 -29t25 -18.5t36 -6.5h23q42 0 60.5 -24t6.5 -66l-7 -29q-7 -25 -19 -40.5t-29 -22t-41 -6.5h-477q-75 0 -108.5 43t-11.5 116z" />
<glyph unicode="\" horiz-adv-x="1107" d="M270 1358q-16 51 12.5 88t83.5 37q38 0 61 -17.5t35 -54.5l457 -1434q10 -35 3 -62.5t-32 -44.5t-61 -17q-79 0 -105 82z" />
<glyph unicode="]" horiz-adv-x="1049" d="M-147 -249l9 30q16 68 88 68h70q73 0 91 69l397 1407q11 40 -7.5 65t-60.5 25h-23q-42 0 -61 24.5t-7 65.5l9 31q10 36 31 51.5t57 15.5h477q76 0 109 -42.5t12 -114.5l-470 -1666q-33 -119 -158 -119h-494q-43 0 -62 24.5t-7 65.5z" />
<glyph unicode="^" horiz-adv-x="1233" d="M163 672q8 40 50 94l497 663q24 30 44 49t41 28t44 9q46 0 78 -34.5t54 -119.5l169 -651q14 -51 2 -98q-11 -41 -40.5 -66t-71.5 -25q-47 0 -77 36t-51 117l-125 486l-375 -542q-61 -86 -132 -86q-53 0 -86.5 42t-20.5 98z" />
<glyph unicode="_" horiz-adv-x="1743" d="M-26 -165q14 59 57.5 91t108.5 32h1191q65 0 92 -31.5t14 -91.5q-39 -122 -169 -122h-1190q-66 0 -93.5 32t-10.5 90z" />
<glyph unicode="`" horiz-adv-x="517" d="M270 1415q4 50 39 81.5t95 31.5q64 0 107 -38t71 -123l50 -159q13 -34 6 -62q-3 -11 -10 -19.5t-17 -12.5t-21 -4q-46 0 -96 41l-117 90q-59 46 -84 84t-23 90z" />
<glyph unicode="a" horiz-adv-x="1312" d="M-6 263q-1 12 -2 23q0 28 8 55q21 94 80.5 158.5t139 92.5t175.5 28q170 0 327 -52l50 133q27 87 27 130q-2 49 -32 72.5t-93 23.5q9 -24 11 -49t-2.5 -49.5t-15 -47t-29 -41t-42.5 -32.5t-56.5 -22t-70.5 -8q-97 0 -152 42q-56 43 -56 111q1 35 15 67q16 34 50.5 64 t86.5 52t129.5 34.5t173.5 12.5q106 0 192.5 -17.5t156 -55t108.5 -95.5q39 -57 49 -139q2 -19 2 -41q0 -67 -24 -147l-82 -277q-6 -24 0.5 -38t23.5 -14q16 0 29.5 10.5t21.5 21t13 10.5q10 0 17 -14t7 -35q0 -39 -24 -80q-24 -43 -65.5 -77.5t-101 -56.5t-124.5 -22 q-104 0 -178.5 38.5t-102.5 111.5q-61 -72 -143 -111t-175 -39q-63 0 -115.5 15.5t-88.5 41t-63.5 60t-39 73.5t-15.5 79zM480 297.5q3 -22.5 18 -37.5t38 -15q26 0 56.5 21t45.5 63l42 119q-34 6 -76 6q-47 0 -78.5 -31t-43.5 -76q-5 -27 -2 -49.5z" />
<glyph unicode="b" horiz-adv-x="1358" d="M-14 124l335 1090q9 30 3.5 46.5t-18 30t-26 22.5t-21.5 23t-4 31q13 47 126.5 81.5t238.5 34.5q61 0 106.5 -13.5t71.5 -36.5t38 -55q11 -29 12 -61v-7q-2 -36 -15 -78l-84 -273q116 111 274 111q91 0 162.5 -42.5t112.5 -117.5q42 -74 52 -178q3 -26 2 -54 q0 -81 -23 -172q-33 -132 -92 -233.5t-135 -164t-164.5 -94.5t-186.5 -32q-228 0 -332 150l-72 -61q-42 -36 -82 -53.5t-93 -17.5h-88q-62 0 -89 33q-16 20 -16 49q0 19 7 42zM540 240q6 -30 22.5 -43t43.5 -13q23 0 43.5 14t44 49t49.5 102.5t54 167.5q21 74 31 130 t10 90.5t-8 56t-19.5 29.5t-27.5 8q-15 0 -31.5 -5.5t-32 -17t-26.5 -27.5l-131 -426q-7 -23 -14 -37h2q-12 -36 -12 -61q1 -9 2 -17z" />
<glyph unicode="c" horiz-adv-x="1087" d="M42 332q-10 47 -11 99q0 66 17 139q22 102 69 185t111 141.5t144 98t169 58.5t187 19q182 0 295 -75q115 -76 115 -192q0 -80 -54 -132q-55 -53 -151 -53q-121 0 -173 74q-32 45 -32 107q0 39 13 86q-41 -11 -77 -31.5t-68 -51.5t-56.5 -76t-35.5 -100q-14 -61 -14 -111 q0 -82 37 -134q59 -84 197 -84q50 0 97 10.5t74.5 23.5t53.5 24t39 11q8 0 12 -3t5.5 -8.5t1.5 -18.5q-1 -54 -35 -112q-36 -60 -97 -112t-155 -86t-199 -34q-125 0 -226.5 41t-165 116t-87.5 181z" />
<glyph unicode="d" horiz-adv-x="1314" d="M24 351v9q0 105 23 206q24 106 72 196.5t114 159.5t153.5 108.5t183.5 39.5q160 0 259 -80l68 224q8 30 3 46.5t-17.5 30.5t-26 22.5t-21.5 23t-4 32.5q11 45 126 79.5t240 34.5q61 0 106 -13t71 -35.5t38 -54.5q11 -29 12 -61v-8q-2 -37 -15 -79l-287 -943 q-7 -24 -0.5 -38t24.5 -14q16 0 29 10.5t21 21t14 10.5q5 0 9.5 -4t6.5 -11q2 -6 4 -14t2 -20q0 -39 -24 -80q-24 -43 -65 -77.5t-100.5 -56.5t-123.5 -22q-100 0 -175 38t-102 100q-109 -138 -273 -138q-89 0 -166.5 43.5t-127 126t-51.5 187.5zM479 366q0 -111 73 -111 q27 0 45 21t33 69l157 508q-32 28 -71 28q-59 0 -116 -88.5t-90 -208.5q-31 -113 -31 -207v-11z" />
<glyph unicode="e" horiz-adv-x="1123" d="M45 319q-12 51 -12 111q0 67 15 144q25 125 83.5 221t142 156t186 90.5t220.5 30.5q78 0 144 -8.5t115.5 -24t88.5 -36.5t64.5 -47t41.5 -54q17 -30 24 -62q7 -30 7 -59q0 -34 -9 -69q-16 -70 -68.5 -121.5t-122 -78t-155.5 -38.5q-77 -10 -148 -10h-18q-80 2 -156 13v-6 q0 -50 15 -86q16 -38 47 -58t69 -29t88 -9q51 0 112 16t107 32t62 16q21 0 21 -30q-1 -37 -17 -79q-18 -44 -55.5 -89t-91 -80.5t-133.5 -58t-172 -22.5q-124 0 -225.5 35.5t-173 108t-96.5 181.5zM502 598q11 -1 21 -2q27 0 51 10q33 13 55 38t37.5 59.5t22 71t6.5 74.5 q-3 57 -33 57q-34 0 -82.5 -83t-77.5 -225z" />
<glyph unicode="f" horiz-adv-x="833" d="M-90 62q5 15 16 25t25 17.5t29 18.5t30.5 33.5t25.5 56.5l157 513q10 37 10 63q0 11 -1 19q-6 30 -24 53.5t-37.5 36.5t-35 30.5t-15.5 39.5q0 36 28 52t110 16h51q-13 53 -13 101q0 55 17 104q14 37 37 69t65.5 65t99.5 56t143 37.5t191 14.5q97 0 174.5 -15t127 -40 t80.5 -58t41 -70q6 -21 6 -43q0 -15 -3 -31q-12 -61 -73.5 -93.5t-152.5 -32.5q-44 0 -80 11t-59.5 29.5t-38.5 43.5t-18.5 52.5t2.5 56.5t22 55q-61 0 -101 -28.5t-62 -99.5q-13 -45 -13 -81q0 -27 7 -50q17 -53 61 -53h118q60 0 85 -23q18 -16 18 -41q0 -11 -3 -24 q-8 -30 -25 -48.5t-51 -29.5t-84 -11h-60l-199 -650q-10 -36 -6.5 -56t14.5 -34.5t23 -23t19.5 -20t3.5 -25.5q-9 -26 -39 -38t-93 -12h-458q-53 0 -76.5 17t-15.5 45z" />
<glyph unicode="g" horiz-adv-x="1274" d="M-190 -188q-7 22 -7 45q0 24 8 49q8 28 24.5 49.5t48 42t86 33.5t130.5 19q-49 47 -49 109q0 23 7 48q31 104 189 155q-150 81 -150 239q0 44 12 94q18 77 69.5 145.5t128 119.5t180.5 80.5t220 29.5q237 0 375 -63q-30 47 -47.5 98.5t-17.5 94.5v6q0 33 10 62 q11 32 33.5 60t62.5 44.5t93 16.5q48 0 95.5 -16t84.5 -43t60.5 -65t24.5 -79q0 -118 -160 -118q-25 0 -44 2t-35.5 7.5t-25.5 9t-26 11.5q-6 -18 -6 -42q0 -21 4 -48q10 -56 34 -111q42 -62 42 -148q0 -42 -10 -90q-18 -79 -69 -147.5t-127 -119t-179 -80t-218 -29.5 q-116 0 -219 16q-22 -20 -28 -50q-5 -13 -1 -26t13.5 -24t32.5 -18t56 -7h302q183 0 268 -74q59 -50 59 -129q0 -35 -12 -75q-11 -38 -37 -73.5t-67 -69t-101 -61.5t-135 -49t-173.5 -33t-210.5 -12q-132 0 -240 16.5t-180 45.5t-117.5 68t-60.5 84zM255 -102q1 -33 19 -54 t53.5 -31t89.5 -10q87 0 147 23.5t74 66.5q7 23 3.5 40.5t-21.5 28t-46 10.5h-193q-53 0 -102 5q-24 -31 -24 -79zM562 500q7 -48 54 -48q51 0 89 50t76 174q31 108 31 159q0 11 -2 19q-7 48 -55 48q-51 0 -88 -49.5t-75 -176.5q-30 -109 -30 -160v-16z" />
<glyph unicode="h" horiz-adv-x="1424" d="M-90 62q5 15 16.5 25t25.5 17.5t29 18.5t30 33.5t25 56.5l305 1001q9 31 3.5 47.5t-18 30t-26 22.5t-21.5 23t-4 32q12 45 126.5 79.5t238.5 34.5q61 0 106 -13t71.5 -35.5t38.5 -54.5q11 -30 11 -63v-6q-1 -37 -14 -79l-108 -353q79 103 165.5 142.5t189.5 39.5 q75 0 135 -29.5t93.5 -82t41.5 -123.5q2 -17 3 -35q0 -56 -21 -119l-122 -395q-8 -24 -1.5 -39.5t23.5 -15.5t30 11t21 21.5t13 10.5t9.5 -4t7 -10t4.5 -14t2 -17q0 -42 -21.5 -83.5t-63 -76.5t-108.5 -56.5t-148 -21.5q-132 0 -211 61t-80 164q0 75 36 166l110 289 q13 34 8 55.5t-20 32t-36 10.5q-38 0 -77 -34.5t-64 -113.5v4l-126 -407q-10 -35 -6.5 -55t14.5 -35t23 -23.5t19.5 -20t3.5 -25.5q-9 -26 -39 -38t-93 -12h-458q-53 0 -76.5 17t-15.5 45z" />
<glyph unicode="i" horiz-adv-x="734" d="M-80 62q4 15 15.5 25t25.5 17.5t29 18.5t30 33.5t26 56.5l174 580q9 30 4 46.5t-17.5 29.5t-26 21.5t-21 23t-2.5 32.5q7 31 64.5 58t138.5 42t161 15q61 0 106 -13t71 -36t38 -55q11 -29 12 -61v-8q-2 -37 -15 -80l-185 -599q-10 -35 -6.5 -55t14.5 -35t23 -23.5t19 -20 t4 -25.5q-9 -26 -39 -38t-94 -12h-457q-53 0 -76.5 17t-15.5 45zM446 1293q0 24 6.5 49.5t19 49t31.5 44t42 36t51.5 24.5t60.5 9q50 0 91 -23q42 -22 66 -62q25 -41 25 -90q1 -82 -59 -148q-60 -68 -154 -68q-76 0 -127.5 51.5t-52.5 127.5z" />
<glyph unicode="j" horiz-adv-x="672" d="M-287 -299q5 16 23 29t42.5 26t50 30t49.5 49.5t38 76.5l266 881q8 30 3 46.5t-17.5 29.5t-25.5 21.5t-20.5 23t-2.5 32.5q7 31 64.5 58t139 42t161.5 15q61 0 106 -13t71 -36t38 -55q11 -28 11 -61v-8q-2 -37 -15 -80l-247 -831q-31 -101 -79 -171.5t-116.5 -111 t-150 -58t-188.5 -17.5q-54 0 -102 9t-77.5 28.5t-21.5 44.5zM440 1291q0 51 26 100q26 51 78.5 85.5t117.5 34.5q53 0 96.5 -24t68 -66t24.5 -92v-4q0 -54 -27 -105q-27 -52 -79.5 -86t-118.5 -34q-79 0 -132 54q-54 56 -54 137z" />
<glyph unicode="k" horiz-adv-x="1402" d="M-90 62q5 15 16.5 25t25.5 17.5t29 18.5t30 33.5t25 56.5l305 1001q9 31 3.5 47.5t-18 30t-26 22.5t-21.5 23t-4 32q12 45 126.5 79.5t238.5 34.5q61 0 106 -13t71 -35.5t38 -54.5q11 -28 11 -61v-8q-2 -37 -15 -79l-175 -570h67q40 0 65 24t39 71q24 72 53.5 125.5 t70.5 95t95.5 62.5t123.5 21q63 0 114.5 -20.5t83.5 -55.5t46 -81q10 -31 9 -62q0 -16 -2 -32q-6 -40 -23.5 -72t-44.5 -53.5t-63 -33t-78 -11.5q-85 0 -130.5 43t-44.5 98q-19 3 -33 -17t-30 -78q-10 -37 -38 -70q69 -5 121 -21.5t83 -42.5q31 -24 48 -58q16 -32 16 -68 q0 -39 -14 -87l-15 -62q-9 -27 -2.5 -41t23.5 -14t29.5 11t21 21.5t14.5 10.5q10 0 15.5 -13.5t5.5 -36.5q0 -31 -12 -61q-12 -34 -38.5 -65t-64.5 -54.5t-93.5 -38t-120.5 -14.5q-101 0 -177 42t-106 112q-15 35 -14 75q0 42 15 90l37 101q11 33 11 54q1 15 -5 25 q-14 23 -66 23h-40l-90 -295q-10 -35 -6.5 -55t14.5 -35t23 -23.5t19.5 -20t3.5 -25.5q-9 -26 -39 -38t-93 -12h-458q-53 0 -76.5 17t-15.5 45z" />
<glyph unicode="l" horiz-adv-x="734" d="M-90 62q5 15 16.5 25t25.5 17.5t29 18.5t30 33.5t25 56.5l305 1001q9 31 3.5 47.5t-18 30t-26 22.5t-21.5 23t-4 32q12 45 126.5 79.5t238.5 34.5q61 0 106 -13t71.5 -35.5t38.5 -54.5q11 -30 11 -63v-6q-1 -37 -14 -79l-315 -1023q-10 -35 -6.5 -55t14.5 -35t23 -23.5 t19.5 -20t3.5 -25.5q-9 -26 -39 -38t-93 -12h-458q-53 0 -76.5 17t-15.5 45z" />
<glyph unicode="m" horiz-adv-x="2103" d="M-80 62q4 15 15.5 25t25.5 17.5t29 18.5t30 33.5t26 56.5l178 580q8 30 3 46.5t-17.5 29.5t-25.5 21.5t-20.5 23t-2.5 32.5q7 31 64.5 58t139 42t161.5 15q101 0 158 -53q53 -50 53 -137v-12q83 114 173 158t197 44q78 0 138 -30.5t94.5 -85t39.5 -126.5q45 72 94.5 121 t101 74.5t100 36t104.5 10.5q75 0 135 -29.5t94 -81.5q34 -53 42 -124q2 -17 2 -36q0 -56 -20 -118l-123 -395q-8 -24 -2 -39.5t24 -15.5q13 0 24 7t16.5 14.5t12 14.5t11.5 7q10 0 16 -13.5t6 -31.5q0 -33 -13 -66.5t-41.5 -64.5t-68 -54.5t-96.5 -38t-122 -14.5 q-132 0 -211 61t-80 164q0 75 36 166l111 289q13 34 7.5 55.5t-20.5 32t-36 10.5q-12 0 -25 -3.5t-28 -13t-29 -23t-27.5 -35.5t-25.5 -49l-109 -359q-9 -24 -2.5 -39.5t23.5 -15.5t30 11t21.5 21.5t13.5 10.5q10 0 16 -13.5t6 -31.5q0 -42 -22 -83.5t-63 -76.5t-108 -56.5 t-149 -21.5q-132 0 -210.5 61t-80.5 164q0 75 37 166l110 289q10 25 9.5 43.5t-9 31t-21 18t-28.5 5.5q-33 0 -69 -29t-61 -93l-132 -429q-11 -35 -7.5 -55t14.5 -35t23 -23.5t19 -20t3 -25.5q-8 -26 -38.5 -38t-94.5 -12h-457q-53 0 -75.5 16.5t-16.5 45.5z" />
<glyph unicode="n" horiz-adv-x="1436" d="M-80 62q4 15 15.5 25t25.5 17.5t29 18.5t30 33.5t26 56.5l178 580q8 30 3 46.5t-17.5 29.5t-25.5 21.5t-20.5 23t-2.5 32.5q7 31 64.5 58t139 42t161.5 15q101 1 159 -55q53 -50 53 -135q0 -9 -1 -18q83 117 174.5 162.5t200.5 45.5q76 0 136 -29.5t94 -81.5 q34 -53 42 -124q2 -17 2 -35q0 -56 -21 -119l-122 -395q-9 -24 -2.5 -39.5t23.5 -15.5t30 11t21.5 21.5t13.5 10.5q10 0 15.5 -13.5t5.5 -35.5q0 -40 -21 -80q-22 -42 -63 -76.5t-108 -56t-149 -21.5q-132 0 -210.5 61t-80.5 164q0 75 37 166l110 289q14 34 8.5 55.5t-20 32 t-36.5 10.5q-29 0 -57.5 -19t-51 -51t-34.5 -72l-124 -409q-11 -35 -7.5 -55t14.5 -35t23 -23.5t19 -20t3 -25.5q-8 -26 -38.5 -38t-94.5 -12h-457q-53 0 -75.5 16.5t-16.5 45.5z" />
<glyph unicode="o" horiz-adv-x="1316" d="M20 405q2 59 16 123q38 157 145.5 278.5t263 188t332.5 66.5q96 0 176 -15t138.5 -41.5t101.5 -65t69 -84t38 -99.5q10 -46 9 -94v-16q-2 -56 -16 -118q-39 -164 -143 -288.5t-255 -191t-329 -66.5q-97 0 -178.5 15t-141 42t-104.5 65.5t-72 85.5q-28 46 -40 101 q-11 49 -11 101q1 7 1 13zM507 251.5q-3 -38.5 4.5 -60.5t18 -28t28.5 -6q19 -2 38 11.5t43 51t54 114.5t66 192q28 92 43.5 158.5t18 104t-4.5 59.5t-18 28.5t-28 6.5q-20 0 -38.5 -14t-43 -51t-54.5 -110.5t-64 -183.5q-29 -96 -44.5 -165t-18.5 -107.5z" />
<glyph unicode="p" horiz-adv-x="1386" d="M-184 -321q4 15 15 25.5t25 18.5t28.5 19t29.5 33.5t24 55.5l293 962q9 29 3.5 45.5t-18 29.5t-26 22t-21 23.5t-2.5 32.5q7 31 64.5 58t139 42t161.5 15q89 0 145.5 -44.5t65.5 -121.5q137 175 307 175q98 0 171 -42.5t112 -119.5t47 -184q1 -19 1 -40q0 -90 -27 -194 q-31 -126 -90.5 -223.5t-139.5 -159.5t-175 -93.5t-200 -31.5q-140 0 -241 58l-64 -214q-10 -34 -7 -53.5t13.5 -34.5t22 -23.5t18.5 -21t3 -26.5q-7 -26 -37 -37t-93 -11h-460q-52 0 -74.5 16.5t-13.5 43.5zM554 189q24 -24 58 -24q20 0 36.5 5t38.5 23.5t41.5 51t43 90.5 t45.5 138q17 61 28 108.5t16 80t4.5 56.5t-3.5 37.5t-11 21t-16.5 10t-20.5 2.5q-18 0 -46 -17t-56 -60z" />
<glyph unicode="q" horiz-adv-x="1368" d="M22 314q-3 26 -3 54q0 86 25 190q25 100 70 184t102 142.5t125 98.5t139.5 59t145.5 19q119 0 200.5 -33.5t144.5 -104.5l59 48q41 37 80 54t92 17h91q30 0 52.5 -8.5t35 -24.5t15 -38.5t-6.5 -51.5l-279 -919q-16 -50 -16 -78q0 -30 14 -39t43 -9q25 0 62.5 6.5 t46.5 6.5q25 0 25 -33q0 -49 -59 -104q-60 -55 -157.5 -93t-195.5 -38q-177 0 -254 87q-48 55 -48 136q0 48 17 106l54 176q-124 -130 -295 -130q-84 0 -153 36t-115 107t-57 177zM553.5 352q2.5 -26 9 -44t16.5 -30t22.5 -17.5t26.5 -5.5q18 0 32.5 10t27 31t24.5 55 l102 335q2 5 3.5 10.5t3 9.5t3.5 9.5t3 8.5q10 36 11 62t-7 41t-21.5 22.5t-32.5 7.5q-33 0 -61 -23.5t-61 -88t-67 -175.5q-15 -47 -23.5 -88t-11 -72.5t0 -57.5z" />
<glyph unicode="r" horiz-adv-x="1161" d="M-80 62q4 15 15.5 25t25.5 17.5t29 18.5t30 33.5t26 56.5l178 580q8 30 3 46.5t-17.5 29.5t-25.5 21.5t-20.5 23t-2.5 32.5q7 31 64.5 58t139 42t161.5 15q82 0 136 -36.5t71 -105.5q97 142 253 142q88 0 150 -43q64 -44 86 -114q12 -37 11 -77q0 -35 -9 -72 q-10 -42 -30 -74.5t-47.5 -53.5t-61 -32t-72.5 -11q-34 0 -62 8.5t-46.5 22.5t-33.5 32t-24.5 36.5t-19.5 36.5t-17.5 32t-18.5 22.5t-25 8.5q-10 0 -18.5 -3.5t-16 -11.5t-14.5 -22.5t-12 -35.5l-155 -501q-8 -32 -1.5 -51t22 -34t32 -24t28 -22t9.5 -28q-5 -27 -29 -38.5 t-85 -11.5h-514q-53 0 -75.5 16.5t-16.5 45.5z" />
<glyph unicode="s" horiz-adv-x="1189" d="M-24 321q17 59 65.5 87.5t117.5 28.5q54 0 102.5 -20.5t82.5 -55.5q36 -35 50 -87q8 -27 7 -57q0 -26 -6 -54q48 -12 93 -12q25 0 47 7t38.5 20t26 33.5t9.5 45.5q-1 32 -27.5 60t-68.5 51t-92.5 46.5t-100.5 52t-92 61.5t-68.5 81t-27.5 105v7q0 161 135 259 q138 100 394 100q247 0 391 -65t148 -168v-5q0 -69 -53 -113q-55 -45 -155 -45q-76 0 -136 29t-88 82q-16 31 -16 66q0 24 8 50q-37 10 -63 10q-51 -1 -83 -25t-32 -64q0 -36 26.5 -66t69 -53t95.5 -48.5t107 -49.5t103 -56.5t84 -70.5t49 -90q7 -26 8 -54q0 -29 -8 -61 q-32 -135 -179 -213t-385 -78q-199 0 -338.5 39t-202.5 114q-44 52 -44 116q0 29 9 60z" />
<glyph unicode="t" horiz-adv-x="862" d="M58 137q-13 34 -13 74q0 46 17 100l129 398q10 29 10 54q1 9 -1 17q-4 32 -19 52.5t-34 39.5t-36 34t-26.5 34.5t-4.5 40.5q17 55 117 55h112l126 126q65 66 121.5 92.5t144.5 26.5q80 0 110 -40q17 -23 17 -57q0 -25 -9 -56l-28 -92h106q47 0 67 -23q12 -15 13 -37 q0 -13 -4 -28q-25 -89 -120 -89h-116l-151 -495q-9 -31 -10.5 -54.5t4 -37t17 -21.5t25 -11t31.5 -3q29 0 70 7t52 7q13 0 20.5 -9.5t7.5 -22.5q0 -23 -20.5 -53.5t-62 -62.5t-95.5 -59t-127.5 -44.5t-150.5 -17.5q-109 0 -185.5 41t-103.5 114z" />
<glyph unicode="u" horiz-adv-x="1375" d="M30 209q-4 22 -5 46q0 54 21 118l128 420q9 30 4 46.5t-17.5 29.5t-26 21.5t-21 23t-2.5 32.5q7 31 64.5 58t138.5 42t161 15q61 0 106 -13t71 -36t38 -55q11 -28 11 -61q-1 -4 -1 -8q-2 -37 -14 -80l-126 -417q-8 -24 -8 -42q0 -19 8 -31q16 -26 51 -25q40 0 64 22.5 t45 73.5l123 404q8 30 3 46.5t-17.5 29.5t-25.5 21.5t-20 23t-2 32.5q5 23 40 45t86.5 37t114 24t122.5 9q61 0 106.5 -13t71.5 -36t38 -55q10 -27 10 -59v-10q-2 -37 -16 -80l-161 -531q-8 -24 -2 -39.5t23 -15.5t30 11t21.5 21.5t13.5 10.5q10 0 16.5 -13.5t6.5 -34.5 q0 -39 -23 -81q-24 -42 -65.5 -76t-105 -56t-135.5 -22q-118 0 -188.5 48.5t-89.5 126.5q-72 -81 -159 -122t-178 -41q-82 0 -150.5 24.5t-116 72t-61.5 118.5z" />
<glyph unicode="v" horiz-adv-x="1201" d="M34 197q-6 26 -5 55q0 50 17 110l126 431q8 26 0 47t-22.5 32t-27.5 26t-13 31q0 43 79 87q81 44 203 45q83 0 145.5 -25.5t95 -70.5t42.5 -107q3 -19 2 -37q0 -45 -15 -95l-131 -429q-7 -26 -3 -45t20.5 -29t44.5 -10q32 0 74 21.5t85.5 61t85.5 103.5t70 139 q-143 122 -147 272v6q0 64 22 116q22 56 73.5 92.5t123.5 36.5q50 0 95 -18.5t78.5 -53.5t53 -87.5t20.5 -116.5v-5q0 -88 -32 -182q-34 -98 -92.5 -185.5t-139 -167t-169.5 -137.5t-187.5 -92t-189.5 -34q-101 0 -180.5 24t-132.5 72t-69 119z" />
<glyph unicode="w" horiz-adv-x="1860" d="M40 218q-2 18 -2 38q0 64 22 144l112 393q8 26 0 47t-22.5 32t-27.5 26t-13 31q0 43 79 87q81 44 203 45q83 0 145.5 -25.5t95 -70.5t42.5 -107q3 -19 2 -37q0 -45 -15 -95l-103 -341q-8 -22 -7 -39.5t7.5 -29t18.5 -17.5t29 -6q35 0 60.5 25t49.5 82l115 393 q8 26 -0.5 47t-23 32t-28 26t-13.5 30q0 44 80 88q82 44 204 45q83 0 145.5 -25.5t95.5 -70.5t42 -107q3 -17 3 -35q0 -46 -17 -97l-131 -429q-5 -16 -5 -29q1 -18 11 -32q18 -22 58 -23q33 0 74 21.5t84.5 61t85 103t69.5 139.5q-54 46 -87 94.5t-45.5 90t-13.5 87.5v6 q-1 64 21 116q22 56 73.5 92.5t124.5 36.5q104 0 174.5 -74.5t72.5 -201.5v-5q-1 -88 -33 -182q-34 -98 -91.5 -185.5t-138 -167t-169.5 -137.5t-188 -92t-191 -34q-145 0 -245.5 50t-129.5 144q-73 -91 -164.5 -136.5t-189.5 -45.5q-82 0 -146 24t-107 74t-52 126z" />
<glyph unicode="x" horiz-adv-x="1199" d="M-28 162q-2 15 -3 31q0 37 13 76q23 71 70 105q42 31 92 31h12q57 -4 113 -41l100 94q-35 104 -61.5 168t-47 93.5t-34.5 38t-33 8.5q-14 0 -35 -10.5t-34 -10.5q-8 0 -14.5 4.5t-10.5 13t-4.5 21t3.5 28.5q25 104 126.5 176.5t215.5 72.5q42 0 74.5 -6t69 -25t68.5 -52 t67 -88.5t70 -132.5l56 128q43 97 91.5 136.5t120.5 39.5q69 0 119.5 -38.5t66.5 -100.5q7 -27 7 -57q0 -38 -11 -80q-23 -71 -71 -105q-43 -31 -92 -31h-12q-56 4 -112 42l-101 -95q50 -137 84 -205.5t53 -85t44 -16.5q14 0 35.5 11t34.5 11q16 0 24 -19t0 -51 q-16 -67 -68.5 -124.5t-124.5 -90t-146 -32.5q-44 0 -74 4.5t-68.5 22t-70 49t-68 88.5t-73.5 139l-50 -113q-48 -105 -96.5 -148.5t-115.5 -43.5q-55 0 -98.5 22.5t-68 60t-32.5 87.5z" />
<glyph unicode="y" horiz-adv-x="1243" d="M-148 -130v16q0 30 10 60q12 38 36 64.5t55.5 39t69.5 12.5q91 0 150 -63t76 -173q130 5 237 109q-102 19 -151.5 70t-67.5 160l-81 492q-5 38 -16 52.5t-30 14.5q-13 0 -33 -13.5t-27 -13.5t-11.5 9t-4 31.5t9.5 53.5q17 54 50.5 102.5t79 86.5t106.5 60.5t127 22.5 q127 0 188.5 -76t81.5 -234l59 -442q6 -50 37 -50q36 0 83 65t95 186q-83 74 -111 174q-14 48 -14 98q0 56 17 116q25 81 75.5 121t114.5 40q84 0 135 -61t58 -170q2 -16 2 -33q0 -99 -38 -229q-37 -122 -99 -242t-140 -224.5t-172.5 -193.5t-195.5 -153t-211.5 -100 t-217.5 -36q-62 0 -115.5 13.5t-91.5 37.5t-67 56t-41.5 68.5t-16.5 75.5z" />
<glyph unicode="z" horiz-adv-x="1327" d="M-32 239q6 101 147 190l515 316q-17 21 -31 35.5t-28 24.5t-28 14t-29 4q-24 0 -45 -12t-35.5 -31t-28.5 -40.5t-24.5 -40t-23.5 -30.5t-26 -12q-66 -1 -114 49q-42 43 -42 114q0 10 1 21q7 90 76.5 155t176.5 65q56 0 103 -16.5t77 -42t54.5 -55t38.5 -55t26.5 -42.5 t20.5 -17q11 0 27 17t33.5 42.5t44 55t55.5 55t71 42t88 16.5q68 0 127 -34t91 -87q28 -47 28 -97v-12q-4 -71 -45.5 -123.5t-130.5 -105.5l-426 -253q35 -38 68 -54.5t59.5 -13.5t51.5 18t45 38.5t39.5 48.5t34.5 47t29.5 36.5t25.5 14.5q28 0 60.5 -15.5t63 -44 t48.5 -77.5q14 -38 14 -83q0 -12 -1 -25q-7 -103 -89.5 -174t-208.5 -71q-64 0 -116.5 17.5t-84.5 44t-58 57t-40.5 57t-27 44t-21.5 17.5q-12 0 -28 -17.5t-32.5 -44t-42.5 -57t-54.5 -57t-72 -44t-93.5 -17.5q-137 0 -228 73q-85 68 -85 160v12z" />
<glyph unicode="{" horiz-adv-x="992" d="M40 -79.5q1 47.5 16 99.5q18 63 89 187t88 184q10 36 11 60t-10.5 48.5t-40.5 42.5q-30 19 -38 40t2 62q5 20 11 32.5t17 21t23 13t35 9.5q31 8 54 24t39 43t26 66t10.5 98t-3.5 111.5t-0.5 121t18.5 124.5q38 138 173 229t313 91q81 0 151.5 -16t116.5 -40t78 -52.5 t44.5 -54t8.5 -44.5q-4 -20 -18 -28t-40 -8q-19 0 -69 14t-80 14q-25 0 -48.5 -7t-47.5 -23.5t-44 -48t-32 -74.5q-11 -38 -14 -85.5t-1.5 -93t3.5 -89.5t-0.5 -87.5t-11.5 -75.5q-16 -62 -67.5 -109t-129.5 -71q-26 -8 -33.5 -14t-1.5 -13t29 -20q122 -65 77 -221 q-16 -54 -52 -114.5t-71.5 -121t-51.5 -115.5q-21 -74 11 -121t109 -47q27 0 69.5 8.5t54.5 8.5q24 0 33 -14.5t4 -35.5q-20 -81 -137 -138t-272 -57q-86 0 -154.5 14.5t-114.5 41t-76.5 61.5t-43 78.5t-11.5 91z" />
<glyph unicode="|" horiz-adv-x="881" d="M10 -102l444 1557q13 46 36 64.5t68 18.5h315q57 0 76 -23.5t5 -75.5l-444 -1558q-14 -45 -37 -63.5t-67 -18.5h-316q-56 0 -75.5 23.5t-4.5 75.5z" />
<glyph unicode="}" horiz-adv-x="992" d="M-215 -159q5 20 18.5 28.5t39.5 8.5q20 0 70 -14.5t79 -14.5q25 0 48.5 7.5t47.5 23.5t44 47.5t33 74.5q12 46 15 109t-0.5 114.5t-2.5 110.5t12 97q17 63 68 110t128 71q26 9 33.5 14.5t1.5 12.5t-29 20q-121 63 -75 220q15 54 51.5 115t72 121t50.5 115 q22 74 -11 121.5t-110 47.5q-27 0 -69 -9t-55 -9q-12 0 -21 4.5t-12.5 11.5t-4.5 16t2 18q20 81 137.5 138t271.5 57q86 0 154.5 -14.5t114.5 -40.5t76.5 -61.5t43 -79t11 -91t-15.5 -98.5q-19 -64 -89.5 -188t-87.5 -184q-10 -36 -11 -60t11 -48t40 -43q30 -19 38 -40 t-1 -62q-10 -38 -27 -51.5t-61 -24.5q-47 -12 -75 -43t-42 -89q-11 -39 -11.5 -98t3.5 -112t0.5 -121.5t-19.5 -124.5q-38 -138 -173 -229t-313 -91q-68 0 -129 11.5t-104.5 29.5t-77.5 40.5t-54 45.5t-28.5 44t-5.5 36z" />
<glyph unicode="~" horiz-adv-x="1067" d="M96.5 568q-8.5 47 7.5 110q30 114 118.5 183.5t196.5 69.5q52 0 148.5 -29t188 -58.5t131.5 -29.5q19 0 37.5 6.5t32 16.5t27 21t23.5 21t20 16.5t19 6.5q23 0 30 -47t-8 -112q-25 -113 -114.5 -183t-198.5 -70q-46 0 -116.5 18t-131 40t-122.5 40t-92 18t-57.5 -13.5 t-44.5 -29t-34 -29t-29 -13.5q-23 0 -31.5 47z" />
<glyph unicode="&#xa1;" horiz-adv-x="724" d="M24.5 172q-2.5 89 73.5 211l270 420q30 45 53 64.5t56 19.5q72 0 75 -94l16 -492q3 -80 -18.5 -141.5t-63 -100t-97.5 -58t-124 -19.5q-109 0 -173.5 50.5t-67 139.5zM341 1126q-1 56 26.5 108t80.5 86t118 34q80 0 133.5 -53.5t55.5 -132.5q0 -53 -26.5 -104t-79 -85.5 t-117.5 -34.5q-80 0 -134.5 52.5t-56.5 129.5z" />
<glyph unicode="&#xa2;" horiz-adv-x="1103" d="M36 362q-13 95 12 208q21 97 64.5 176.5t102 137t132.5 98t156 62t173 26.5l27 96q16 55 45.5 77.5t72.5 22.5q53 0 75 -33.5t8 -86.5l-27 -91q80 -18 138.5 -53.5t90 -85.5t32.5 -108q1 -82 -54 -135t-151 -53q-120 0 -172.5 73.5t-19.5 193.5q-41 -11 -77 -31.5 t-68 -51.5t-56.5 -76t-35.5 -100q-36 -161 23 -245t197 -84q50 0 97 10.5t74.5 23.5t53.5 24t39 11q8 0 12 -3t5.5 -8.5t1.5 -15.5q1 -33 -12.5 -69.5t-38 -72t-62.5 -69t-83 -60.5t-102.5 -46t-118.5 -26l-28 -100q-16 -55 -45.5 -77t-70.5 -22q-54 0 -74 39.5t-3 99.5 l18 68q-96 20 -170.5 68t-121 120.5t-59.5 167.5z" />
<glyph unicode="&#xa3;" horiz-adv-x="1603" d="M-5.5 260q0.5 35 7.5 71q22 88 91.5 141.5t176.5 53.5q48 0 88.5 -12.5t107.5 -42.5l38 135h-140q-50 0 -70.5 24.5t-8.5 68.5t44.5 68t82.5 24h102q-35 56 -42 125t14 141q40 133 195 207.5t417 74.5q129 0 234.5 -21.5t171.5 -56.5t108 -79t55.5 -89.5t2.5 -88.5 q-19 -76 -79.5 -118.5t-159.5 -42.5q-73 0 -129 24t-85.5 66t-33.5 98.5t27 120.5q-64 28 -111.5 4.5t-62.5 -80.5l-80 -285h188q50 0 70 -24t10 -68q-28 -93 -126 -93h-194l-73 -259q-6 -21 -12 -38q51 -10 87 -10q61 0 114.5 12.5t90.5 32.5t68 44.5t53 48.5t39 44 t31.5 32.5t26.5 12.5q24 0 61.5 -22t74 -64t53 -102t-0.5 -135q-24 -97 -126 -152.5t-269 -58.5q-240 -3 -431 115q-124 -115 -333 -115q-60 0 -111.5 10t-90 28t-70 43t-50.5 55t-30.5 63.5t-11 68.5zM215 270q0 -29 24.5 -50t59.5 -21q76 0 103 88q-24 17 -36 25 t-34.5 16.5t-44.5 8.5q-34 0 -53 -18t-19 -49z" />
<glyph unicode="&#xa4;" horiz-adv-x="1434" d="M80 239q-16 36 0 71t62 65l86 54q-43 111 -4 266q39 150 144 264l-59 52q-32 30 -29.5 65.5t39.5 71.5q36 35 72.5 38t68.5 -26l78 -74q155 74 351 74q195 0 308 -74l119 74q96 60 133 -12q17 -37 0.5 -71.5t-62.5 -65.5l-85 -52q44 -110 4 -264q-44 -162 -144 -268 l38 -34q46 -42 47.5 -80.5t-37.5 -73.5q-35 -37 -74 -36t-84 44l-60 54q-152 -75 -348 -75t-309 75l-122 -75q-45 -29 -79.5 -26t-53.5 39zM641.5 520q11.5 -51 67.5 -51q35 0 62.5 22t51.5 72t46 132q31 122 20 172t-64 50q-55 0 -93 -51t-70 -171q-32 -124 -20.5 -175z " />
<glyph unicode="&#xa5;" horiz-adv-x="1643" d="M220 371q8 29 25 50t43 32t59 11h205l26 86l-10 30h-208q-50 0 -70.5 24.5t-8.5 67.5q12 44 44.5 68t82.5 24h94l-109 312q-16 45 -39 78t-43 49t-37.5 29.5t-26 28t-4.5 34.5q9 42 80 42h536q70 0 96.5 -12t28.5 -42q0 -20 -13 -39.5t-28 -33.5t-23 -38.5t-1 -53.5 l92 -354l255 364q82 116 155.5 166.5t164.5 50.5q98 0 156.5 -71.5t40.5 -175.5q-12 -66 -45 -109.5t-75 -61.5t-93 -18q-52 0 -88.5 16.5t-68.5 53.5l-164 -215h112q34 0 54.5 -11t26 -31.5t-0.5 -49.5q-29 -92 -127 -92h-209l-23 -32l-27 -84h245q51 0 71 -24t10 -69 q-28 -92 -127 -92h-252l-12 -42q-9 -34 -2 -55.5t23 -39.5t33 -30t27 -28t5 -34q-8 -28 -38.5 -39t-85.5 -11h-506q-52 0 -77 19t-18 54q4 17 16.5 30t28 22.5t32.5 21.5t33 35t25 55l12 42h-199q-50 0 -70 24.5t-9 67.5z" />
<glyph unicode="&#xa6;" horiz-adv-x="882" d="M10 -100l159 554q11 43 35.5 62.5t68.5 19.5h315q55 0 74.5 -24t5.5 -75l-158 -554q-12 -43 -36 -62.5t-68 -19.5h-316q-55 0 -74.5 24.5t-5.5 74.5zM297 902l159 553q6 22 14.5 37.5t21 25.5t29 15t39.5 5h315q55 0 74.5 -24.5t6.5 -74.5l-159 -554q-12 -44 -36 -63 t-68 -19h-316q-55 0 -74 24t-6 75z" />
<glyph unicode="&#xa7;" horiz-adv-x="1448" d="M147 28q16 58 66 89.5t110 31.5q55 0 73 -29t-5 -84q-19 -55 6.5 -83.5t79.5 -28.5q71 0 87 53q15 51 -20 111l-265 433q-37 62 -60.5 112.5t-40.5 110t-16 122t20 130.5q36 125 152.5 230.5t282 166t339.5 60.5q100 0 182.5 -24.5t132.5 -65.5t71 -93.5t6 -107.5 q-16 -57 -65.5 -88.5t-110.5 -31.5q-55 0 -73 29t4 83q19 55 -6 83.5t-80 28.5q-71 0 -86 -54q-15 -49 21 -110l264 -434q38 -62 61 -112t40 -109t15.5 -121.5t-20.5 -130.5q-35 -125 -151.5 -230.5t-281.5 -166.5t-339 -61q-100 0 -182.5 25t-133 65.5t-71.5 93.5t-6 107z M508 1042q-39 -133 72 -316l219 -366q68 -117 77.5 -211.5t-37.5 -174.5q121 72 149 175q38 132 -73 315l-218 367q-69 117 -78 211t38 174q-122 -72 -149 -174z" />
<glyph unicode="&#xa8;" horiz-adv-x="923" d="M241 1293q0 50 25 98t75 81t111 33q76 0 128.5 -50t53.5 -122q2 -84 -59 -151.5t-154 -67.5q-76 0 -127 51.5t-53 127.5zM691 1293q0 37 15 74.5t41.5 68t67 50t87.5 19.5q30 0 57.5 -8.5t49.5 -24.5t39 -37t26 -47.5t10 -54.5q1 -84 -59.5 -151.5t-153.5 -67.5 q-76 0 -127.5 51.5t-52.5 127.5z" />
<glyph unicode="&#xa9;" horiz-adv-x="1574" d="M116.5 495q-9.5 90 9.5 187q25 141 101 268t184.5 219t249 146t289.5 54q101 0 191.5 -25.5t159.5 -71.5t122.5 -110.5t82 -143t38 -168t-9.5 -186.5q-25 -141 -100.5 -268.5t-184 -219.5t-249 -146t-288.5 -54q-102 0 -192.5 25t-159.5 71.5t-123 111t-82.5 143 t-38 168.5zM257 664q-20 -116 2.5 -219t81 -179t155.5 -120t218 -44q124 0 242 45.5t209 123.5t154.5 185t83.5 226q20 116 -2.5 218.5t-81 178.5t-154.5 120t-217 44q-125 0 -243 -46t-209.5 -123.5t-155 -184t-83.5 -225.5zM397.5 508q-12.5 92 21.5 212q24 78 60.5 139 t77.5 100t89.5 64.5t94.5 36t94 10.5q129 0 224 -82l33 25q33 26 56.5 36t51.5 10q39 0 57 -21.5t5 -58.5l-67 -190q-11 -34 -27.5 -48.5t-47.5 -14.5t-50.5 22.5t-46.5 78.5q-21 41 -33.5 59t-29 27.5t-41.5 9.5q-50 0 -97 -62.5t-83 -188.5q-24 -76 -30 -133.5t3.5 -92 t30 -52t50.5 -17.5q40 0 73.5 15.5t56 37.5t41 44t37.5 37t37 15q21 0 45 -22t24 -44q0 -14 -14 -40.5t-44.5 -59.5t-70.5 -62.5t-98.5 -49.5t-120.5 -20q-94 0 -171 32t-127.5 94t-63 154z" />
<glyph unicode="&#xaa;" horiz-adv-x="982" d="M88 812q22 107 106 160.5t204 53.5q130 0 263 -40l36 100q17 60 17 100q-3 37 -27 54.5t-75 17.5q11 -26 11.5 -52.5t-10 -50.5t-30.5 -43t-53 -30.5t-74 -11.5q-80 0 -124.5 32t-46.5 80q-2 36 17 67t60 57t113 40.5t167 14.5q84 0 154 -13.5t126.5 -42t89 -73 t43 -106.5t-12.5 -142l-58 -212q-2 -9 -1.5 -16t3.5 -11.5t8 -7t11 -2.5q14 0 23.5 8t16 15.5t10.5 7.5q7 0 13 -11.5t8 -24.5q3 -65 -70 -122.5t-177 -57.5q-33 0 -62.5 4.5t-55.5 13.5t-47 23t-37.5 32.5t-26.5 40.5q-45 -54 -110 -84t-141 -30q-74 0 -130.5 24.5 t-86.5 63.5t-41.5 84.5t-2.5 89.5zM473 817q-6 -30 6.5 -53t39.5 -23q22 0 46 15.5t35 48.5l30 88q-31 7 -62 7q-24 0 -44.5 -12t-33 -30.5t-17.5 -40.5z" />
<glyph unicode="&#xab;" horiz-adv-x="1101" d="M104 674q4 26 21.5 46.5t56.5 49.5l268 201q21 16 36 22.5t35 6.5q42 0 68.5 -38t14.5 -77q-5 -18 -15 -32.5t-24 -27t-41 -32.5l-187 -140l153 -178q10 -12 16.5 -20t15 -19.5t12.5 -21.5t7.5 -21t3 -22.5t-4.5 -23.5q-10 -30 -37.5 -50t-58.5 -20q-49 0 -89 48 l-192 233q-26 31 -36.5 45t-18 33t-4.5 38zM521 638q5 26 22.5 47.5t56.5 49.5l344 236q42 29 71 29q39 0 66.5 -38t16.5 -77q-7 -25 -25.5 -45t-55.5 -47l-253 -177l147 -137q67 -63 46 -124q-6 -20 -21 -37t-35.5 -27t-41.5 -10q-36 0 -74 38l-205 202q-35 34 -49 61 t-10 56z" />
<glyph unicode="&#xac;" horiz-adv-x="1382" d="M124 843q15 58 58.5 90t108.5 32h969q67 0 95.5 -32t11.5 -90l-103 -359q-18 -63 -56 -94.5t-90 -31.5q-66 0 -96 42.5t-11 114.5l57 205h-840q-66 0 -93 32t-11 91z" />
<glyph unicode="&#xad;" horiz-adv-x="1203" d="M251 707q10 39 32.5 66.5t57 41.5t76.5 14h468q66 0 93 -31.5t14 -90.5q-39 -123 -169 -123h-468q-67 0 -94 32t-10 91z" />
<glyph unicode="&#xae;" horiz-adv-x="1036" d="M201 979q12 63 44.5 121.5t81 106.5t108.5 83.5t131 55t144 19.5q95 0 171.5 -32t124 -85.5t66 -126t2.5 -152.5q-20 -106 -93.5 -194.5t-184 -140.5t-232.5 -52q-126 0 -217.5 54t-129.5 144.5t-16 198.5zM293 969q-16 -84 12 -153t97 -109.5t166 -40.5q151 0 269 90.5 t144 222.5q16 84 -12 152.5t-96 109t-164 40.5q-152 0 -271 -90.5t-145 -221.5zM377 801q3 7 11.5 12.5t17.5 14t13 25.5l79 269q4 20 0 27t-8.5 14.5t-1.5 16.5q2 15 36 15h209q76 0 115 -37t25 -90q-23 -74 -109 -80q37 -4 51.5 -26.5t5.5 -55.5l-7 -31q-1 -6 -0.5 -10.5 t2 -8t4.5 -5.5t7 -2q15 0 20.5 -3t3.5 -13q-4 -23 -31 -42t-75.5 -19t-72.5 26.5t-11 74.5l7 40q8 24 -1 33.5t-37 9.5h-21l-31 -103q-3 -12 -0.5 -19t7 -12.5t9.5 -9t8 -8t2 -9.5q-2 -7 -7 -10.5t-11.5 -4.5t-19.5 -1h-156q-36 0 -33 22zM624 1017h27q25 0 39 12.5t22 44.5 q7 32 -2.5 44t-31.5 12h-25z" />
<glyph unicode="&#xaf;" horiz-adv-x="798" d="M228 1258q12 44 44.5 68t82.5 24h512q51 0 71 -24t10 -68q-28 -92 -127 -92h-514q-50 0 -70 24.5t-9 67.5z" />
<glyph unicode="&#xb0;" horiz-adv-x="874" d="M176 1048q0 100 56 180t156 125t224 45q104 0 189.5 -36.5t134.5 -102t50 -145.5q3 -101 -53.5 -184t-158 -130t-226.5 -47q-158 0 -264 84.5t-108 210.5zM492 941.5q11 -34.5 50 -34.5q50 0 81.5 43.5t50.5 145.5q14 80 1.5 115.5t-55.5 35.5q-50 0 -79 -43.5 t-47 -146.5q-13 -81 -2 -115.5z" />
<glyph unicode="&#xb1;" horiz-adv-x="1281" d="M46 279q12 48 50.5 74t96.5 26h286l69 255h-295q-59 0 -83 28t-9 81q13 52 51.5 80t96.5 28h297l60 223q14 56 48.5 84t80.5 28q58 0 85 -38t9 -102l-52 -195h307q58 0 82 -27.5t13 -80.5q-35 -109 -151 -109h-307l-69 -255h316q117 0 96 -100q-35 -101 -149 -101h-835 q-59 0 -84 26.5t-10 74.5z" />
<glyph unicode="&#xb2;" horiz-adv-x="1129" d="M174 759q24 82 107 137.5t243 101.5q83 24 131.5 50t67.5 50t26 56q8 46 -28 70t-91 11q9 -48 -2.5 -83.5t-40.5 -56t-66 -30.5t-84 -10q-85 0 -132 43.5t-28 107.5q22 70 135 107t308 37q120 0 214.5 -21.5t150 -58t80 -83t13.5 -97.5q-12 -50 -53.5 -85.5t-133.5 -63.5 t-242 -48q-182 -25 -242 -41t-61 -47h349q71 0 127 13.5t82 29.5t47.5 29.5t32.5 13.5q17 0 34 -28t24 -71.5t-4 -96.5q-19 -76 -83 -111.5t-188 -35.5h-588q-67 0 -99 60.5t-6 150.5z" />
<glyph unicode="&#xb3;" horiz-adv-x="1143" d="M138 783q15 54 69 82t140 28q84 0 138 -34t55 -89q3 -36 -25 -75q47 -13 94 -13q53 0 87.5 22.5t46.5 65.5q16 59 -16.5 86t-94.5 27q-41 0 -64 18t-18 51q4 32 29 45.5t70 13.5q63 2 96 20.5t46 62.5q7 35 1.5 59t-23 39t-38 21.5t-43.5 6.5q-36 0 -52 -4q13 -44 4 -78 q-7 -27 -28.5 -46.5t-59.5 -30.5t-90 -11q-107 0 -166.5 44t-44.5 106q18 69 133 109.5t330 40.5q105 0 194.5 -15t154 -42.5t107.5 -64t58.5 -80.5t3.5 -91q-12 -48 -63 -81t-133 -45q98 -33 135 -82t17 -119q-53 -188 -550 -188q-111 0 -201 13t-149.5 36t-97.5 53.5 t-50 65.5t-2 73z" />
<glyph unicode="&#xb4;" horiz-adv-x="490" d="M210.5 1139.5q-11.5 27.5 15.5 80.5l87 147q47 84 99 122.5t124 38.5q69 0 106.5 -43t25.5 -110q-8 -49 -48 -86.5t-120 -76.5l-175 -84q-39 -16 -64 -16q-39 0 -50.5 27.5z" />
<glyph unicode="&#xb5;" horiz-adv-x="1373" d="M-127.5 -216q1.5 37 14.5 80l285 929q9 30 4 46.5t-17.5 29.5t-26 21.5t-21 23t-2.5 32.5q7 31 64.5 58t138.5 42t161 15q61 0 106 -13t71 -36t38 -55t10.5 -69t-14.5 -80l-130 -425l4 8q-16 -47 -0.5 -72.5t51.5 -25.5q40 0 64.5 22.5t44.5 73.5l123 404q8 30 3 46.5 t-17.5 29.5t-25.5 21.5t-20 23t-2 32.5q5 23 40 45t86.5 37t114 24t122.5 9q61 0 106.5 -13t71.5 -36t38 -55t10 -69t-16 -80l-162 -531q-8 -24 -1.5 -39.5t23.5 -15.5t30 11t21.5 21.5t13.5 10.5q10 0 16.5 -13.5t6.5 -31.5q1 -41 -23 -83.5t-65.5 -76.5t-105 -56 t-135.5 -22q-118 0 -188.5 48.5t-89.5 126.5q-109 -126 -256 -155l-37 -123q-9 -29 -3.5 -45.5t18 -30t25.5 -22t20.5 -22.5t3.5 -32q-8 -32 -65.5 -59t-139 -42t-161.5 -15q-61 0 -106 13t-71 36t-38 55t-10.5 69z" />
<glyph unicode="&#xb6;" horiz-adv-x="1224" d="M129.5 695.5q-6.5 94.5 27.5 208.5q31 111 87 195t130 135.5t160.5 77t185.5 25.5h628q53 0 75.5 -21t7.5 -56q-7 -16 -21 -28t-29 -20t-31 -19.5t-31 -34.5t-24 -56l-336 -1167q-8 -29 -8 -52t6.5 -36.5t15 -26t16 -21t10 -22t-2.5 -28.5q-10 -28 -38.5 -39t-84.5 -11 h-134q-18 0 -29.5 7t-15.5 20t1 31l381 1321q7 24 -5 38t-39 14h-19q-27 0 -41 -11t-22 -39l-386 -1337q-13 -44 -58 -44h-155q-53 0 -74.5 21t-7.5 58q9 19 28.5 33t37.5 23t38.5 35t32.5 66l130 456h-90q-95 0 -165.5 37.5t-107.5 105t-43.5 162z" />
<glyph unicode="&#xb7;" horiz-adv-x="595" d="M130 640q0 53 26.5 104t79 86t117.5 35q79 0 134 -53t57 -130q0 -33 -9.5 -66t-29.5 -62t-47 -51.5t-63 -35.5t-76 -13q-79 0 -133 53.5t-56 132.5z" />
<glyph unicode="&#xb8;" horiz-adv-x="802" d="M-151 -267q8 20 29 20q10 0 34 -12t51.5 -27t72 -27t90.5 -12q102 0 119 56q9 34 -11.5 52t-51.5 18q-17 0 -52.5 -4t-51.5 -4q-25 0 -34.5 16.5t-1.5 37.5l86 241l301 -4l-60 -170q64 0 115 -33.5t71 -88t-1 -123.5q-29 -81 -114 -126t-214 -45q-65 0 -128.5 15 t-112 40.5t-83.5 55.5t-49 63t-4 61z" />
<glyph unicode="&#xb9;" horiz-adv-x="734" d="M58 611q5 15 22 28t39 23t44.5 20.5t40 26.5t22.5 36l105 357q6 20 0 36t-19 26t-29 21t-29.5 20t-20 22.5t-2.5 30.5q9 38 72 46l329 44q52 6 75 6q46 0 67 -26t5 -79l-149 -506q-5 -17 0.5 -31.5t18 -24.5t27.5 -21t28 -20.5t19.5 -23.5t2.5 -30q-12 -44 -128 -44h-481 q-38 0 -52 20t-7 43z" />
<glyph unicode="&#xba;" horiz-adv-x="1065" d="M133 846.5q-4 52.5 9 109.5q19 89 72.5 164.5t129.5 128.5t173.5 82.5t202.5 29.5q77 0 141.5 -11.5t111 -32t83 -49.5t57.5 -64.5t33 -75.5t11 -83.5t-9 -88.5q-41 -189 -196.5 -302.5t-371.5 -113.5q-91 0 -164.5 15t-124 42.5t-87 66t-52 84.5t-19.5 98.5z M526.5 744.5q-1.5 -29.5 5 -46t16 -21.5t22.5 -5q16 -1 30.5 9.5t32.5 39t40 86.5t47 147q21 69 31.5 119.5t12 79t-5 45t-15.5 21.5t-23 5q-16 0 -30.5 -10.5t-33 -38.5t-40.5 -84t-46 -139q-21 -73 -31.5 -125.5t-12 -82z" />
<glyph unicode="&#xbb;" horiz-adv-x="1101" d="M74 395q7 25 26 45.5t55 47.5l253 176l-147 137q-67 62 -46 124q10 31 38.5 53t59.5 22q36 0 74 -39l205 -202q35 -34 49 -61t10 -56q-2 -14 -7.5 -25.5t-15.5 -23t-23 -22.5t-33 -25l-344 -237q-41 -28 -71 -28q-39 0 -66.5 37.5t-16.5 76.5zM568 395q5 18 15.5 33 t24.5 27.5t41 32.5l186 140l-153 177q-10 12 -16.5 20t-15 19.5t-12.5 21.5t-7.5 21t-3 22.5t4.5 23.5q10 30 37.5 50.5t58.5 20.5q49 0 89 -48l192 -234q26 -31 36.5 -45t18 -33t4.5 -38q-4 -26 -21.5 -46.5t-56.5 -49.5l-268 -201q-10 -8 -18 -13t-16.5 -8.5t-17.5 -5 t-19 -1.5q-42 0 -68 37.5t-15 76.5z" />
<glyph unicode="&#xbc;" horiz-adv-x="2637" d="M199 611q5 15 22.5 28t39 23t44 20.5t40 26.5t23.5 36l103 357q6 20 0 36t-19 26t-28.5 21t-29 20t-20.5 22.5t-3 30.5q9 38 73 46l328 44q52 6 75 6q46 0 67 -26t5 -79l-149 -506q-6 -20 3.5 -36.5t26.5 -28.5t34.5 -24t27.5 -27.5t5 -34.5q-12 -44 -128 -44h-482 q-38 0 -51.5 20t-6.5 43zM547.5 -111q-16.5 36 20.5 88l1070 1442q24 33 53 48.5t69 15.5q58 0 75 -36t-21 -89l-1069 -1440q-25 -34 -54 -49.5t-69 -15.5q-58 0 -74.5 36zM1356 263q8 21 31.5 40t53.5 34.5t60 32.5t55.5 41t35.5 53q10 31 1 56t-28 53.5t-38.5 51.5 t-29 50.5t-0.5 50.5q35 77 169 77q65 0 129 -24t110.5 -63t67 -92.5t2.5 -108.5q-9 -25 -23 -46.5t-35 -39.5t-45 -32.5t-60 -30t-71.5 -28t-88.5 -29.5q162 27 351 30l117 343q14 42 45 58.5t95 16.5h172q57 0 78.5 -22.5t6.5 -60.5l-112 -333h73q49 0 72 -16.5t17 -47.5 q-7 -30 -33 -45t-81 -15h-91l-26 -75q-8 -26 -3 -43t15.5 -25.5t17.5 -19.5t3 -24q-11 -30 -95 -30h-369q-42 0 -62.5 12t-15.5 32q4 13 18.5 22t30 14.5t33 21.5t26.5 40l24 73q-122 -4 -280.5 -17.5t-223.5 -13.5q-54 0 -82 22.5t-17 56.5z" />
<glyph unicode="&#xbd;" horiz-adv-x="2463" d="M199 611q5 15 22.5 28t39 23t44 20.5t40 26.5t23.5 36l103 357q6 20 0 36t-19 26t-28.5 21t-29 20t-20.5 22.5t-3 30.5q9 38 73 46l328 44q52 6 75 6q46 0 67 -26t5 -79l-149 -506q-6 -20 3.5 -36.5t26.5 -28.5t34.5 -24t27.5 -27.5t5 -34.5q-12 -44 -128 -44h-482 q-38 0 -51.5 20t-6.5 43zM547.5 -111q-16.5 36 20.5 88l1070 1442q24 33 53 48.5t69 15.5q58 0 75 -36t-21 -89l-1069 -1440q-25 -34 -54 -49.5t-69 -15.5q-58 0 -74.5 36zM1389 211q23 82 106 137.5t244 101.5q42 12 74.5 24.5t56.5 25t40.5 24.5t27 26t16.5 27t9 29 q9 46 -27.5 69.5t-91.5 10.5q9 -48 -2.5 -83.5t-40 -55.5t-65.5 -29.5t-84 -9.5q-85 0 -132.5 43.5t-27.5 107.5q21 69 134 106.5t309 37.5q119 0 213.5 -22t150.5 -58.5t80.5 -83t12.5 -97.5q-12 -50 -53 -85.5t-133 -63.5t-243 -48q-182 -24 -241.5 -40.5t-61.5 -47.5h349 q71 0 127 13.5t82 29.5t47.5 29.5t32.5 13.5q17 0 34 -27.5t24 -71.5t-4 -97q-19 -76 -83 -111.5t-187 -35.5h-588q-68 0 -100 60.5t-5 150.5z" />
<glyph unicode="&#xbe;" horiz-adv-x="2791" d="M138 783q15 54 69 82t140 28q84 0 138 -34t55 -89q3 -36 -25 -75q47 -13 94 -13q53 0 87.5 22.5t46.5 65.5q16 59 -16.5 86t-94.5 27q-41 0 -64 18t-18 51q4 32 29 45.5t70 13.5q63 2 96 20.5t46 62.5q7 35 1.5 59t-23 39t-38 21.5t-43.5 6.5q-36 0 -52 -4q13 -44 4 -78 q-7 -27 -28.5 -46.5t-59.5 -30.5t-90 -11q-107 0 -166.5 44t-44.5 106q18 69 133 109.5t330 40.5q105 0 194.5 -15t154 -42.5t107.5 -64t58.5 -80.5t3.5 -91q-12 -48 -63 -81t-133 -45q98 -33 135 -82t17 -119q-53 -188 -550 -188q-111 0 -201 13t-149.5 36t-97.5 53.5 t-50 65.5t-2 73zM701.5 -111q-17.5 36 20.5 88l1070 1442q25 33 54 48.5t69 15.5q58 0 75 -36t-21 -89l-1069 -1440q-25 -34 -54 -49.5t-69 -15.5q-58 0 -75.5 36zM1511 263q7 21 31 40t54 34.5t60 32.5t55.5 41t34.5 53q11 31 2 56t-28 53.5t-38.5 51.5t-29 50.5t-0.5 50.5 q35 77 169 77q65 0 129 -24t110 -63t67 -92.5t3 -108.5q-11 -30 -30.5 -55t-44 -44t-64.5 -38t-80.5 -34t-104.5 -35q161 27 352 30l116 343q14 42 45.5 58.5t95.5 16.5h172q57 0 78 -22.5t6 -60.5l-112 -333h74q49 0 71.5 -16.5t16.5 -47.5q-4 -20 -16 -33t-36.5 -20 t-61.5 -7h-90l-26 -75q-8 -26 -3 -43t15 -25.5t17 -19.5t3 -24q-11 -30 -95 -30h-369q-43 0 -63 12t-15 32q4 13 18.5 22t30.5 14.5t33 21.5t26 40l25 73q-122 -4 -281 -17.5t-224 -13.5q-54 0 -82 22.5t-16 56.5z" />
<glyph unicode="&#xbf;" horiz-adv-x="1358" d="M-29 146q-4 49 9 97q14 59 41 103t68.5 78t107.5 60t149 46.5t204 41.5q76 14 105 25.5t36 32.5q4 18 -15 44q-20 23 -17 38q5 20 33 33.5t61 13.5q111 0 171 -63.5t33 -157.5q-12 -41 -41 -75.5t-67 -60.5t-81.5 -50.5t-87.5 -50.5t-81.5 -54.5t-67 -68t-41.5 -86.5 q-11 -52 -2.5 -88.5t33 -59.5t52 -33.5t55.5 -10.5q55 0 98 16q-17 47 -20.5 97.5t4.5 78.5q9 30 23 54.5t34 44.5t45.5 33.5t57.5 21t69 7.5q127 0 194.5 -79t38.5 -194q-20 -85 -96 -146t-194 -91t-268 -30q-82 0 -158.5 12t-139 34t-117.5 53t-94.5 69t-70.5 81t-45 89 t-18 95zM649 961q-2 76 62.5 137.5t161.5 61.5q54 0 97 -21t67 -58t24 -81q2 -73 -62.5 -134t-161.5 -61q-80 0 -134 45t-54 111z" />
<glyph unicode="&#xc0;" horiz-adv-x="1400" d="M-80 80q6 22 27.5 38.5t50.5 30.5t59.5 31t61.5 46.5t50 68.5l357 741q55 115 118.5 184.5t154 106t214.5 36.5q249 0 359 -121.5t51 -322.5l-197 -682q-9 -30 -8.5 -53.5t7 -37t15 -26t16 -20.5t10 -21.5t-3.5 -28.5q-7 -28 -34.5 -39t-83.5 -11h-476q-54 0 -75.5 21 t-6.5 57q7 16 20.5 27.5t28 20t30 20t30.5 34.5t25 57l52 173h-312l-54 -115q-17 -35 -25 -63.5t-8.5 -47t3.5 -33.5t11.5 -23.5t14.5 -18t14 -16t8.5 -18t-1.5 -23.5q-7 -30 -32 -41t-80 -11h-299q-53 0 -77.5 23t-14.5 57zM552 611h281l106 352q19 60 -1.5 93.5 t-70.5 33.5q-49 0 -83 -28t-68 -101zM803 1718q2 33 17.5 58t45 40t69.5 15q64 0 107.5 -38t71.5 -123l50 -159q13 -34 6 -62q-4 -16 -17.5 -26t-30.5 -10q-46 0 -96 40l-117 91q-59 46 -84 84t-22 90z" />
<glyph unicode="&#xc1;" horiz-adv-x="1400" d="M-80 80q6 22 27.5 38.5t50.5 30.5t59.5 31t61.5 46.5t50 68.5l357 741q55 115 118.5 184.5t154 106t214.5 36.5q249 0 359 -121.5t51 -322.5l-197 -682q-9 -30 -8.5 -53.5t7 -37t15 -26t16 -20.5t10 -21.5t-3.5 -28.5q-7 -28 -34.5 -39t-83.5 -11h-476q-54 0 -75.5 21 t-6.5 57q7 16 20.5 27.5t28 20t30 20t30.5 34.5t25 57l52 173h-312l-54 -115q-17 -35 -25 -63.5t-8.5 -47t3.5 -33.5t11.5 -23.5t14.5 -18t14 -16t8.5 -18t-1.5 -23.5q-7 -30 -32 -41t-80 -11h-299q-53 0 -77.5 23t-14.5 57zM552 611h281l106 352q19 60 -1.5 93.5 t-70.5 33.5q-49 0 -83 -28t-68 -101zM1073.5 1442.5q-11.5 27.5 16.5 80.5l86 147q32 56 63.5 90.5t71 52.5t87.5 18q70 0 107.5 -43t26.5 -110q-9 -49 -49 -86.5t-120 -76.5l-175 -84q-39 -16 -64 -16q-39 0 -50.5 27.5z" />
<glyph unicode="&#xc2;" horiz-adv-x="1400" d="M-80 80q6 22 27.5 38.5t50.5 30.5t59.5 31t61.5 46.5t50 68.5l357 741q55 115 118.5 184.5t154 106t214.5 36.5q249 0 359 -121.5t51 -322.5l-197 -682q-9 -30 -8.5 -53.5t7 -37t15 -26t16 -20.5t10 -21.5t-3.5 -28.5q-7 -28 -34.5 -39t-83.5 -11h-476q-54 0 -75.5 21 t-6.5 57q7 16 20.5 27.5t28 20t30 20t30.5 34.5t25 57l52 173h-312l-54 -115q-17 -35 -25 -63.5t-8.5 -47t3.5 -33.5t11.5 -23.5t14.5 -18t14 -16t8.5 -18t-1.5 -23.5q-7 -30 -32 -41t-80 -11h-299q-53 0 -77.5 23t-14.5 57zM552 611h281l106 352q19 60 -1.5 93.5 t-70.5 33.5q-49 0 -83 -28t-68 -101zM811 1502q10 33 42 63l204 193q24 23 50 40t52.5 27t52 11t48.5 -6.5t43 -27.5t34 -52l88 -199q20 -47 13.5 -78t-26.5 -46.5t-49 -15.5q-32 0 -64 18.5t-60 47.5t-61 74l-16 21l-88 -59q-138 -88 -213 -88q-33 0 -46.5 22t-3.5 55z" />
<glyph unicode="&#xc3;" horiz-adv-x="1400" d="M-80 80q6 22 27.5 38.5t50.5 30.5t59.5 31t61.5 46.5t50 68.5l357 741q55 115 118.5 184.5t154 106t214.5 36.5q249 0 359 -121.5t51 -322.5l-197 -682q-9 -30 -8.5 -53.5t7 -37t15 -26t16 -20.5t10 -21.5t-3.5 -28.5q-7 -28 -34.5 -39t-83.5 -11h-476q-54 0 -75.5 21 t-6.5 57q7 16 20.5 27.5t28 20t30 20t30.5 34.5t25 57l52 173h-312l-54 -115q-17 -35 -25 -63.5t-8.5 -47t3.5 -33.5t11.5 -23.5t14.5 -18t14 -16t8.5 -18t-1.5 -23.5q-7 -30 -32 -41t-80 -11h-299q-53 0 -77.5 23t-14.5 57zM552 611h281l106 352q19 60 -1.5 93.5 t-70.5 33.5q-49 0 -83 -28t-68 -101zM774.5 1498q-6.5 39 6.5 92q24 93 97.5 150.5t163.5 57.5q27 0 57 -9.5t55.5 -24t50 -28.5t48.5 -24t44 -10q23 0 44.5 11t34.5 24t27 24t24 11q20 0 26.5 -39t-7.5 -91q-23 -94 -96.5 -151.5t-163.5 -57.5q-37 0 -76 15t-66 33 t-58.5 33.5t-54.5 15.5t-45 -11t-35 -24.5t-27 -24.5t-23 -11q-20 0 -26.5 39z" />
<glyph unicode="&#xc4;" horiz-adv-x="1400" d="M-80 80q6 22 27.5 38.5t50.5 30.5t59.5 31t61.5 46.5t50 68.5l357 741q55 115 118.5 184.5t154 106t214.5 36.5q249 0 359 -121.5t51 -322.5l-197 -682q-9 -30 -8.5 -53.5t7 -37t15 -26t16 -20.5t10 -21.5t-3.5 -28.5q-7 -28 -34.5 -39t-83.5 -11h-476q-54 0 -75.5 21 t-6.5 57q7 16 20.5 27.5t28 20t30 20t30.5 34.5t25 57l52 173h-312l-54 -115q-17 -35 -25 -63.5t-8.5 -47t3.5 -33.5t11.5 -23.5t14.5 -18t14 -16t8.5 -18t-1.5 -23.5q-7 -30 -32 -41t-80 -11h-299q-53 0 -77.5 23t-14.5 57zM552 611h281l106 352q19 60 -1.5 93.5 t-70.5 33.5q-49 0 -83 -28t-68 -101zM724 1595q0 51 25.5 99t75 81t110.5 33q76 0 129 -50t54 -122q2 -85 -59 -152t-153 -67q-77 0 -128.5 51.5t-53.5 126.5zM1174 1595q0 51 25 99t75 81t111 33q76 0 128.5 -50t53.5 -122q2 -85 -59 -152t-154 -67q-76 0 -127 51.5 t-53 126.5z" />
<glyph unicode="&#xc5;" horiz-adv-x="1400" d="M-80 80q6 22 27.5 38.5t50.5 30.5t59.5 31t61.5 46.5t50 68.5l357 741q55 115 118.5 184.5t154 106t214.5 36.5q249 0 359 -121.5t51 -322.5l-197 -682q-9 -30 -8.5 -53.5t7 -37t15 -26t16 -20.5t10 -21.5t-3.5 -28.5q-7 -28 -34.5 -39t-83.5 -11h-476q-54 0 -75.5 21 t-6.5 57q7 16 20.5 27.5t28 20t30 20t30.5 34.5t25 57l52 173h-312l-54 -115q-17 -35 -25 -63.5t-8.5 -47t3.5 -33.5t11.5 -23.5t14.5 -18t14 -16t8.5 -18t-1.5 -23.5q-7 -30 -32 -41t-80 -11h-299q-53 0 -77.5 23t-14.5 57zM552 611h281l106 352q19 60 -1.5 93.5 t-70.5 33.5q-49 0 -83 -28t-68 -101zM929 1612q0 99 75.5 164.5t190.5 65.5q63 0 115 -24t82 -66.5t31 -95.5q1 -102 -75 -170.5t-192 -68.5q-96 0 -160.5 56t-66.5 139zM1124.5 1546.5q4.5 -21.5 26.5 -21.5q25 0 42.5 27.5t30.5 89.5q11 49 6 70.5t-28 21.5 q-17 0 -30 -11.5t-23.5 -36.5t-18.5 -66q-10 -52 -5.5 -73.5z" />
<glyph unicode="&#xc6;" horiz-adv-x="1978" d="M-80 80q6 22 27 38.5t50 30.5t59.5 31t61.5 46.5t51 68.5l348 714q64 129 128.5 198.5t148 99.5t211.5 30h937q92 0 132.5 -46.5t16.5 -128.5l-52 -187q-14 -54 -41 -75t-77 -21q-25 0 -43.5 4.5t-32.5 15.5t-24 28t-17 42l-32 115q-6 24 -13.5 36t-22 18t-42.5 6h-208 l-103 -357h88q15 0 38 20l69 60q30 27 52 38.5t54 11.5q43 0 66.5 -26t11.5 -66l-82 -279q-13 -45 -41.5 -65.5t-62.5 -20.5q-58 0 -84 57l-35 71q-13 30 -44 30h-78l-121 -425h179q38 0 66.5 15t63.5 53l120 132q33 34 61.5 49.5t71.5 15.5q52 0 82 -29.5t13 -89.5 l-59 -203q-23 -75 -64 -105.5t-122 -30.5h-958q-54 0 -75.5 21t-6.5 57q7 16 20.5 27.5t28 20t30 20t30.5 34.5t25 57l52 173h-312l-54 -115q-26 -56 -32 -94t3.5 -56.5t22 -31t21 -27t2.5 -34.5q-7 -30 -32 -41t-80 -11h-299q-53 0 -77.5 23t-14.5 57zM554 611h279l100 337 q18 60 -2 93t-70 33q-49 0 -83 -28t-68 -100z" />
<glyph unicode="&#xc7;" horiz-adv-x="1388" d="M103 504q-4 127 41 285q38 126 98 225.5t127 162.5t146.5 104.5t154.5 58t153 16.5q116 0 203 -33.5t162 -98.5l55 42q55 43 91.5 59t82.5 16q64 0 94 -35.5t8 -95.5l-112 -313q-19 -55 -43.5 -76.5t-74.5 -21.5q-52 0 -85.5 37t-75.5 127q-47 95 -77.5 125t-89.5 30 q-82 0 -158.5 -101t-138.5 -305q-37 -125 -47.5 -220t5.5 -151.5t49 -84.5t82 -28q48 0 91 13.5t74 35t58.5 47.5t49.5 52t42 47.5t41.5 34.5t42.5 13q36 0 76 -36t38 -71q1 -22 -19.5 -61.5t-64 -89t-101 -95.5t-142 -81.5t-175.5 -44.5l-27 -78q63 0 114.5 -33.5t71.5 -88 t-2 -123.5q-29 -81 -114 -126t-213 -45q-66 0 -129.5 15t-111.5 40.5t-83 55.5t-49.5 63t-3.5 61q8 20 28 20q9 0 25.5 -8t38 -19.5t48 -23t63 -19.5t74.5 -8q101 0 118 56q10 34 -10.5 52t-51.5 18q-18 0 -53 -4t-51 -4q-26 0 -35 16.5t-1 37.5l61 173q-107 33 -187 98 t-128.5 162t-52.5 224z" />
<glyph unicode="&#xc8;" horiz-adv-x="1346" d="M-46 78q7 16 20.5 27.5t28.5 20t30.5 20.5t30.5 35t24 56l247 865q6 21 7.5 39.5t-1.5 30.5t-8 23.5t-11.5 19t-11.5 16.5t-9 16.5t-4 18.5t4 23q8 26 36 37t82 11h891q92 0 132.5 -46.5t16.5 -128.5l-52 -187q-7 -28 -17 -46.5t-25 -29.5t-33 -15.5t-43 -4.5 q-50 0 -77 20.5t-40 69.5l-32 115q-5 18 -10 28.5t-14 18t-21.5 10.5t-33.5 3h-210l-100 -357h88q15 0 38 20l69 60q30 27 52 38.5t54 11.5q42 0 65.5 -26t12.5 -66l-82 -279q-13 -45 -41.5 -65.5t-62.5 -20.5q-58 0 -85 57l-34 71q-13 30 -44 30h-78l-119 -425h176 q39 0 67.5 15t63.5 53l120 132q33 34 61.5 49.5t71.5 15.5q52 0 82 -29.5t13 -89.5l-59 -203q-23 -75 -64 -105.5t-122 -30.5h-958q-54 0 -75.5 21t-6.5 57zM611 1718q2 33 17 58t45 40t70 15q64 0 107 -38t71 -123l50 -159q13 -34 6 -62q-4 -16 -17.5 -26t-30.5 -10 q-46 0 -96 40l-117 91q-59 46 -83.5 84t-21.5 90z" />
<glyph unicode="&#xc9;" horiz-adv-x="1346" d="M-46 78q7 16 20.5 27.5t28.5 20t30.5 20.5t30.5 35t24 56l247 865q6 21 7.5 39.5t-1.5 30.5t-8 23.5t-11.5 19t-11.5 16.5t-9 16.5t-4 18.5t4 23q8 26 36 37t82 11h891q92 0 132.5 -46.5t16.5 -128.5l-52 -187q-7 -28 -17 -46.5t-25 -29.5t-33 -15.5t-43 -4.5 q-50 0 -77 20.5t-40 69.5l-32 115q-5 18 -10 28.5t-14 18t-21.5 10.5t-33.5 3h-210l-100 -357h88q15 0 38 20l69 60q30 27 52 38.5t54 11.5q42 0 65.5 -26t12.5 -66l-82 -279q-13 -45 -41.5 -65.5t-62.5 -20.5q-58 0 -85 57l-34 71q-13 30 -44 30h-78l-119 -425h176 q39 0 67.5 15t63.5 53l120 132q33 34 61.5 49.5t71.5 15.5q52 0 82 -29.5t13 -89.5l-59 -203q-23 -75 -64 -105.5t-122 -30.5h-958q-54 0 -75.5 21t-6.5 57zM880.5 1442.5q-11.5 27.5 16.5 80.5l87 147q32 56 63.5 90.5t71 52.5t87.5 18q70 0 107 -43t26 -110 q-9 -49 -49 -86.5t-120 -76.5l-174 -84q-40 -16 -65 -16q-39 0 -50.5 27.5z" />
<glyph unicode="&#xca;" horiz-adv-x="1346" d="M-46 78q7 16 20.5 27.5t28.5 20t30.5 20.5t30.5 35t24 56l247 865q6 21 7.5 39.5t-1.5 30.5t-8 23.5t-11.5 19t-11.5 16.5t-9 16.5t-4 18.5t4 23q8 26 36 37t82 11h891q92 0 132.5 -46.5t16.5 -128.5l-52 -187q-7 -28 -17 -46.5t-25 -29.5t-33 -15.5t-43 -4.5 q-50 0 -77 20.5t-40 69.5l-32 115q-5 18 -10 28.5t-14 18t-21.5 10.5t-33.5 3h-210l-100 -357h88q15 0 38 20l69 60q30 27 52 38.5t54 11.5q42 0 65.5 -26t12.5 -66l-82 -279q-13 -45 -41.5 -65.5t-62.5 -20.5q-58 0 -85 57l-34 71q-13 30 -44 30h-78l-119 -425h176 q39 0 67.5 15t63.5 53l120 132q33 34 61.5 49.5t71.5 15.5q52 0 82 -29.5t13 -89.5l-59 -203q-23 -75 -64 -105.5t-122 -30.5h-958q-54 0 -75.5 21t-6.5 57zM618.5 1502q10.5 33 42.5 63l204 193q36 35 75.5 55t78 23.5t72 -18t53.5 -68.5l88 -199q11 -27 13.5 -50.5 t-2.5 -39.5t-16 -27.5t-25.5 -17t-31.5 -5.5q-47 0 -90 35.5t-94 104.5l-17 21l-88 -59q-138 -88 -213 -88q-33 0 -46.5 22t-3 55z" />
<glyph unicode="&#xcb;" horiz-adv-x="1346" d="M-46 78q7 16 20.5 27.5t28.5 20t30.5 20.5t30.5 35t24 56l247 865q6 21 7.5 39.5t-1.5 30.5t-8 23.5t-11.5 19t-11.5 16.5t-9 16.5t-4 18.5t4 23q8 26 36 37t82 11h891q92 0 132.5 -46.5t16.5 -128.5l-52 -187q-7 -28 -17 -46.5t-25 -29.5t-33 -15.5t-43 -4.5 q-50 0 -77 20.5t-40 69.5l-32 115q-5 18 -10 28.5t-14 18t-21.5 10.5t-33.5 3h-210l-100 -357h88q15 0 38 20l69 60q30 27 52 38.5t54 11.5q42 0 65.5 -26t12.5 -66l-82 -279q-13 -45 -41.5 -65.5t-62.5 -20.5q-58 0 -85 57l-34 71q-13 30 -44 30h-78l-119 -425h176 q39 0 67.5 15t63.5 53l120 132q33 34 61.5 49.5t71.5 15.5q52 0 82 -29.5t13 -89.5l-59 -203q-23 -75 -64 -105.5t-122 -30.5h-958q-54 0 -75.5 21t-6.5 57zM532 1595q0 51 25 99t75 81t111 33q50 0 91.5 -23t65.5 -62.5t25 -86.5q2 -85 -59 -152t-154 -67 q-75 0 -126.5 51.5t-53.5 126.5zM981 1595q0 51 25.5 99t75 81t111.5 33q76 0 128 -50t54 -122q1 -85 -59.5 -152t-153.5 -67q-76 0 -128 51.5t-53 126.5z" />
<glyph unicode="&#xcc;" horiz-adv-x="810" d="M-46 78q7 16 20.5 27.5t28.5 20t30.5 20.5t30.5 35t24 56l245 865q10 33 8 59t-11 39t-18 28t-13.5 26.5t2.5 34.5q7 26 35 37t83 11h472q54 0 75.5 -21t6.5 -56q-7 -16 -20.5 -28t-29 -20.5t-31.5 -20t-31 -34t-24 -55.5l-243 -865q-10 -34 -8 -60t11.5 -39.5t18.5 -28 t14 -26t-2 -33.5q-8 -28 -36 -39t-84 -11h-472q-54 0 -75.5 21t-6.5 57zM369 1718q4 50 38.5 81.5t94.5 31.5q64 0 107 -38t71 -123l50 -159q13 -36 7 -62q-4 -16 -18 -26t-31 -10q-46 0 -96 40l-117 91q-59 46 -83.5 84t-22.5 90z" />
<glyph unicode="&#xcd;" horiz-adv-x="810" d="M-46 78q7 16 20.5 27.5t28.5 20t30.5 20.5t30.5 35t24 56l245 865q10 33 8 59t-11 39t-18 28t-13.5 26.5t2.5 34.5q7 26 35 37t83 11h472q54 0 75.5 -21t6.5 -56q-7 -16 -20.5 -28t-29 -20.5t-31.5 -20t-31 -34t-24 -55.5l-243 -865q-10 -34 -8 -60t11.5 -39.5t18.5 -28 t14 -26t-2 -33.5q-8 -28 -36 -39t-84 -11h-472q-54 0 -75.5 21t-6.5 57zM640.5 1442.5q-11.5 27.5 16.5 80.5l86 147q47 84 99 122.5t123 38.5q70 0 107 -43t26 -110q-9 -49 -49 -86.5t-120 -76.5l-174 -84q-40 -16 -64 -16q-39 0 -50.5 27.5z" />
<glyph unicode="&#xce;" horiz-adv-x="810" d="M-46 78q7 16 20.5 27.5t28.5 20t30.5 20.5t30.5 35t24 56l245 865q10 33 8 59t-11 39t-18 28t-13.5 26.5t2.5 34.5q7 26 35 37t83 11h472q54 0 75.5 -21t6.5 -56q-7 -16 -20.5 -28t-29 -20.5t-31.5 -20t-31 -34t-24 -55.5l-243 -865q-10 -34 -8 -60t11.5 -39.5t18.5 -28 t14 -26t-2 -33.5q-8 -28 -36 -39t-84 -11h-472q-54 0 -75.5 21t-6.5 57zM377.5 1502q10.5 33 41.5 63l205 193q36 35 76 55t78 23.5t71.5 -18t54.5 -68.5l88 -199q14 -33 14.5 -61t-10.5 -44.5t-28.5 -25.5t-38.5 -9q-16 0 -32 4.5t-31.5 13.5t-30.5 20.5t-30 28t-29.5 34 t-30.5 39.5l-17 21l-88 -59q-138 -88 -213 -88q-33 0 -46.5 22t-3 55z" />
<glyph unicode="&#xcf;" horiz-adv-x="810" d="M-46 78q7 16 20.5 27.5t28.5 20t30.5 20.5t30.5 35t24 56l245 865q10 33 8 59t-11 39t-18 28t-13.5 26.5t2.5 34.5q7 26 35 37t83 11h472q54 0 75.5 -21t6.5 -56q-7 -16 -20.5 -28t-29 -20.5t-31.5 -20t-31 -34t-24 -55.5l-243 -865q-10 -34 -8 -60t11.5 -39.5t18.5 -28 t14 -26t-2 -33.5q-8 -28 -36 -39t-84 -11h-472q-54 0 -75.5 21t-6.5 57zM291 1595q0 38 15 75.5t41.5 68t67 50t87.5 19.5q76 0 128.5 -50t53.5 -122q2 -85 -59 -152t-154 -67q-76 0 -127 51.5t-53 126.5zM741 1595q0 51 25 99t74.5 81t111.5 33q76 0 128 -50t54 -122 q1 -85 -59.5 -152t-153.5 -67q-76 0 -127.5 51.5t-52.5 126.5z" />
<glyph unicode="&#xd0;" horiz-adv-x="1524" d="M-71 80q8 17 21.5 28.5t28.5 20t30.5 20t30.5 34.5t25 56l90 319l-79 -6q-48 -5 -69 21t-9 71q23 84 126 93l83 8l102 357q9 33 7 59t-10.5 39t-17.5 28t-13.5 26.5t2.5 34.5q8 26 35 37t83 11h542q380 0 522.5 -181.5t43.5 -527.5q-40 -139 -94 -240.5t-130 -177.5 t-179.5 -121.5t-236 -67.5t-305.5 -21l-546 2q-54 0 -75.5 21.5t-7.5 56.5zM556 180h48q38 0 69 6t62 20t56.5 38.5t51.5 61.5t49.5 89t48 120.5t49.5 156.5q28 100 41.5 177t11 129.5t-14 88t-36 55t-53.5 27t-68 7.5h-44l-103 -367l109 10q50 4 70.5 -21.5t9.5 -70.5 q-25 -84 -126 -93l-113 -10z" />
<glyph unicode="&#xd1;" horiz-adv-x="1458" d="M-44 73q5 18 18 31t28.5 22t32 20.5t32.5 34.5t25 56l255 901l-31 66q-23 47 -20 76.5t23.5 43t55.5 13.5h297q44 0 74 -15t50 -41t45 -77l293 -588l138 484q7 24 7 45t-5.5 34t-13 25t-16 20t-14.5 18t-8.5 19.5t2.5 25.5q9 28 37 39t84 11h218q50 0 70 -20t10 -53 q-5 -18 -18 -31t-28.5 -22t-32 -20.5t-32 -34.5t-25.5 -56l-249 -891q-34 -121 -84.5 -169t-141.5 -48q-82 0 -134.5 47t-98.5 145l-303 639l-169 -586q-8 -29 -6.5 -52t9 -36t17.5 -26t18.5 -22t11.5 -22.5t-2 -28.5q-8 -28 -36 -39t-84 -11h-219q-49 0 -69 20t-11 53z M664 1498q-7 39 6 92q16 62 55.5 109.5t93 73t112.5 25.5q28 0 58 -9.5t55.5 -24t49.5 -28.5t48.5 -24t43.5 -10q23 0 44.5 11t35 24t27 24t23.5 11q21 0 27 -39t-8 -91q-23 -94 -96 -151.5t-163 -57.5q-37 0 -76 15t-66 33t-58.5 33.5t-54.5 15.5t-44.5 -11t-34.5 -24.5 t-27 -24.5t-24 -11q-20 0 -27 39z" />
<glyph unicode="&#xd2;" d="M100 289.5q-46 155.5 15 384.5q43 168 126.5 300t196 218t249 130.5t290.5 44.5q205 0 338 -78.5t179.5 -232.5t-11.5 -382q-45 -169 -130 -302t-197.5 -219.5t-249.5 -131.5t-290 -45q-205 0 -337.5 79t-178.5 234.5zM556.5 268q1.5 -61 24 -87t68.5 -26 q88 0 154.5 111.5t150.5 394.5q41 145 60.5 240.5t18 156.5t-23.5 86.5t-67 25.5q-61 0 -109.5 -48.5t-95 -158t-101.5 -302.5q-42 -143 -61.5 -237.5t-18 -155.5zM697 1718q3 50 37.5 81.5t94.5 31.5q64 0 107 -38t71 -123l50 -159q13 -34 6 -62q-4 -16 -17.5 -26 t-30.5 -10q-46 0 -96 40l-116 91q-60 46 -84.5 84t-21.5 90z" />
<glyph unicode="&#xd3;" d="M100 289.5q-46 155.5 15 384.5q43 168 126.5 300t196 218t249 130.5t290.5 44.5q205 0 338 -78.5t179.5 -232.5t-11.5 -382q-45 -169 -130 -302t-197.5 -219.5t-249.5 -131.5t-290 -45q-205 0 -337.5 79t-178.5 234.5zM556.5 268q1.5 -61 24 -87t68.5 -26 q88 0 154.5 111.5t150.5 394.5q41 145 60.5 240.5t18 156.5t-23.5 86.5t-67 25.5q-61 0 -109.5 -48.5t-95 -158t-101.5 -302.5q-42 -143 -61.5 -237.5t-18 -155.5zM967.5 1442.5q-11.5 27.5 16.5 80.5l86 147q32 56 64 90.5t71 52.5t88 18q69 0 106.5 -43t25.5 -110 q-4 -20 -12.5 -38t-22 -34t-33.5 -31.5t-44.5 -30t-56.5 -29.5l-174 -84q-39 -16 -65 -16q-38 0 -49.5 27.5z" />
<glyph unicode="&#xd4;" d="M100 289.5q-46 155.5 15 384.5q43 168 126.5 300t196 218t249 130.5t290.5 44.5q205 0 338 -78.5t179.5 -232.5t-11.5 -382q-45 -169 -130 -302t-197.5 -219.5t-249.5 -131.5t-290 -45q-205 0 -337.5 79t-178.5 234.5zM556.5 268q1.5 -61 24 -87t68.5 -26 q88 0 154.5 111.5t150.5 394.5q41 145 60.5 240.5t18 156.5t-23.5 86.5t-67 25.5q-61 0 -109.5 -48.5t-95 -158t-101.5 -302.5q-42 -143 -61.5 -237.5t-18 -155.5zM704.5 1502q10.5 33 42.5 63l205 193q36 35 75.5 55t77.5 23.5t71.5 -18t53.5 -68.5l89 -199 q20 -47 13.5 -78t-27 -46.5t-49.5 -15.5q-32 0 -64 18.5t-59 47.5t-61 74l-17 21l-88 -59q-138 -88 -212 -88q-34 0 -47.5 22t-3 55z" />
<glyph unicode="&#xd5;" d="M100 289.5q-46 155.5 15 384.5q43 168 126.5 300t196 218t249 130.5t290.5 44.5q205 0 338 -78.5t179.5 -232.5t-11.5 -382q-45 -169 -130 -302t-197.5 -219.5t-249.5 -131.5t-290 -45q-205 0 -337.5 79t-178.5 234.5zM556.5 268q1.5 -61 24 -87t68.5 -26 q88 0 154.5 111.5t150.5 394.5q41 145 60.5 240.5t18 156.5t-23.5 86.5t-67 25.5q-61 0 -109.5 -48.5t-95 -158t-101.5 -302.5q-42 -143 -61.5 -237.5t-18 -155.5zM750.5 1498q-6.5 39 6.5 92q24 93 97 150.5t163 57.5q28 0 58 -9.5t55.5 -24t49.5 -28.5t48.5 -24t43.5 -10 q23 0 45 11t35 24t27.5 24t23.5 11q21 0 26.5 -39t-8.5 -91q-22 -94 -95 -151.5t-164 -57.5q-36 0 -75 15t-66.5 33t-58.5 33.5t-54.5 15.5t-45 -11t-34.5 -24.5t-27 -24.5t-24 -11q-20 0 -26.5 39z" />
<glyph unicode="&#xd6;" d="M100 289.5q-46 155.5 15 384.5q43 168 126.5 300t196 218t249 130.5t290.5 44.5q205 0 338 -78.5t179.5 -232.5t-11.5 -382q-45 -169 -130 -302t-197.5 -219.5t-249.5 -131.5t-290 -45q-205 0 -337.5 79t-178.5 234.5zM556.5 268q1.5 -61 24 -87t68.5 -26 q88 0 154.5 111.5t150.5 394.5q41 145 60.5 240.5t18 156.5t-23.5 86.5t-67 25.5q-61 0 -109.5 -48.5t-95 -158t-101.5 -302.5q-42 -143 -61.5 -237.5t-18 -155.5zM618 1595q0 51 25.5 99t75 81t110.5 33q76 0 128.5 -50t53.5 -122q2 -85 -59 -152t-153 -67 q-76 0 -127.5 51.5t-53.5 126.5zM1068 1595q0 38 15.5 75.5t42 68t67 50t86.5 19.5q76 0 128.5 -50t53.5 -122q2 -85 -59 -152t-153 -67q-38 0 -71.5 14t-57 38t-37.5 56.5t-15 69.5z" />
<glyph unicode="&#xd7;" horiz-adv-x="1329" d="M121 383q7 26 26.5 48t57.5 48l341 222l-178 184q-43 44 -57.5 77t-3.5 74q9 34 37 55t66 21q28 0 54.5 -15.5t59.5 -48.5l215 -221l383 247q61 40 108 40q34 0 60.5 -19.5t37 -51t1.5 -66.5q-9 -29 -27.5 -48.5t-58.5 -45.5l-343 -222l182 -188q79 -82 60 -152 q-10 -33 -38.5 -52.5t-61.5 -19.5q-54 0 -125 70l-210 217l-382 -247q-58 -40 -108 -40q-54 0 -82.5 41t-13.5 93z" />
<glyph unicode="&#xd8;" horiz-adv-x="1532" d="M16 98q3 18 10 32.5t20 30t34 32.5l60 50q-72 173 -2 431q29 113 76.5 210t109.5 173t137.5 134.5t161.5 97t181.5 58.5t197.5 20q241 0 385 -111l80 67q42 33 77 33q45 0 68.5 -38.5t15.5 -76.5q-3 -18 -11.5 -32.5t-19 -25t-30.5 -27.5l-64 -53q72 -171 4 -429 q-45 -169 -129.5 -302t-197.5 -219.5t-250 -131.5t-290 -45q-243 0 -383 110l-81 -66q-45 -34 -84 -34q-35 0 -59.5 37.5t-16.5 74.5zM588 355q-17 -107 4 -153.5t80 -46.5q88 0 154.5 111.5t150.5 394.5q1 0 7 17zM662 666l390 318q11 100 -9.5 143t-77.5 43 q-61 0 -109 -48.5t-93.5 -156t-100.5 -299.5z" />
<glyph unicode="&#xd9;" horiz-adv-x="1580" d="M173 344.5q-5 94.5 32 217.5l153 540q9 33 7 59.5t-10.5 40.5t-17.5 29t-13.5 26t1.5 32q9 26 36 37t83 11h471q53 0 73.5 -19t11.5 -54q-6 -18 -18.5 -30.5t-28.5 -21.5t-32.5 -20.5t-32 -34.5t-25.5 -55l-175 -614q-18 -70 -19 -118t18 -77.5t50 -42.5t77 -13 q89 0 148.5 57.5t98.5 195.5l165 575q19 67 43 116t59 87t84.5 57.5t112.5 19.5q76 0 130 -40.5t73 -105.5t0 -138q-12 -45 -34 -78.5t-49.5 -52t-56.5 -27t-60 -8.5q-48 0 -113 18l-118 -436q-32 -117 -82.5 -205t-125.5 -153t-179.5 -98t-237.5 -33q-113 0 -201.5 20.5 t-156 63.5t-102 110.5t-39.5 162zM808 1718q2 33 18 58t46 40t70 15q64 0 107 -38t71 -123l50 -159q13 -34 6 -62q-4 -16 -17.5 -26t-30.5 -10q-46 0 -96 40l-117 91q-59 46 -84 84t-23 90z" />
<glyph unicode="&#xda;" horiz-adv-x="1580" d="M173 344.5q-5 94.5 32 217.5l153 540q9 33 7 59.5t-10.5 40.5t-17.5 29t-13.5 26t1.5 32q9 26 36 37t83 11h471q53 0 73.5 -19t11.5 -54q-6 -18 -18.5 -30.5t-28.5 -21.5t-32.5 -20.5t-32 -34.5t-25.5 -55l-175 -614q-18 -70 -19 -118t18 -77.5t50 -42.5t77 -13 q89 0 148.5 57.5t98.5 195.5l165 575q19 67 43 116t59 87t84.5 57.5t112.5 19.5q76 0 130 -40.5t73 -105.5t0 -138q-12 -45 -34 -78.5t-49.5 -52t-56.5 -27t-60 -8.5q-48 0 -113 18l-118 -436q-32 -117 -82.5 -205t-125.5 -153t-179.5 -98t-237.5 -33q-113 0 -201.5 20.5 t-156 63.5t-102 110.5t-39.5 162zM1079.5 1442.5q-11.5 27.5 16.5 80.5l86 147q47 84 99 122.5t124 38.5q70 0 107 -43t26 -110q-9 -49 -49 -86.5t-120 -76.5l-174 -84q-40 -16 -65 -16q-39 0 -50.5 27.5z" />
<glyph unicode="&#xdb;" horiz-adv-x="1580" d="M173 344.5q-5 94.5 32 217.5l153 540q9 33 7 59.5t-10.5 40.5t-17.5 29t-13.5 26t1.5 32q9 26 36 37t83 11h471q53 0 73.5 -19t11.5 -54q-6 -18 -18.5 -30.5t-28.5 -21.5t-32.5 -20.5t-32 -34.5t-25.5 -55l-175 -614q-18 -70 -19 -118t18 -77.5t50 -42.5t77 -13 q89 0 148.5 57.5t98.5 195.5l165 575q19 67 43 116t59 87t84.5 57.5t112.5 19.5q76 0 130 -40.5t73 -105.5t0 -138q-12 -45 -34 -78.5t-49.5 -52t-56.5 -27t-60 -8.5q-48 0 -113 18l-118 -436q-32 -117 -82.5 -205t-125.5 -153t-179.5 -98t-237.5 -33q-113 0 -201.5 20.5 t-156 63.5t-102 110.5t-39.5 162zM817.5 1502q10.5 33 41.5 63l204 193q29 28 60 46.5t63 26.5t61 3.5t54 -25.5t42 -59l88 -199q20 -47 13.5 -78t-26.5 -46.5t-49 -15.5q-32 0 -64 18.5t-60 47.5t-61 74l-16 21l-88 -59q-138 -88 -213 -88q-33 0 -46.5 22t-3 55z" />
<glyph unicode="&#xdc;" horiz-adv-x="1580" d="M173 344.5q-5 94.5 32 217.5l153 540q9 33 7 59.5t-10.5 40.5t-17.5 29t-13.5 26t1.5 32q9 26 36 37t83 11h471q53 0 73.5 -19t11.5 -54q-6 -18 -18.5 -30.5t-28.5 -21.5t-32.5 -20.5t-32 -34.5t-25.5 -55l-175 -614q-18 -70 -19 -118t18 -77.5t50 -42.5t77 -13 q89 0 148.5 57.5t98.5 195.5l165 575q19 67 43 116t59 87t84.5 57.5t112.5 19.5q76 0 130 -40.5t73 -105.5t0 -138q-12 -45 -34 -78.5t-49.5 -52t-56.5 -27t-60 -8.5q-48 0 -113 18l-118 -436q-32 -117 -82.5 -205t-125.5 -153t-179.5 -98t-237.5 -33q-113 0 -201.5 20.5 t-156 63.5t-102 110.5t-39.5 162zM730 1595q0 37 15.5 75t42 68.5t67 50t87.5 19.5q76 0 128.5 -50t53.5 -122q2 -85 -59 -152t-154 -67q-76 0 -127.5 51.5t-53.5 126.5zM1180 1595q0 51 25 99t74.5 81t111.5 33q76 0 128.5 -50t54.5 -122q1 -85 -59.5 -152t-153.5 -67 q-76 0 -128 51.5t-53 126.5z" />
<glyph unicode="&#xdd;" horiz-adv-x="1582" d="M259 1295q9 42 80 42h536q70 0 96.5 -12t28.5 -42q0 -20 -13.5 -39.5t-28 -33.5t-23 -38.5t-0.5 -53.5l93 -354l255 364q82 117 155 167t163 50q99 0 157 -71.5t40 -175.5q-17 -97 -75.5 -143t-136.5 -46q-52 0 -89 16.5t-68 53.5l-331 -431l-93 -311q-8 -34 -1 -55.5 t23 -39.5t32.5 -30t27 -28t5.5 -34q-9 -28 -39 -39t-86 -11h-505q-52 0 -77 19t-17 54q4 17 16 30t28 22.5t32 21.5t32 35t26 55l92 313l-184 526q-16 45 -39 78t-43.5 49t-38 29.5t-26 28t-4.5 34.5zM1083.5 1442.5q-11.5 27.5 16.5 80.5l86 147q47 84 99 122.5t124 38.5 q70 0 107 -43t26 -110q-9 -49 -49 -86.5t-120 -76.5l-174 -84q-40 -16 -65 -16q-39 0 -50.5 27.5z" />
<glyph unicode="&#xde;" horiz-adv-x="1390" d="M-46 78q7 16 20.5 27.5t28.5 20t30.5 20.5t30.5 35t24 56l245 865q10 33 8 59t-11 39t-18 28t-13.5 26.5t2.5 34.5q7 26 35 37t83 11h472q54 0 75.5 -21t6.5 -56q-7 -16 -20.5 -28t-29 -20.5t-31.5 -20t-31 -34t-24 -55.5l-18 -62h257q104 0 182.5 -18t127.5 -51.5 t76 -81.5t28 -107.5t-17 -128.5q-48 -173 -192 -251.5t-408 -78.5h-255l-24 -86q-10 -34 -8 -60t11.5 -39.5t18.5 -28t14 -26t-2 -33.5q-8 -28 -36 -39t-84 -11h-472q-54 0 -75.5 21t-6.5 57zM668 504h107q50 0 88.5 19.5t65.5 59t44 99.5q26 90 1.5 133.5t-99.5 43.5h-107z " />
<glyph unicode="&#xdf;" horiz-adv-x="1444" d="M-92 62q-8 -28 15.5 -45t76.5 -17h458q63 0 93 12t39 38q4 14 -3.5 25.5t-19.5 20t-23 23.5t-14.5 35t6.5 55l253 823q24 80 55.5 113t72.5 33q24 0 40.5 -15.5t21 -47.5t-11.5 -81q-15 -50 -42 -95t-50 -71.5t-44.5 -56t-27.5 -52.5q-7 -23 6 -52t35 -57t41.5 -68 t25.5 -85t-11 -108q-18 -57 -58 -88t-87 -31q-29 0 -55 9.5t-28 9.5q-18 0 -30 -38q-14 -46 0.5 -92t52 -83.5t105 -60.5t152.5 -23q160 0 280.5 86.5t156.5 226.5q19 76 11 140.5t-32.5 113.5t-57.5 89t-63.5 67.5t-49.5 49.5t-15 34q3 11 26.5 23t56 25t66.5 30t63.5 45.5 t40.5 63.5q21 66 -3.5 128.5t-89 112t-179 80t-261.5 30.5q-136 0 -236.5 -19.5t-182.5 -64t-137.5 -120.5t-88.5 -187l-223 -733q-7 -25 -17 -43.5t-20.5 -29.5t-21.5 -19.5t-21.5 -14t-19 -11t-16 -14t-10.5 -19.5z" />
<glyph unicode="&#xe0;" horiz-adv-x="1312" d="M-6.5 263q-4.5 40 6.5 78q21 94 80.5 158.5t139 92.5t175.5 28q170 0 327 -52l50 133q27 87 27 130q-2 49 -32 72.5t-93 23.5q9 -24 11 -49t-2.5 -49.5t-15 -47t-29 -41t-42.5 -32.5t-56.5 -22t-70.5 -8q-97 0 -152 42.5t-56 106.5q-1 37 14.5 70.5t50.5 64t87 52.5 t129.5 34.5t173.5 12.5q106 0 192.5 -17.5t156 -55t108.5 -95.5t49 -139.5t-22 -187.5l-82 -277q-6 -24 0.5 -38t23.5 -14q16 0 29.5 10.5t21.5 21t13 10.5q10 0 17 -14t7 -32q1 -40 -23.5 -83t-66 -77.5t-101 -56.5t-124.5 -22q-104 0 -178.5 38.5t-102.5 111.5 q-61 -72 -143 -111t-175 -39q-63 0 -115.5 15.5t-88.5 41t-63.5 60t-39 73.5t-16 79zM480 297.5q3 -22.5 18 -37.5t38 -15q26 0 56.5 21t45.5 63l42 119q-34 6 -76 6q-47 0 -78.5 -31t-43.5 -76q-5 -27 -2 -49.5zM558 1415q1 25 10.5 45.5t26 35.5t41.5 23.5t55 8.5 q64 0 107 -38t71 -123l50 -159q13 -34 6 -62q-4 -17 -17.5 -26.5t-30.5 -9.5q-46 0 -96 41l-117 90q-59 46 -84 84t-22 90z" />
<glyph unicode="&#xe1;" horiz-adv-x="1312" d="M-6.5 263q-4.5 40 6.5 78q21 94 80.5 158.5t139 92.5t175.5 28q170 0 327 -52l50 133q27 87 27 130q-2 49 -32 72.5t-93 23.5q9 -24 11 -49t-2.5 -49.5t-15 -47t-29 -41t-42.5 -32.5t-56.5 -22t-70.5 -8q-97 0 -152 42.5t-56 106.5q-1 37 14.5 70.5t50.5 64t87 52.5 t129.5 34.5t173.5 12.5q106 0 192.5 -17.5t156 -55t108.5 -95.5t49 -139.5t-22 -187.5l-82 -277q-6 -24 0.5 -38t23.5 -14q16 0 29.5 10.5t21.5 21t13 10.5q10 0 17 -14t7 -32q1 -40 -23.5 -83t-66 -77.5t-101 -56.5t-124.5 -22q-104 0 -178.5 38.5t-102.5 111.5 q-61 -72 -143 -111t-175 -39q-63 0 -115.5 15.5t-88.5 41t-63.5 60t-39 73.5t-16 79zM480 297.5q3 -22.5 18 -37.5t38 -15q26 0 56.5 21t45.5 63l42 119q-34 6 -76 6q-47 0 -78.5 -31t-43.5 -76q-5 -27 -2 -49.5zM828.5 1139.5q-11.5 27.5 16.5 80.5l86 147q32 56 64 90.5 t71.5 52.5t87.5 18q70 0 107 -43t26 -110q-9 -49 -49 -86.5t-120 -76.5l-174 -84q-39 -16 -65 -16q-39 0 -50.5 27.5z" />
<glyph unicode="&#xe2;" horiz-adv-x="1312" d="M-6.5 263q-4.5 40 6.5 78q21 94 80.5 158.5t139 92.5t175.5 28q170 0 327 -52l50 133q27 87 27 130q-2 49 -32 72.5t-93 23.5q9 -24 11 -49t-2.5 -49.5t-15 -47t-29 -41t-42.5 -32.5t-56.5 -22t-70.5 -8q-97 0 -152 42.5t-56 106.5q-1 37 14.5 70.5t50.5 64t87 52.5 t129.5 34.5t173.5 12.5q106 0 192.5 -17.5t156 -55t108.5 -95.5t49 -139.5t-22 -187.5l-82 -277q-6 -24 0.5 -38t23.5 -14q16 0 29.5 10.5t21.5 21t13 10.5q10 0 17 -14t7 -32q1 -40 -23.5 -83t-66 -77.5t-101 -56.5t-124.5 -22q-104 0 -178.5 38.5t-102.5 111.5 q-61 -72 -143 -111t-175 -39q-63 0 -115.5 15.5t-88.5 41t-63.5 60t-39 73.5t-16 79zM480 297.5q3 -22.5 18 -37.5t38 -15q26 0 56.5 21t45.5 63l42 119q-34 6 -76 6q-47 0 -78.5 -31t-43.5 -76q-5 -27 -2 -49.5zM566.5 1199q10.5 33 42.5 63l203 193q36 35 76 55t78 23.5 t72 -18t54 -68.5l88 -198q20 -48 13.5 -79t-26.5 -47t-49 -16q-47 0 -90.5 36t-94.5 106l-16 19l-88 -58q-138 -88 -213 -88q-33 0 -46.5 22t-3 55z" />
<glyph unicode="&#xe3;" horiz-adv-x="1312" d="M-6.5 263q-4.5 40 6.5 78q21 94 80.5 158.5t139 92.5t175.5 28q170 0 327 -52l50 133q27 87 27 130q-2 49 -32 72.5t-93 23.5q9 -24 11 -49t-2.5 -49.5t-15 -47t-29 -41t-42.5 -32.5t-56.5 -22t-70.5 -8q-97 0 -152 42.5t-56 106.5q-1 37 14.5 70.5t50.5 64t87 52.5 t129.5 34.5t173.5 12.5q106 0 192.5 -17.5t156 -55t108.5 -95.5t49 -139.5t-22 -187.5l-82 -277q-6 -24 0.5 -38t23.5 -14q16 0 29.5 10.5t21.5 21t13 10.5q10 0 17 -14t7 -32q1 -40 -23.5 -83t-66 -77.5t-101 -56.5t-124.5 -22q-104 0 -178.5 38.5t-102.5 111.5 q-61 -72 -143 -111t-175 -39q-63 0 -115.5 15.5t-88.5 41t-63.5 60t-39 73.5t-16 79zM480 297.5q3 -22.5 18 -37.5t38 -15q26 0 56.5 21t45.5 63l42 119q-34 6 -76 6q-47 0 -78.5 -31t-43.5 -76q-5 -27 -2 -49.5zM529.5 1195q-6.5 39 6.5 92q12 46 38 85.5t60.5 66.5 t76.5 41.5t86 14.5q33 0 71.5 -15t67 -33t60.5 -33.5t55.5 -15.5t45 11.5t34.5 24.5t27 24t24 11q20 0 26.5 -38.5t-8.5 -91.5q-22 -94 -95 -151.5t-163 -57.5q-37 0 -76 15t-66.5 33t-59 33t-54.5 15q-19 0 -36.5 -7t-30.5 -17.5t-24 -20.5t-21 -17.5t-18 -7.5 q-20 0 -26.5 39z" />
<glyph unicode="&#xe4;" horiz-adv-x="1312" d="M-6.5 263q-4.5 40 6.5 78q21 94 80.5 158.5t139 92.5t175.5 28q170 0 327 -52l50 133q27 87 27 130q-2 49 -32 72.5t-93 23.5q9 -24 11 -49t-2.5 -49.5t-15 -47t-29 -41t-42.5 -32.5t-56.5 -22t-70.5 -8q-97 0 -152 42.5t-56 106.5q-1 37 14.5 70.5t50.5 64t87 52.5 t129.5 34.5t173.5 12.5q106 0 192.5 -17.5t156 -55t108.5 -95.5t49 -139.5t-22 -187.5l-82 -277q-6 -24 0.5 -38t23.5 -14q16 0 29.5 10.5t21.5 21t13 10.5q10 0 17 -14t7 -32q1 -40 -23.5 -83t-66 -77.5t-101 -56.5t-124.5 -22q-104 0 -178.5 38.5t-102.5 111.5 q-61 -72 -143 -111t-175 -39q-63 0 -115.5 15.5t-88.5 41t-63.5 60t-39 73.5t-16 79zM479 1293q0 50 25.5 98t75.5 81t111 33q76 0 128.5 -50t53.5 -122q2 -84 -59 -151.5t-153 -67.5q-77 0 -128.5 51.5t-53.5 127.5zM480 297.5q3 -22.5 18 -37.5t38 -15q26 0 56.5 21 t45.5 63l42 119q-34 6 -76 6q-47 0 -78.5 -31t-43.5 -76q-5 -27 -2 -49.5zM929 1293q0 50 25 98t75 81t111 33q76 0 129 -50t54 -122q2 -84 -59 -151.5t-154 -67.5q-76 0 -127.5 51.5t-53.5 127.5z" />
<glyph unicode="&#xe5;" horiz-adv-x="1312" d="M-6.5 263q-4.5 40 6.5 78q21 94 80.5 158.5t139 92.5t175.5 28q170 0 327 -52l50 133q27 87 27 130q-2 49 -32 72.5t-93 23.5q9 -24 11 -49t-2.5 -49.5t-15 -47t-29 -41t-42.5 -32.5t-56.5 -22t-70.5 -8q-97 0 -152 42.5t-56 106.5q-1 37 14.5 70.5t50.5 64t87 52.5 t129.5 34.5t173.5 12.5q106 0 192.5 -17.5t156 -55t108.5 -95.5t49 -139.5t-22 -187.5l-82 -277q-6 -24 0.5 -38t23.5 -14q16 0 29.5 10.5t21.5 21t13 10.5q10 0 17 -14t7 -32q1 -40 -23.5 -83t-66 -77.5t-101 -56.5t-124.5 -22q-104 0 -178.5 38.5t-102.5 111.5 q-61 -72 -143 -111t-175 -39q-63 0 -115.5 15.5t-88.5 41t-63.5 60t-39 73.5t-16 79zM480 297.5q3 -22.5 18 -37.5t38 -15q26 0 56.5 21t45.5 63l42 119q-34 6 -76 6q-47 0 -78.5 -31t-43.5 -76q-5 -27 -2 -49.5zM684 1308q0 100 75.5 166t190.5 66q63 0 115 -24.5t82 -67.5 t31 -96q1 -102 -75 -170t-192 -68q-96 0 -160.5 55.5t-66.5 138.5zM879.5 1243.5q4.5 -21.5 26.5 -21.5q25 0 42.5 27.5t30.5 89.5q11 50 6 71t-28 21q-26 0 -43 -27t-29 -88q-10 -51 -5.5 -72.5z" />
<glyph unicode="&#xe6;" horiz-adv-x="1815" d="M-7 282.5q0 29.5 7 58.5q21 94 80.5 158.5t139 92.5t175.5 28q180 0 327 -52l44 114q33 86 33 149q-2 49 -32 72.5t-93 23.5q9 -24 11 -49t-2.5 -49.5t-15 -47t-29 -41t-42.5 -32.5t-56.5 -22t-70.5 -8q-97 0 -152 42.5t-56 106.5q-1 37 14.5 70.5t50.5 64t87 52.5 t129.5 34.5t173.5 12.5q200 0 330 -61q142 72 327 72q78 0 144 -8.5t115 -24t88 -36.5t64.5 -47t42 -54.5t23.5 -61t6.5 -64t-8.5 -64.5q-16 -70 -68.5 -121.5t-122 -78t-156 -38t-166 -10t-155.5 12.5q-1 -54 15 -92t47 -58t69 -29t87 -9q33 0 70.5 6.5t68.5 16t59 19 t50.5 16t33.5 6.5q22 0 22 -26q1 -40 -16.5 -84t-57 -88.5t-95.5 -80t-139.5 -58t-181.5 -22.5q-276 0 -389 134q-184 -134 -407 -134q-66 0 -122.5 8.5t-99 24.5t-76.5 37t-57 47t-38.5 54t-22.5 58t-7 59.5zM470.5 231.5q14.5 -40.5 59.5 -40.5q55 0 84 72l62 179 q-29 12 -72 12q-30 0 -53.5 -12.5t-42 -38.5t-31.5 -66q-21 -65 -6.5 -105.5zM1195 598q39 -5 72 8t55 38t37 59.5t21.5 71t6.5 74.5q-3 57 -33 57q-34 0 -82 -83t-77 -225z" />
<glyph unicode="&#xe7;" horiz-adv-x="1087" d="M48 570q22 102 69 185t111 141.5t144 98t169 58.5t187 19q182 0 295 -75t115 -189q1 -82 -54 -135t-151 -53q-120 0 -172.5 73.5t-19.5 193.5q-41 -11 -77 -31.5t-68 -51.5t-56.5 -76t-35.5 -100q-36 -161 23 -245t197 -84q50 0 97 10.5t74.5 23.5t53.5 24t39 11 q8 0 12 -3t5.5 -8.5t1.5 -15.5q1 -48 -27.5 -102t-78.5 -102.5t-126.5 -86t-163.5 -50.5l-31 -86q64 0 115 -33.5t71 -88t-2 -123.5q-19 -54 -63 -92t-111.5 -58.5t-152.5 -20.5q-65 0 -129 15t-112 40.5t-83 55.5t-49 63t-4 61q8 20 28 20q9 0 25.5 -8t38.5 -19.5t48 -23 t62.5 -19.5t74.5 -8q101 0 119 56q9 34 -11.5 52t-51.5 18q-17 0 -52.5 -4t-51.5 -4q-26 0 -35 16.5t-1 37.5l65 179q-164 58 -239 201t-31 343z" />
<glyph unicode="&#xe8;" horiz-adv-x="1123" d="M45 319q-25 109 3 255q25 125 83.5 221t142 156t186 90.5t220.5 30.5q78 0 144 -8.5t115.5 -24t88.5 -36.5t64.5 -47t42 -54.5t23.5 -61t6.5 -64t-8.5 -64.5q-16 -70 -68.5 -121.5t-122 -78t-156 -38t-166 -10t-155.5 12.5q-1 -54 15 -92t47 -58t69 -29t88 -9 q51 0 112 16t107 32t62 16q21 0 21 -26q1 -39 -16.5 -83.5t-55.5 -89t-91.5 -80t-133.5 -58t-172 -22.5q-124 0 -225.5 35.5t-173 108t-96.5 181.5zM442 1415q3 50 37.5 81.5t94.5 31.5q43 0 75.5 -16.5t58.5 -52t45 -92.5l50 -159q12 -34 5 -62q-4 -17 -17 -26.5t-31 -9.5 q-46 0 -96 41l-116 90q-59 46 -84 84t-22 90zM502 598q39 -5 72 8t55 38t37.5 59.5t22 71t6.5 74.5q-3 57 -33 57q-34 0 -82.5 -83t-77.5 -225z" />
<glyph unicode="&#xe9;" horiz-adv-x="1123" d="M45 319q-25 109 3 255q25 125 83.5 221t142 156t186 90.5t220.5 30.5q78 0 144 -8.5t115.5 -24t88.5 -36.5t64.5 -47t42 -54.5t23.5 -61t6.5 -64t-8.5 -64.5q-16 -70 -68.5 -121.5t-122 -78t-156 -38t-166 -10t-155.5 12.5q-1 -54 15 -92t47 -58t69 -29t88 -9 q51 0 112 16t107 32t62 16q21 0 21 -26q1 -39 -16.5 -83.5t-55.5 -89t-91.5 -80t-133.5 -58t-172 -22.5q-124 0 -225.5 35.5t-173 108t-96.5 181.5zM502 598q39 -5 72 8t55 38t37.5 59.5t22 71t6.5 74.5q-3 57 -33 57q-34 0 -82.5 -83t-77.5 -225zM712.5 1139.5 q-11.5 27.5 15.5 80.5l86 147q48 84 100 122.5t124 38.5q69 0 106.5 -43t25.5 -110q-8 -49 -48 -86.5t-120 -76.5l-175 -84q-39 -16 -65 -16q-38 0 -49.5 27.5z" />
<glyph unicode="&#xea;" horiz-adv-x="1123" d="M45 319q-25 109 3 255q25 125 83.5 221t142 156t186 90.5t220.5 30.5q78 0 144 -8.5t115.5 -24t88.5 -36.5t64.5 -47t42 -54.5t23.5 -61t6.5 -64t-8.5 -64.5q-16 -70 -68.5 -121.5t-122 -78t-156 -38t-166 -10t-155.5 12.5q-1 -54 15 -92t47 -58t69 -29t88 -9 q51 0 112 16t107 32t62 16q21 0 21 -26q1 -39 -16.5 -83.5t-55.5 -89t-91.5 -80t-133.5 -58t-172 -22.5q-124 0 -225.5 35.5t-173 108t-96.5 181.5zM450 1199q11 33 42 63l205 193q28 28 59 46.5t63 26.5t61 3.5t54 -25.5t41 -59l88 -198q20 -48 14 -79t-26.5 -47t-48.5 -16 q-47 0 -90 36t-95 106l-16 19l-89 -58q-138 -88 -212 -88q-34 0 -47.5 22t-2.5 55zM502 598q39 -5 72 8t55 38t37.5 59.5t22 71t6.5 74.5q-3 57 -33 57q-34 0 -82.5 -83t-77.5 -225z" />
<glyph unicode="&#xeb;" horiz-adv-x="1123" d="M45 319q-25 109 3 255q25 125 83.5 221t142 156t186 90.5t220.5 30.5q78 0 144 -8.5t115.5 -24t88.5 -36.5t64.5 -47t42 -54.5t23.5 -61t6.5 -64t-8.5 -64.5q-16 -70 -68.5 -121.5t-122 -78t-156 -38t-166 -10t-155.5 12.5q-1 -54 15 -92t47 -58t69 -29t88 -9 q51 0 112 16t107 32t62 16q21 0 21 -26q1 -39 -16.5 -83.5t-55.5 -89t-91.5 -80t-133.5 -58t-172 -22.5q-124 0 -225.5 35.5t-173 108t-96.5 181.5zM364 1293q0 50 25 98t74.5 81t110.5 33q76 0 128.5 -50t54.5 -122q1 -84 -60 -151.5t-153 -67.5q-76 0 -127.5 51.5 t-52.5 127.5zM502 598q39 -5 72 8t55 38t37.5 59.5t22 71t6.5 74.5q-3 57 -33 57q-34 0 -82.5 -83t-77.5 -225zM812 1293q0 50 25.5 98t75 81t110.5 33q76 0 129 -50t54 -122q2 -84 -59 -151.5t-153 -67.5q-76 0 -128 51.5t-54 127.5z" />
<glyph unicode="&#xec;" horiz-adv-x="734" d="M-80 62q4 15 15.5 25t25.5 17.5t29 18.5t30 33.5t26 56.5l174 580q9 30 4 46.5t-17.5 29.5t-26 21.5t-21 23t-2.5 32.5q7 31 64.5 58t138.5 42t161 15q61 0 106 -13t71 -36t38.5 -55t11 -69t-14.5 -80l-185 -599q-10 -35 -6.5 -55t14.5 -35t23 -23.5t19 -20t4 -25.5 q-9 -26 -39 -38t-94 -12h-457q-53 0 -76.5 17t-15.5 45zM269 1415q1 25 10.5 45.5t26 35.5t41.5 23.5t55 8.5q64 0 107 -38t71 -123l50 -159q13 -34 6 -62q-4 -17 -17.5 -26.5t-30.5 -9.5q-46 0 -96 41l-117 90q-59 46 -84 84t-22 90z" />
<glyph unicode="&#xed;" horiz-adv-x="734" d="M-80 62q4 15 15.5 25t25.5 17.5t29 18.5t30 33.5t26 56.5l174 580q9 30 4 46.5t-17.5 29.5t-26 21.5t-21 23t-2.5 32.5q7 31 64.5 58t138.5 42t161 15q61 0 106 -13t71 -36t38.5 -55t11 -69t-14.5 -80l-185 -599q-10 -35 -6.5 -55t14.5 -35t23 -23.5t19 -20t4 -25.5 q-9 -26 -39 -38t-94 -12h-457q-53 0 -76.5 17t-15.5 45zM539.5 1139.5q-11.5 27.5 16.5 80.5l86 147q47 84 99 122.5t124 38.5q70 0 107 -43t26 -110q-6 -33 -26.5 -61t-55 -52t-87.5 -50l-174 -84q-40 -16 -65 -16q-39 0 -50.5 27.5z" />
<glyph unicode="&#xee;" horiz-adv-x="734" d="M-80 62q4 15 15.5 25t25.5 17.5t29 18.5t30 33.5t26 56.5l174 580q9 30 4 46.5t-17.5 29.5t-26 21.5t-21 23t-2.5 32.5q7 31 64.5 58t138.5 42t161 15q61 0 106 -13t71 -36t38.5 -55t11 -69t-14.5 -80l-185 -599q-10 -35 -6.5 -55t14.5 -35t23 -23.5t19 -20t4 -25.5 q-9 -26 -39 -38t-94 -12h-457q-53 0 -76.5 17t-15.5 45zM277.5 1199q10.5 33 41.5 63l205 193q36 35 75.5 55t78 23.5t71.5 -18t54 -68.5l88 -198q14 -34 14.5 -62t-10.5 -44.5t-28 -26t-38 -9.5q-47 0 -90.5 36t-94.5 106l-16 19l-88 -58q-138 -88 -213 -88q-33 0 -46.5 22 t-3 55z" />
<glyph unicode="&#xef;" horiz-adv-x="734" d="M-80 62q4 15 15.5 25t25.5 17.5t29 18.5t30 33.5t26 56.5l174 580q9 30 4 46.5t-17.5 29.5t-26 21.5t-21 23t-2.5 32.5q7 31 64.5 58t138.5 42t161 15q61 0 106 -13t71 -36t38.5 -55t11 -69t-14.5 -80l-185 -599q-10 -35 -6.5 -55t14.5 -35t23 -23.5t19 -20t4 -25.5 q-9 -26 -39 -38t-94 -12h-457q-53 0 -76.5 17t-15.5 45zM191 1293q0 50 25 98t75 81t111 33q50 0 91.5 -23t65.5 -62.5t25 -86.5q2 -84 -59 -151.5t-154 -67.5q-76 0 -127 51.5t-53 127.5zM640 1293q0 37 15 74.5t41.5 68t67 50t87.5 19.5q76 0 128.5 -50t54.5 -122 q1 -84 -59.5 -151.5t-153.5 -67.5q-76 0 -128 51.5t-53 127.5z" />
<glyph unicode="&#xf0;" horiz-adv-x="1368" d="M45 405q2 59 17 123q25 103 82.5 189.5t139.5 148.5t191 97t232 35q140 0 247 -52q0 88 -29 168l-161 -20q-74 -9 -110 10.5t-40 59.5q-2 43 24.5 64t91.5 30l109 14q-23 30 -61.5 73.5t-53.5 66t-12 37.5q6 34 67 34q58 0 117.5 -21.5t113 -60.5t100.5 -93l112 15 q133 17 149 -69q5 -27 -7 -47.5t-39 -33t-69 -17.5l-36 -4q52 -94 82 -199.5t34.5 -218t-22.5 -219.5q-41 -157 -143 -278t-252.5 -188t-326.5 -67q-98 0 -179 15t-141 42t-105 65.5t-71.5 85t-39.5 101.5t-11 114zM530 233.5q0 -25.5 4 -40t12.5 -23t17 -11t20.5 -2.5 q20 -2 38 10.5t41.5 47t51 105t60.5 176.5q26 83 39 144.5t14.5 96t-6 54.5t-19 26t-28.5 6q-20 0 -38.5 -13t-42 -47t-51 -101.5t-57.5 -167.5q-20 -64 -32.5 -115t-18 -85.5t-5.5 -60z" />
<glyph unicode="&#xf1;" horiz-adv-x="1436" d="M-80 62q4 15 15.5 25t25.5 17.5t29 18.5t30 33.5t26 56.5l178 580q8 30 3 46.5t-17.5 29.5t-25.5 21.5t-20.5 23t-2.5 32.5q7 31 64.5 58t139 42t161.5 15q101 0 159 -55.5t52 -152.5q83 117 174.5 162.5t200.5 45.5q76 0 136 -29.5t93.5 -82t42 -123.5t-18.5 -154 l-122 -395q-9 -24 -2.5 -39.5t23.5 -15.5t30 11t21.5 21.5t13.5 10.5q10 0 15.5 -13.5t5.5 -31.5q1 -42 -21 -83.5t-63 -76.5t-108 -56.5t-149 -21.5q-132 0 -210.5 61t-80.5 164q0 75 37 166l110 289q14 34 8.5 55.5t-20 32t-36.5 10.5q-29 0 -57.5 -19t-51 -51t-34.5 -72 l-124 -409q-11 -35 -7.5 -55t14.5 -35t23 -23.5t19 -20t3 -25.5q-8 -26 -38.5 -38t-94.5 -12h-457q-53 0 -75.5 16.5t-16.5 45.5zM631.5 1195q-6.5 39 6.5 92q24 93 97.5 150.5t164.5 57.5q33 0 71.5 -15t66.5 -33t60.5 -33.5t56 -15.5t45 11.5t34.5 24.5t27 24t24 11 q20 0 26 -38.5t-9 -91.5q-22 -94 -95 -151.5t-163 -57.5q-37 0 -76 15t-66 33t-58.5 33t-54.5 15q-19 0 -36.5 -7t-30.5 -17.5t-24 -20.5t-21 -17.5t-18 -7.5q-21 0 -27.5 39z" />
<glyph unicode="&#xf2;" horiz-adv-x="1316" d="M19.5 405q1.5 59 16.5 123q38 157 145.5 278.5t263 188t332.5 66.5q96 0 176 -15t138.5 -41.5t101.5 -65t69 -84t37.5 -99.5t9.5 -110.5t-16 -117.5q-39 -164 -143 -288.5t-255 -191t-329 -66.5q-97 0 -178.5 15t-141 42t-104.5 65.5t-72 85t-39.5 101.5t-11 114z M507 251.5q-3 -38.5 4.5 -60.5t18 -28t28.5 -6q19 -2 38 11.5t43 51t54 114.5t66 192q28 92 43.5 158.5t18 104t-4.5 59.5t-18 28.5t-28 6.5q-20 0 -38.5 -14t-43 -51t-54.5 -110.5t-64 -183.5q-29 -96 -44.5 -165t-18.5 -107.5zM582 1415q3 50 37.5 81.5t94.5 31.5 q65 0 107.5 -38t71.5 -123l51 -159q13 -34 6 -62q-5 -17 -18 -26.5t-30 -9.5q-47 0 -97 41l-117 90q-59 46 -84 84t-22 90z" />
<glyph unicode="&#xf3;" horiz-adv-x="1316" d="M19.5 405q1.5 59 16.5 123q38 157 145.5 278.5t263 188t332.5 66.5q96 0 176 -15t138.5 -41.5t101.5 -65t69 -84t37.5 -99.5t9.5 -110.5t-16 -117.5q-39 -164 -143 -288.5t-255 -191t-329 -66.5q-97 0 -178.5 15t-141 42t-104.5 65.5t-72 85t-39.5 101.5t-11 114z M507 251.5q-3 -38.5 4.5 -60.5t18 -28t28.5 -6q19 -2 38 11.5t43 51t54 114.5t66 192q28 92 43.5 158.5t18 104t-4.5 59.5t-18 28.5t-28 6.5q-20 0 -38.5 -14t-43 -51t-54.5 -110.5t-64 -183.5q-29 -96 -44.5 -165t-18.5 -107.5zM853.5 1139.5q-11.5 27.5 15.5 80.5l87 147 q47 84 98.5 122.5t123.5 38.5q69 0 106.5 -43t25.5 -110q-4 -25 -16 -46.5t-33.5 -41.5t-50 -38t-68.5 -37l-175 -84q-39 -16 -63 -16q-39 0 -50.5 27.5z" />
<glyph unicode="&#xf4;" horiz-adv-x="1316" d="M19.5 405q1.5 59 16.5 123q38 157 145.5 278.5t263 188t332.5 66.5q96 0 176 -15t138.5 -41.5t101.5 -65t69 -84t37.5 -99.5t9.5 -110.5t-16 -117.5q-39 -164 -143 -288.5t-255 -191t-329 -66.5q-97 0 -178.5 15t-141 42t-104.5 65.5t-72 85t-39.5 101.5t-11 114z M507 251.5q-3 -38.5 4.5 -60.5t18 -28t28.5 -6q19 -2 38 11.5t43 51t54 114.5t66 192q28 92 43.5 158.5t18 104t-4.5 59.5t-18 28.5t-28 6.5q-20 0 -38.5 -14t-43 -51t-54.5 -110.5t-64 -183.5q-29 -96 -44.5 -165t-18.5 -107.5zM590.5 1199q10.5 33 41.5 63l205 193 q36 35 75.5 55t78 23.5t72 -18t53.5 -68.5l88 -198q21 -48 14 -79t-27.5 -47t-48.5 -16q-47 0 -90 36t-95 106l-15 19l-89 -58q-139 -88 -213 -88q-33 0 -46.5 22t-3 55z" />
<glyph unicode="&#xf5;" horiz-adv-x="1316" d="M19.5 405q1.5 59 16.5 123q38 157 145.5 278.5t263 188t332.5 66.5q96 0 176 -15t138.5 -41.5t101.5 -65t69 -84t37.5 -99.5t9.5 -110.5t-16 -117.5q-39 -164 -143 -288.5t-255 -191t-329 -66.5q-97 0 -178.5 15t-141 42t-104.5 65.5t-72 85t-39.5 101.5t-11 114z M507 251.5q-3 -38.5 4.5 -60.5t18 -28t28.5 -6q19 -2 38 11.5t43 51t54 114.5t66 192q28 92 43.5 158.5t18 104t-4.5 59.5t-18 28.5t-28 6.5q-20 0 -38.5 -14t-43 -51t-54.5 -110.5t-64 -183.5q-29 -96 -44.5 -165t-18.5 -107.5zM606 1195q-6 39 6 92q24 93 97.5 150.5 t163.5 57.5q34 0 72 -15t66.5 -33t61 -33.5t55.5 -15.5t45 11.5t35 24.5t27 24t23 11q21 0 27 -38.5t-8 -91.5q-15 -62 -54 -110t-93 -73.5t-113 -25.5q-36 0 -75 15t-66.5 33t-58.5 33t-55 15q-19 0 -36.5 -7t-30 -17.5t-23.5 -20.5t-21.5 -17.5t-18.5 -7.5q-20 0 -26 39z " />
<glyph unicode="&#xf6;" horiz-adv-x="1316" d="M19.5 405q1.5 59 16.5 123q38 157 145.5 278.5t263 188t332.5 66.5q96 0 176 -15t138.5 -41.5t101.5 -65t69 -84t37.5 -99.5t9.5 -110.5t-16 -117.5q-39 -164 -143 -288.5t-255 -191t-329 -66.5q-97 0 -178.5 15t-141 42t-104.5 65.5t-72 85t-39.5 101.5t-11 114z M504 1293q0 50 25 98t74.5 81t110.5 33q50 0 92 -23t66 -62.5t25 -86.5q1 -84 -59.5 -151.5t-153.5 -67.5q-76 0 -127.5 51.5t-52.5 127.5zM507 251.5q-3 -38.5 4.5 -60.5t18 -28t28.5 -6q19 -2 38 11.5t43 51t54 114.5t66 192q28 92 43.5 158.5t18 104t-4.5 59.5t-18 28.5 t-28 6.5q-20 0 -38.5 -14t-43 -51t-54.5 -110.5t-64 -183.5q-29 -96 -44.5 -165t-18.5 -107.5zM954 1293q0 50 25 98t74.5 81t110.5 33q76 0 128.5 -50t54.5 -122q1 -84 -60 -151.5t-153 -67.5q-76 0 -127.5 51.5t-52.5 127.5z" />
<glyph unicode="&#xf7;" horiz-adv-x="1201" d="M71 703q14 58 57.5 90t108.5 32h889q66 0 92.5 -31.5t13.5 -90.5q-38 -123 -169 -123h-889q-66 0 -93 32t-10 91zM412 318q0 65 47.5 118.5t120.5 53.5q60 0 101.5 -40t42.5 -99q2 -66 -47 -119.5t-125 -53.5q-58 0 -98.5 41t-41.5 99zM582 1054q0 65 48 118.5t121 53.5 q60 0 101 -39.5t43 -98.5q1 -66 -47.5 -119.5t-125.5 -53.5q-58 0 -98 40.5t-42 98.5z" />
<glyph unicode="&#xf8;" horiz-adv-x="1368" d="M4 86q3 14 9 25t17.5 23t29.5 25l38 27q-84 141 -36 342q37 157 144.5 278.5t263 188t333.5 66.5q241 0 381 -94l70 50q42 27 67 27q39 0 59.5 -30t12.5 -60q-3 -19 -15.5 -33t-36.5 -30l-52 -38q76 -135 30 -325q-39 -164 -143 -288.5t-255 -191t-329 -66.5 q-246 0 -383 92l-67 -48q-1 0 -4 -2q-39 -24 -67 -24q-31 0 -52 29t-15 57zM526.5 227.5q-0.5 -29.5 10 -45.5t21.5 -20.5t28 -4.5q21 -2 40 10.5t43 46t52.5 102.5t61.5 172l-251 -181q-5 -50 -5.5 -79.5zM592 540l253 184q7 51 8 82.5t-8.5 48.5t-21 22.5t-28.5 5.5 q-22 0 -42 -14t-45.5 -49t-54.5 -105.5t-61 -174.5z" />
<glyph unicode="&#xf9;" horiz-adv-x="1375" d="M29.5 209q-13.5 71 16.5 164l128 420q9 30 4 46.5t-17.5 29.5t-26 21.5t-21 23t-2.5 32.5q7 31 64.5 58t138.5 42t161 15q61 0 106 -13t71 -36t38 -55t10.5 -69t-14.5 -80l-126 -417q-16 -47 -0.5 -72.5t51.5 -25.5q40 0 64 22.5t45 73.5l123 404q8 30 3 46.5t-17.5 29.5 t-25.5 21.5t-20 23t-2 32.5q5 23 40 45t86.5 37t114 24t122.5 9q61 0 106.5 -13t71.5 -36t38 -55t10 -69t-16 -80l-161 -531q-8 -24 -2 -39.5t23 -15.5t30 11t21.5 21.5t13.5 10.5q10 0 16.5 -13.5t6.5 -31.5q1 -41 -23 -83.5t-65.5 -76.5t-105 -56t-135.5 -22 q-118 0 -188.5 48.5t-89.5 126.5q-72 -81 -159 -122t-178 -41q-82 0 -150.5 24.5t-116.5 72t-61.5 118.5zM515 1415q4 50 39 81.5t95 31.5q64 0 107 -38t71 -123l50 -159q13 -34 6 -62q-3 -11 -10 -19.5t-17 -12.5t-21 -4q-46 0 -96 41l-117 90q-59 46 -84 84t-23 90z" />
<glyph unicode="&#xfa;" horiz-adv-x="1375" d="M29.5 209q-13.5 71 16.5 164l128 420q9 30 4 46.5t-17.5 29.5t-26 21.5t-21 23t-2.5 32.5q7 31 64.5 58t138.5 42t161 15q61 0 106 -13t71 -36t38 -55t10.5 -69t-14.5 -80l-126 -417q-16 -47 -0.5 -72.5t51.5 -25.5q40 0 64 22.5t45 73.5l123 404q8 30 3 46.5t-17.5 29.5 t-25.5 21.5t-20 23t-2 32.5q5 23 40 45t86.5 37t114 24t122.5 9q61 0 106.5 -13t71.5 -36t38 -55t10 -69t-16 -80l-161 -531q-8 -24 -2 -39.5t23 -15.5t30 11t21.5 21.5t13.5 10.5q10 0 16.5 -13.5t6.5 -31.5q1 -41 -23 -83.5t-65.5 -76.5t-105 -56t-135.5 -22 q-118 0 -188.5 48.5t-89.5 126.5q-72 -81 -159 -122t-178 -41q-82 0 -150.5 24.5t-116.5 72t-61.5 118.5zM786.5 1139.5q-11.5 27.5 16.5 80.5l86 147q32 56 64 90.5t71.5 52.5t87.5 18q70 0 107 -43t26 -110q-6 -33 -26.5 -61t-55 -52t-87.5 -50l-174 -84q-40 -16 -65 -16 q-39 0 -50.5 27.5z" />
<glyph unicode="&#xfb;" horiz-adv-x="1375" d="M29.5 209q-13.5 71 16.5 164l128 420q9 30 4 46.5t-17.5 29.5t-26 21.5t-21 23t-2.5 32.5q7 31 64.5 58t138.5 42t161 15q61 0 106 -13t71 -36t38 -55t10.5 -69t-14.5 -80l-126 -417q-16 -47 -0.5 -72.5t51.5 -25.5q40 0 64 22.5t45 73.5l123 404q8 30 3 46.5t-17.5 29.5 t-25.5 21.5t-20 23t-2 32.5q5 23 40 45t86.5 37t114 24t122.5 9q61 0 106.5 -13t71.5 -36t38 -55t10 -69t-16 -80l-161 -531q-8 -24 -2 -39.5t23 -15.5t30 11t21.5 21.5t13.5 10.5q10 0 16.5 -13.5t6.5 -31.5q1 -41 -23 -83.5t-65.5 -76.5t-105 -56t-135.5 -22 q-118 0 -188.5 48.5t-89.5 126.5q-72 -81 -159 -122t-178 -41q-82 0 -150.5 24.5t-116.5 72t-61.5 118.5zM524.5 1199q10.5 33 41.5 63l204 193q36 35 76 55t78 23.5t71.5 -18t54.5 -68.5l88 -198q20 -48 13.5 -79t-26.5 -47t-49 -16q-32 0 -64.5 19t-60 48t-60.5 75l-16 19 l-88 -58q-138 -88 -213 -88q-33 0 -46.5 22t-3 55z" />
<glyph unicode="&#xfc;" horiz-adv-x="1375" d="M29.5 209q-13.5 71 16.5 164l128 420q9 30 4 46.5t-17.5 29.5t-26 21.5t-21 23t-2.5 32.5q7 31 64.5 58t138.5 42t161 15q61 0 106 -13t71 -36t38 -55t10.5 -69t-14.5 -80l-126 -417q-16 -47 -0.5 -72.5t51.5 -25.5q40 0 64 22.5t45 73.5l123 404q8 30 3 46.5t-17.5 29.5 t-25.5 21.5t-20 23t-2 32.5q5 23 40 45t86.5 37t114 24t122.5 9q61 0 106.5 -13t71.5 -36t38 -55t10 -69t-16 -80l-161 -531q-8 -24 -2 -39.5t23 -15.5t30 11t21.5 21.5t13.5 10.5q10 0 16.5 -13.5t6.5 -31.5q1 -41 -23 -83.5t-65.5 -76.5t-105 -56t-135.5 -22 q-118 0 -188.5 48.5t-89.5 126.5q-72 -81 -159 -122t-178 -41q-82 0 -150.5 24.5t-116.5 72t-61.5 118.5zM437 1293q0 37 15.5 74.5t42 68t67 50t87.5 19.5q50 0 91.5 -23t65.5 -62.5t25 -86.5q2 -84 -59 -151.5t-154 -67.5q-76 0 -127.5 51.5t-53.5 127.5zM887 1293 q0 37 15 74.5t41.5 68t67 50t87.5 19.5q76 0 128.5 -50t54.5 -122q1 -84 -59.5 -151.5t-153.5 -67.5q-76 0 -128 51.5t-53 127.5z" />
<glyph unicode="&#xfd;" horiz-adv-x="1243" d="M-147.5 -130.5q-3.5 38.5 9.5 76.5q12 38 36 64.5t55.5 39t69.5 12.5q91 0 150 -63t76 -173q130 5 237 109q-102 19 -151.5 70t-67.5 160l-81 492q-5 38 -16 52.5t-30 14.5q-13 0 -33 -13.5t-27 -13.5t-11.5 9t-4 31.5t9.5 53.5q17 54 50.5 102.5t79 86.5t106.5 60.5 t127 22.5q127 0 188.5 -76t81.5 -234l59 -442q6 -50 37 -50q36 0 83 65t95 186q-83 74 -111.5 174.5t3.5 213.5q25 81 75.5 121t114.5 40q84 0 135 -61t58.5 -170.5t-36.5 -261.5q-37 -122 -99 -242t-140 -224.5t-172.5 -193.5t-195.5 -153t-211.5 -100t-217.5 -36 q-62 0 -115.5 13.5t-91.5 37.5t-67 56t-41.5 68.5t-16 75zM674.5 1139.5q-11.5 27.5 16.5 80.5l86 147q48 84 99.5 122.5t123.5 38.5q69 0 106.5 -43t25.5 -110q-9 -49 -49 -86.5t-120 -76.5l-174 -84q-39 -16 -65 -16q-38 0 -49.5 27.5z" />
<glyph unicode="&#xfe;" horiz-adv-x="1404" d="M-205 -321q4 15 15 25.5t25 18.5t29 19t29.5 33.5t24.5 55.5l425 1383q8 30 3 46.5t-17.5 30t-26 22.5t-21.5 23t-4 31q13 47 126.5 81.5t238.5 34.5q61 0 106 -13.5t71 -36.5t38.5 -55t11.5 -68.5t-14 -77.5l-83 -269q116 107 272 107q91 0 162 -42.5t111.5 -119.5 t50 -183.5t-22.5 -234.5q-31 -126 -91 -223.5t-140 -159.5t-175 -93.5t-200 -31.5q-147 0 -249 62l-67 -218q-10 -34 -7 -53.5t13.5 -34.5t22.5 -23.5t19 -21t2 -26.5q-7 -26 -37 -37t-93 -11h-460q-51 0 -74 16.5t-14 43.5zM536 195q30 -30 66 -30q20 0 36 5.5t38.5 25 t42.5 54t44.5 97t48.5 149.5q93 335 -9 335q-46 0 -85 -44z" />
<glyph unicode="&#xff;" horiz-adv-x="1243" d="M-147.5 -130.5q-3.5 38.5 9.5 76.5q12 38 36 64.5t55.5 39t69.5 12.5q91 0 150 -63t76 -173q130 5 237 109q-102 19 -151.5 70t-67.5 160l-81 492q-5 38 -16 52.5t-30 14.5q-13 0 -33 -13.5t-27 -13.5t-11.5 9t-4 31.5t9.5 53.5q17 54 50.5 102.5t79 86.5t106.5 60.5 t127 22.5q127 0 188.5 -76t81.5 -234l59 -442q6 -50 37 -50q36 0 83 65t95 186q-83 74 -111.5 174.5t3.5 213.5q25 81 75.5 121t114.5 40q84 0 135 -61t58.5 -170.5t-36.5 -261.5q-37 -122 -99 -242t-140 -224.5t-172.5 -193.5t-195.5 -153t-211.5 -100t-217.5 -36 q-62 0 -115.5 13.5t-91.5 37.5t-67 56t-41.5 68.5t-16 75zM325 1293q0 37 15.5 74.5t42 68t67 50t86.5 19.5q50 0 91.5 -23t65.5 -62.5t25 -86.5q2 -84 -59 -151.5t-153 -67.5q-76 0 -127.5 51.5t-53.5 127.5zM775 1293q0 50 25.5 98t75 81t110.5 33q50 0 91.5 -23 t65.5 -62.5t25 -86.5q2 -84 -59 -151.5t-153 -67.5q-76 0 -127.5 51.5t-53.5 127.5z" />
<glyph unicode="&#x152;" horiz-adv-x="2093" d="M100 289.5q-46 155.5 15 384.5q43 168 126.5 300t196 218t249 130.5t290.5 44.5q123 0 223 -30h857q92 0 132.5 -46.5t16.5 -128.5l-52 -187q-14 -54 -41 -75t-78 -21q-24 0 -42.5 4.5t-33 15.5t-24.5 28t-16 42l-33 115q-4 18 -9 28.5t-14 18t-21.5 10.5t-33.5 3h-211 l-100 -357h89q15 0 38 20l67 60q30 27 53 38.5t54 11.5q43 0 66.5 -26t12.5 -66l-83 -279q-8 -31 -26 -51t-37.5 -27.5t-40.5 -7.5q-58 0 -85 57l-33 71q-14 30 -44 30h-79l-118 -425h176q39 0 67.5 15t63.5 53l120 132q33 34 61.5 49.5t70.5 15.5q53 0 82.5 -29.5 t11.5 -89.5l-57 -203q-23 -75 -64 -105.5t-123 -30.5h-911q-107 -24 -213 -24q-205 0 -337.5 79t-178.5 234.5zM556.5 268q1.5 -61 24 -87t68.5 -26q88 0 154.5 111.5t150.5 394.5q41 145 60.5 240.5t18 156.5t-23.5 86.5t-67 25.5q-61 0 -109.5 -48.5t-95 -158 t-101.5 -302.5q-42 -143 -61.5 -237.5t-18 -155.5z" />
<glyph unicode="&#x153;" horiz-adv-x="1902" d="M19.5 405q1.5 59 16.5 123q38 157 145.5 278.5t263 188t332.5 66.5q222 0 343 -77q143 77 337 77q78 0 144 -8t115.5 -23.5t88 -36.5t64 -47t42.5 -54.5t23.5 -60.5t6 -63.5t-7.5 -64.5q-16 -70 -68 -120.5t-122 -77t-156 -39.5t-166 -12t-157 12q1 -55 17.5 -92.5 t48 -57.5t68 -28.5t85.5 -8.5q51 0 112 16t107.5 32t61.5 16q23 0 23 -25q0 -40 -17.5 -84.5t-56 -89.5t-92 -81t-133.5 -58.5t-172 -22.5q-222 0 -359 108q-163 -108 -391 -108q-97 0 -178.5 15t-141 42t-104.5 65.5t-72 85t-39.5 101.5t-11 114zM507 251.5 q-3 -38.5 4.5 -60.5t18 -28t28.5 -6q19 -2 38 11.5t43 51t54 114.5t66 192q28 92 43.5 158.5t18 104t-4.5 59.5t-18 28.5t-28 6.5q-20 0 -38.5 -14t-43 -51t-54.5 -110.5t-64 -183.5q-29 -96 -44.5 -165t-18.5 -107.5zM1279 586q59 0 104.5 40t67 96.5t20.5 116.5 q-3 56 -32 56q-35 0 -83 -82.5t-77 -226.5z" />
<glyph unicode="&#x178;" horiz-adv-x="1582" d="M259 1295q9 42 80 42h536q70 0 96.5 -12t28.5 -42q0 -20 -13.5 -39.5t-28 -33.5t-23 -38.5t-0.5 -53.5l93 -354l255 364q82 117 155 167t163 50q99 0 157 -71.5t40 -175.5q-17 -97 -75.5 -143t-136.5 -46q-52 0 -89 16.5t-68 53.5l-331 -431l-93 -311q-8 -34 -1 -55.5 t23 -39.5t32.5 -30t27 -28t5.5 -34q-9 -28 -39 -39t-86 -11h-505q-52 0 -77 19t-17 54q4 17 16 30t28 22.5t32 21.5t32 35t26 55l92 313l-184 526q-16 45 -39 78t-43.5 49t-38 29.5t-26 28t-4.5 34.5zM735 1595q0 51 25 99t75 81t111 33q50 0 91.5 -23t65.5 -62.5t25 -86.5 q2 -85 -59 -152t-154 -67q-76 0 -127.5 51.5t-52.5 126.5zM1184 1595q0 51 25 99t74.5 81t111.5 33q76 0 128.5 -50t54.5 -122q1 -85 -59.5 -152t-153.5 -67q-76 0 -128 51.5t-53 126.5z" />
<glyph unicode="&#x2c6;" horiz-adv-x="828" d="M321.5 1199q10.5 33 42.5 63l204 193q29 28 60 46.5t63 26.5t60.5 3.5t53.5 -25.5t42 -59l88 -198q14 -34 14.5 -62t-10.5 -44.5t-28 -26t-38 -9.5q-47 0 -90.5 36t-94.5 106l-16 19l-88 -58q-138 -88 -213 -88q-33 0 -46.5 22t-3 55z" />
<glyph unicode="&#x2dc;" horiz-adv-x="714" d="M212.5 1195q-6.5 39 6.5 92q23 93 96.5 150.5t163.5 57.5q34 0 72.5 -15t67 -33t61 -33.5t55.5 -15.5t45 11.5t35 24.5t27 24t23 11q21 0 26.5 -38.5t-8.5 -91.5q-22 -94 -95 -151.5t-164 -57.5q-36 0 -75 15t-66.5 33t-58.5 33t-54.5 15t-45 -11t-34.5 -24t-27 -24 t-24 -11q-20 0 -26.5 39z" />
<glyph unicode="&#x2000;" horiz-adv-x="921" />
<glyph unicode="&#x2001;" horiz-adv-x="1842" />
<glyph unicode="&#x2002;" horiz-adv-x="921" />
<glyph unicode="&#x2003;" horiz-adv-x="1842" />
<glyph unicode="&#x2004;" horiz-adv-x="614" />
<glyph unicode="&#x2005;" horiz-adv-x="460" />
<glyph unicode="&#x2006;" horiz-adv-x="307" />
<glyph unicode="&#x2007;" horiz-adv-x="307" />
<glyph unicode="&#x2008;" horiz-adv-x="230" />
<glyph unicode="&#x2009;" horiz-adv-x="368" />
<glyph unicode="&#x200a;" horiz-adv-x="102" />
<glyph unicode="&#x2010;" horiz-adv-x="1141" d="M251 707q10 39 32.5 66.5t57 41.5t76.5 14h468q66 0 93 -31.5t14 -90.5q-39 -123 -169 -123h-468q-67 0 -94 32t-10 91z" />
<glyph unicode="&#x2011;" horiz-adv-x="1141" d="M251 707q10 39 32.5 66.5t57 41.5t76.5 14h468q66 0 93 -31.5t14 -90.5q-39 -123 -169 -123h-468q-67 0 -94 32t-10 91z" />
<glyph unicode="&#x2012;" horiz-adv-x="1141" d="M251 707q10 39 32.5 66.5t57 41.5t76.5 14h468q66 0 93 -31.5t14 -90.5q-39 -123 -169 -123h-468q-67 0 -94 32t-10 91z" />
<glyph unicode="&#x2013;" horiz-adv-x="1743" d="M251 707q10 39 32.5 66.5t57 41.5t76.5 14h1071q65 0 92 -31.5t13 -90.5q-38 -123 -168 -123h-1070q-67 0 -94 32t-10 91z" />
<glyph unicode="&#x2014;" horiz-adv-x="2426" d="M251 707q10 39 32.5 66.5t57 41.5t76.5 14h1753q65 0 92 -31.5t14 -90.5q-39 -123 -169 -123h-1752q-67 0 -94 32t-10 91z" />
<glyph unicode="&#x2018;" horiz-adv-x="569" d="M223.5 969.5q-10.5 61.5 7.5 137.5q17 69 56 125t89 90.5t104.5 53.5t105.5 19q31 0 50.5 -7t27.5 -22t2 -37q-5 -22 -29 -43.5t-50.5 -37t-51.5 -38t-31 -44.5q-7 -22 4.5 -46.5t31.5 -46t39 -50.5t28 -60t-1 -74q-15 -53 -59.5 -82.5t-111.5 -29.5q-49 0 -93.5 23 t-76 65.5t-42 104z" />
<glyph unicode="&#x2019;" horiz-adv-x="609" d="M235 843q5 21 29.5 43t51 37.5t51 37.5t31.5 44t-5 47t-32 46.5t-39.5 50.5t-28.5 59.5t2 74.5q15 53 59 82.5t112 29.5q49 0 93.5 -23t76 -66t42 -104.5t-7.5 -138.5q-16 -68 -55 -124t-89 -90.5t-104.5 -53t-105.5 -18.5q-47 0 -68 16t-13 50z" />
<glyph unicode="&#x201a;" horiz-adv-x="1203" d="M-98 -263q0 19 13 38.5t33 35.5t43 35t43 35.5t33 38t13 42.5q0 17 -14 39.5t-31.5 43.5t-32 57.5t-14.5 77.5q0 93 60 159.5t145 66.5q95 0 157.5 -66.5t59.5 -176.5q-2 -77 -32.5 -151t-78.5 -130.5t-106 -100.5t-117 -67t-108 -23q-66 0 -66 46z" />
<glyph unicode="&#x201c;" horiz-adv-x="1027" d="M223.5 969.5q-10.5 61.5 7.5 137.5q17 69 56 125t89 90.5t104.5 53.5t105.5 19q31 0 50.5 -7t27.5 -22t2 -37q-5 -22 -29 -43.5t-50.5 -37t-51.5 -38t-31 -44.5q-7 -22 4.5 -46.5t31.5 -46t39 -50.5t28 -60t-1 -74q-15 -53 -59.5 -82.5t-111.5 -29.5q-49 0 -93.5 23 t-76 65.5t-42 104zM680.5 969.5q-10.5 61.5 7.5 137.5q17 68 56 124.5t89 91t104.5 53.5t106.5 19q46 0 67.5 -16.5t12.5 -49.5q-5 -22 -29 -43.5t-50.5 -37t-51.5 -38t-32 -44.5q-6 -22 5.5 -46.5t31.5 -46t39 -50.5t28 -60t-2 -74q-14 -53 -58.5 -82.5t-111.5 -29.5 q-50 0 -94.5 23t-76 65.5t-42 104z" />
<glyph unicode="&#x201d;" horiz-adv-x="1067" d="M235 843q5 21 29.5 43t51 37.5t51 37.5t31.5 44t-5 47t-32 46.5t-39.5 50.5t-28.5 59.5t2 74.5q15 53 59 82.5t112 29.5q49 0 93.5 -23t76 -66t42 -104.5t-7.5 -138.5q-16 -68 -55 -124t-89 -90.5t-104.5 -53t-105.5 -18.5q-47 0 -68 16t-13 50zM693 843q4 18 20.5 35 t37.5 31t42.5 28.5t38.5 32t23 35.5q6 22 -5.5 47t-31.5 46.5t-39 50.5t-28 59.5t2 74.5q14 53 58.5 82.5t111.5 29.5q50 0 94.5 -23t76 -66t42 -104.5t-7.5 -138.5q-17 -68 -56 -124t-89 -90.5t-104.5 -53t-106.5 -18.5q-46 0 -67 16t-12 50z" />
<glyph unicode="&#x201e;" horiz-adv-x="1203" d="M-98 -263q0 19 13 38.5t33 35.5t43 35t43 35.5t33 38t13 42.5q0 17 -14 39.5t-31.5 43.5t-32 57.5t-14.5 77.5q0 93 60 159.5t145 66.5q95 0 157.5 -66.5t59.5 -176.5q-2 -77 -32.5 -151t-78.5 -130.5t-106 -100.5t-117 -67t-108 -23q-66 0 -66 46z" />
<glyph unicode="&#x2022;" horiz-adv-x="982" d="M203 668q0 65 26.5 130t72.5 118t116 86.5t150 33.5q85 0 156 -39.5t112 -108t43 -151.5q2 -68 -24.5 -134.5t-73.5 -119.5t-118 -86t-151 -33q-130 0 -218 87.5t-91 216.5z" />
<glyph unicode="&#x2026;" horiz-adv-x="1679" d="M46 180q0 54 26.5 105t79 86t117.5 35q79 0 134 -53.5t57 -130.5q1 -56 -26.5 -108t-80 -86t-118.5 -34q-79 0 -133 54t-56 132zM558 180q0 54 26.5 105t79 86t117.5 35q52 0 95.5 -24.5t68.5 -66.5t26 -93q1 -56 -26 -108t-80 -86t-118 -34q-80 0 -134 54t-55 132z M1070 180q0 54 26.5 105t79 86t117.5 35q52 0 95.5 -24.5t68.5 -66.5t26 -93q1 -56 -26.5 -108t-80 -86t-118.5 -34q-79 0 -132.5 54t-55.5 132z" />
<glyph unicode="&#x202f;" horiz-adv-x="368" />
<glyph unicode="&#x2039;" horiz-adv-x="674" d="M94 638q4 26 22 47.5t56 49.5l343 236q43 29 73 29q39 0 66.5 -38t15.5 -77q-7 -25 -25 -45t-55 -47l-253 -177l147 -137q66 -63 46 -124q-10 -31 -38.5 -52.5t-60.5 -21.5q-35 0 -73 38l-205 202q-36 34 -49.5 61t-9.5 56z" />
<glyph unicode="&#x203a;" horiz-adv-x="676" d="M74 395q7 25 26 45.5t55 47.5l253 176l-147 137q-67 62 -46 124q10 31 38.5 53t59.5 22q36 0 74 -39l205 -202q35 -34 49 -61t10 -56q-2 -14 -7.5 -25.5t-15.5 -23t-23 -22.5t-33 -25l-344 -237q-41 -28 -71 -28q-39 0 -66.5 37.5t-16.5 76.5z" />
<glyph unicode="&#x205f;" horiz-adv-x="460" />
<glyph unicode="&#x20ac;" horiz-adv-x="1277" d="M-16 532q12 44 44.5 68t82.5 24h44q6 56 17 117h-50q-49 0 -69.5 24t-8.5 68t44.5 68t82.5 24h62q32 72 74 131.5t87 101t97 74t100.5 52t100 32t93.5 17t82 4.5q168 0 295 -105l40 34q40 33 68.5 46t64.5 13q50 0 75 -28t11 -75l-71 -247q-10 -42 -28.5 -58.5 t-57.5 -16.5q-38 0 -62.5 20.5t-59.5 84.5q-35 63 -64 87t-78 24q-61 0 -114 -43.5t-103 -147.5h180q51 0 71 -24t10 -68q-28 -92 -127 -92h-205q-1 -5 -3.5 -14.5t-3.5 -14.5q-5 -17 -14.5 -50t-10.5 -38h224q33 0 53.5 -11t26.5 -31.5t0 -49.5q-28 -92 -127 -92h-202 q-3 -108 30.5 -160t95.5 -52q51 0 96 18t74.5 45t57.5 58.5t48 58.5t43.5 45t45.5 18q20 0 46 -16.5t43.5 -42t16.5 -48.5q1 -14 -8 -37t-25.5 -52t-42.5 -61t-58 -64.5t-74.5 -61.5t-89 -51t-104 -35.5t-117.5 -13.5q-105 0 -199.5 29.5t-171.5 85t-130 142t-71 195.5h-99 q-50 0 -70 24t-8 68z" />
<glyph unicode="&#x2122;" horiz-adv-x="2597" d="M283 1151l38 103q8 25 16.5 39.5t23.5 25t37 14.5t56 4h787q51 0 67.5 -22t-0.5 -72l-31 -92q-13 -43 -36 -61t-65 -18q-33 0 -51.5 15t-34.5 47l-22 48q-10 23 -22.5 30.5t-38.5 7.5h-32l-161 -481q-7 -24 -0.5 -45t18 -35t19 -31t2.5 -32q-8 -19 -25.5 -25.5 t-57.5 -6.5h-349q-36 0 -49 17.5t-4 40.5q5 13 20 25.5t31 22t34.5 32t28.5 53.5l152 465h-32q-30 0 -49 -8t-39 -30l-45 -48q-61 -62 -122 -62q-39 0 -56.5 21.5t-7.5 57.5zM1178 622q5 13 20.5 25.5t31.5 22t34 32t29 53.5l146 442l-20 53q-16 43 0 65t56 22h213 q28 0 46 -7.5t28 -22t19 -39.5l128 -368l343 356q44 46 82 63.5t96 17.5h203q33 0 47.5 -14t8.5 -38q-4 -17 -16.5 -29.5t-26.5 -21.5t-31.5 -32t-29.5 -58l-136 -405q-8 -24 -1.5 -45t18 -35t19 -31t1.5 -32q-7 -19 -24 -25.5t-57 -6.5h-350q-36 0 -49 17.5t-5 40.5 q4 11 15 20.5t24 18t26.5 19.5t27 30.5t22.5 44.5l77 237l-343 -350q-47 -47 -72 -63.5t-56 -16.5q-33 0 -51 18t-33 62l-129 358l-86 -261q-8 -24 -1.5 -45.5t18 -35.5t19.5 -30.5t2 -31.5q-5 -13 -14 -19.5t-25 -9.5t-43 -3h-147q-36 0 -49 17.5t-5 40.5z" />
<glyph unicode="&#x25fc;" horiz-adv-x="1063" d="M0 0v1063h1063v-1063h-1063z" />
<glyph unicode="&#xfb03;" horiz-adv-x="2253" d="M-90 62q5 15 16 25t25 17.5t29 18.5t30.5 33.5t25.5 56.5l157 513q14 52 8.5 82t-23.5 53.5t-37.5 36.5t-35 30.5t-15.5 36.5q-1 38 27.5 54.5t110.5 16.5h55q-18 54 -17.5 108t17.5 97q43 112 157 177t303 65q217 0 399 -112q128 112 365 112q134 0 249 -34.5 t243 -109.5q27 80 86.5 126t132.5 46q46 0 83 -15t59 -40.5t35.5 -58t12.5 -67.5t-10 -70q-24 -76 -82.5 -118t-141.5 -42q-46 0 -103.5 18.5t-111.5 45t-108.5 53.5t-110 45.5t-98.5 18.5q-56 0 -92.5 -22t-54.5 -79q-17 -57 1.5 -100.5t62.5 -43.5h434q167 0 227.5 -66 t23.5 -187l-177 -574q-10 -35 -6.5 -55t14.5 -35t23.5 -23.5t19.5 -20t4 -25.5q-9 -26 -39 -38t-94 -12h-457q-53 0 -77 17t-16 45q4 15 15.5 25t26 17.5t29.5 18.5t30 33.5t25 56.5l195 646h-259l-199 -650q-9 -36 -5.5 -56t14 -34.5t22.5 -23t19.5 -20t3.5 -25.5 q-9 -26 -39 -38t-93 -12h-458q-53 0 -76 17t-16 45q5 15 16.5 25t25.5 17.5t29 18.5t30.5 33.5t25.5 56.5l197 646h-261l-199 -650q-10 -36 -6.5 -56t14.5 -34.5t23 -23t19.5 -20t3.5 -25.5q-9 -26 -39 -38t-93 -12h-458q-53 0 -76.5 17t-15.5 45zM728 1086.5 q19 -50.5 63 -50.5h261q-35 92 -10 188q-96 57 -175 57q-109 0 -139 -88q-19 -56 0 -106.5z" />
<glyph unicode="&#xfb04;" horiz-adv-x="2261" d="M-90 62q5 15 16 25t25 17.5t29 18.5t30.5 33.5t25.5 56.5l157 513q14 52 8.5 82t-23.5 53.5t-37.5 36.5t-35 30.5t-15.5 36.5q-1 38 27.5 54.5t110.5 16.5h55q-18 54 -17.5 108t17.5 97q43 112 157 177t303 65q216 0 395 -110q125 110 369 110q180 0 330 -74 q31 21 85.5 38t119 26.5t126.5 9.5q61 0 106 -13t71 -35.5t38.5 -54.5t11 -69t-14.5 -79l-315 -1023q-10 -35 -6.5 -55t14.5 -35t23.5 -23.5t19.5 -20t4 -25.5q-9 -26 -39 -38t-94 -12h-457q-53 0 -77 17t-16 45q4 13 13 22t19.5 14.5t23.5 14.5t25 19.5t24.5 31t20.5 49.5 l197 646h-259l-199 -650q-9 -36 -5.5 -56t14 -34.5t22.5 -23t19.5 -20t3.5 -25.5q-9 -26 -39 -38t-93 -12h-458q-53 0 -76 17t-16 45q5 15 16.5 25t25.5 17.5t28.5 18.5t30 33.5t26.5 56.5l195 646h-259l-199 -650q-10 -36 -6.5 -56t14.5 -34.5t23 -23t19.5 -20t3.5 -25.5 q-9 -26 -39 -38t-93 -12h-458q-53 0 -76.5 17t-15.5 45zM728 1086.5q19 -50.5 63 -50.5h257q-33 95 -6 188q-96 57 -175 57q-109 0 -139 -88q-19 -56 0 -106.5zM1492.5 1086.5q18.5 -50.5 62.5 -50.5h259l46 152q-133 93 -228 93q-109 0 -138 -88q-20 -56 -1.5 -106.5z" />
</font>
</defs>
</svg>
